<svg width="80" height="80" viewBox="0 0 80 80" fill="none" xmlns="http://www.w3.org/2000/svg">
<path fill-rule="evenodd" clip-rule="evenodd" d="M30.2202 3.33325C28.2752 3.33369 26.4102 4.10673 25.0352 5.48231C23.6602 6.85789 22.8881 8.72333 22.8885 10.6683C22.8889 12.6132 23.662 14.4783 25.0376 15.8532C26.4131 17.2282 28.2786 18.0004 30.2235 17.9999H37.5568V10.6666C37.5551 8.72221 36.7819 6.85797 35.407 5.48308C34.0321 4.1082 32.1679 3.33502 30.2235 3.33325H30.2202ZM30.2202 22.8899H10.6668C8.72191 22.8899 6.85665 23.6625 5.48138 25.0378C4.10611 26.4131 3.3335 28.2783 3.3335 30.2233C3.3335 32.1682 4.10611 34.0334 5.48138 35.4087C6.85665 36.784 8.72191 37.5566 10.6668 37.5566H30.2202C32.1651 37.5566 34.0303 36.784 35.4056 35.4087C36.7809 34.0334 37.5535 32.1682 37.5535 30.2233C37.5535 28.2783 36.7809 26.4131 35.4056 25.0378C34.0303 23.6625 32.1651 22.8899 30.2202 22.8899ZM76.6668 30.2199C76.6668 28.275 75.8942 26.4097 74.5189 25.0345C73.1437 23.6592 71.2784 22.8866 69.3335 22.8866C67.3886 22.8866 65.5233 23.6592 64.148 25.0345C62.7728 26.4097 62.0002 28.275 62.0002 30.2199V37.5532H69.3335C71.2784 37.5532 73.1437 36.7806 74.5189 35.4054C75.8942 34.0301 76.6668 32.1648 76.6668 30.2199ZM57.1102 30.2199V10.6666C57.1102 8.72166 56.3375 6.8564 54.9623 5.48114C53.587 4.10587 51.7217 3.33325 49.7768 3.33325C47.8319 3.33325 45.9666 4.10587 44.5914 5.48114C43.2161 6.8564 42.4435 8.72166 42.4435 10.6666V30.2199C42.4435 32.1648 43.2161 34.0301 44.5914 35.4054C45.9666 36.7806 47.8319 37.5532 49.7768 37.5532C51.7217 37.5532 53.587 36.7806 54.9623 35.4054C56.3375 34.0301 57.1102 32.1648 57.1102 30.2199ZM49.7768 76.6666C51.7217 76.6666 53.587 75.894 54.9623 74.5187C56.3375 73.1434 57.1102 71.2782 57.1102 69.3332C57.1102 67.3883 56.3375 65.5231 54.9623 64.1478C53.587 62.7725 51.7217 61.9999 49.7768 61.9999H42.4435V69.3332C42.4444 71.2779 43.2173 73.1426 44.5924 74.5177C45.9674 75.8928 47.8322 76.6657 49.7768 76.6666ZM49.7768 57.1066H69.3335C71.2784 57.1066 73.1437 56.334 74.5189 54.9587C75.8942 53.5834 76.6668 51.7182 76.6668 49.7732C76.6668 47.8283 75.8942 45.9631 74.5189 44.5878C73.1437 43.2125 71.2784 42.4399 69.3335 42.4399H49.7802C47.8352 42.4395 45.9698 43.2117 44.5942 44.5866C43.2186 45.9616 42.4456 47.8267 42.4452 49.7716C42.4447 51.7165 43.2169 53.5819 44.5919 54.9575C45.9668 56.3331 47.8319 57.1061 49.7768 57.1066ZM3.3335 49.7766C3.3335 51.7215 4.10611 53.5868 5.48138 54.962C6.85665 56.3373 8.72191 57.1099 10.6668 57.1099C12.6117 57.1099 14.477 56.3373 15.8523 54.962C17.2275 53.5868 18.0002 51.7215 18.0002 49.7766V42.4432H10.6668C8.72191 42.4432 6.85665 43.2159 5.48138 44.5911C4.10611 45.9664 3.3335 47.8317 3.3335 49.7766ZM22.8902 49.7766V69.3299C22.8897 71.2748 23.6619 73.1403 25.0369 74.5159C26.4118 75.8914 28.2769 76.6645 30.2218 76.6649C32.1667 76.6654 34.0322 75.8932 35.4078 74.5182C36.7833 73.1432 37.5564 71.2782 37.5568 69.3332V49.7799C37.5573 47.835 36.7851 45.9696 35.4101 44.594C34.0352 43.2184 32.1701 42.4454 30.2252 42.4449C28.2802 42.4445 26.4148 43.2167 25.0392 44.5916C23.6636 45.9666 22.8906 47.8317 22.8902 49.7766Z" fill="#DCDE9F"/>
</svg>
