<svg width="80" height="80" viewBox="0 0 80 80" fill="none" xmlns="http://www.w3.org/2000/svg">
<g clip-path="url(#clip0_36_1264)">
<path d="M67.7235 14.9733C62.6235 12.6733 57.1568 10.9733 51.4401 10.0067C51.3892 9.99689 51.3365 10.0032 51.2893 10.0247C51.2422 10.0462 51.2028 10.0818 51.1768 10.1267C50.4768 11.3567 49.6968 12.96 49.1501 14.2267C43.0871 13.3208 36.9232 13.3208 30.8601 14.2267C30.2513 12.8229 29.5646 11.4541 28.8035 10.1267C28.7777 10.0813 28.7386 10.0448 28.6916 10.0222C28.6445 9.99956 28.5917 9.99182 28.5401 9.99999C22.8268 10.9667 17.3601 12.6667 12.2568 14.97C12.2129 14.9884 12.1757 15.0198 12.1501 15.06C1.7768 30.31 -1.06653 45.1833 0.330137 59.87C0.334024 59.906 0.345189 59.9408 0.362954 59.9723C0.380718 60.0038 0.404711 60.0314 0.433471 60.0533C6.48811 64.4614 13.2413 67.8194 20.4101 69.9866C20.4601 70.002 20.5136 70.002 20.5635 69.9865C20.6135 69.9711 20.6576 69.9409 20.6901 69.9C22.2328 67.8369 23.5998 65.6481 24.7768 63.3566C24.7931 63.3253 24.8026 63.2908 24.8044 63.2556C24.8063 63.2203 24.8005 63.185 24.7876 63.1521C24.7746 63.1193 24.7547 63.0896 24.7293 63.065C24.7039 63.0405 24.6735 63.0217 24.6401 63.01C22.4868 62.1991 20.4004 61.2205 18.4001 60.0833C18.3642 60.0628 18.3339 60.0337 18.312 59.9986C18.2901 59.9635 18.2772 59.9235 18.2746 59.8822C18.2719 59.8409 18.2796 59.7996 18.2969 59.7619C18.3141 59.7243 18.3404 59.6916 18.3735 59.6666C18.7935 59.3566 19.2135 59.0333 19.6135 58.71C19.6495 58.6809 19.6928 58.6624 19.7388 58.6565C19.7847 58.6506 19.8313 58.6576 19.8735 58.6767C32.9635 64.5566 47.1401 64.5566 60.0768 58.6767C60.1191 58.6565 60.1662 58.6486 60.2128 58.6539C60.2593 58.6592 60.3035 58.6775 60.3401 58.7066C60.7401 59.0333 61.1568 59.3566 61.5801 59.6666C61.6135 59.6911 61.6403 59.7234 61.6581 59.7607C61.6759 59.7979 61.6842 59.8391 61.6822 59.8804C61.6802 59.9216 61.668 59.9618 61.6467 59.9972C61.6254 60.0326 61.5957 60.0622 61.5601 60.0833C59.5668 61.23 57.4935 62.2 55.3168 63.0066C55.2834 63.0188 55.2529 63.0379 55.2275 63.0627C55.202 63.0876 55.1822 63.1176 55.1692 63.1507C55.1563 63.1838 55.1506 63.2193 55.1525 63.2549C55.1543 63.2904 55.1638 63.3251 55.1801 63.3566C56.3801 65.6466 57.7535 67.8266 59.2635 69.8966C59.2949 69.9391 59.3386 69.9709 59.3887 69.9876C59.4388 70.0043 59.4929 70.0051 59.5435 69.99C66.7246 67.8288 73.4888 64.4692 79.5501 60.0533C79.5797 60.0326 79.6045 60.0059 79.6229 59.9748C79.6413 59.9438 79.6529 59.9092 79.6568 59.8733C81.3235 42.8933 76.8635 28.14 67.8268 15.0667C67.8046 15.0242 67.768 14.9911 67.7235 14.9733ZM26.7335 50.9266C22.7935 50.9266 19.5435 47.3633 19.5435 42.9933C19.5435 38.62 22.7301 35.06 26.7335 35.06C30.7668 35.06 33.9868 38.65 33.9235 42.9933C33.9235 47.3666 30.7368 50.9266 26.7335 50.9266ZM53.3168 50.9266C49.3735 50.9266 46.1268 47.3633 46.1268 42.9933C46.1268 38.62 49.3101 35.06 53.3168 35.06C57.3501 35.06 60.5701 38.65 60.5068 42.9933C60.5068 47.3666 57.3535 50.9266 53.3168 50.9266Z" fill="#DCDE9F"/>
</g>
<defs>
<clipPath id="clip0_36_1264">
<rect width="80" height="80" fill="white"/>
</clipPath>
</defs>
</svg>
