<svg width="100" height="100" viewBox="0 0 100 100" fill="none" xmlns="http://www.w3.org/2000/svg">
<path fill-rule="evenodd" clip-rule="evenodd" d="M37.7748 4.16675C35.3437 4.1673 33.0123 5.1336 31.2936 6.85308C29.5749 8.57255 28.6097 10.9043 28.6103 13.3355C28.6108 15.7666 29.5771 18.098 31.2966 19.8167C33.0161 21.5354 35.3478 22.5006 37.779 22.5001H46.9457V13.3334C46.9435 10.9029 45.977 8.57264 44.2584 6.85404C42.5398 5.13543 40.2095 4.16895 37.779 4.16675H37.7748ZM37.7748 28.6126H13.3332C10.902 28.6126 8.57044 29.5783 6.85136 31.2974C5.13227 33.0165 4.1665 35.3481 4.1665 37.7792C4.1665 40.2104 5.13227 42.542 6.85136 44.2611C8.57044 45.9801 10.902 46.9459 13.3332 46.9459H37.7748C40.206 46.9459 42.5376 45.9801 44.2566 44.2611C45.9757 42.542 46.9415 40.2104 46.9415 37.7792C46.9415 35.3481 45.9757 33.0165 44.2566 31.2974C42.5376 29.5783 40.206 28.6126 37.7748 28.6126ZM95.8332 37.7751C95.8332 35.3439 94.8674 33.0123 93.1483 31.2933C91.4292 29.5742 89.0976 28.6084 86.6665 28.6084C84.2353 28.6084 81.9038 29.5742 80.1847 31.2933C78.4656 33.0123 77.4998 35.3439 77.4998 37.7751V46.9417H86.6665C89.0976 46.9417 91.4292 45.976 93.1483 44.2569C94.8674 42.5378 95.8332 40.2062 95.8332 37.7751ZM71.3873 37.7751V13.3334C71.3873 10.9023 70.4216 8.57069 68.7025 6.8516C66.9834 5.13252 64.6518 4.16675 62.2207 4.16675C59.7895 4.16675 57.4579 5.13252 55.7388 6.8516C54.0198 8.57069 53.054 10.9023 53.054 13.3334V37.7751C53.054 40.2062 54.0198 42.5378 55.7388 44.2569C57.4579 45.976 59.7895 46.9417 62.2207 46.9417C64.6518 46.9417 66.9834 45.976 68.7025 44.2569C70.4216 42.5378 71.3873 40.2062 71.3873 37.7751ZM62.2207 95.8334C64.6518 95.8334 66.9834 94.8676 68.7025 93.1485C70.4216 91.4295 71.3873 89.0979 71.3873 86.6667C71.3873 84.2356 70.4216 81.904 68.7025 80.1849C66.9834 78.4658 64.6518 77.5001 62.2207 77.5001H53.054V86.6667C53.0551 89.0975 54.0212 91.4285 55.7401 93.1473C57.4589 94.8662 59.7898 95.8323 62.2207 95.8334ZM62.2207 71.3834H86.6665C89.0976 71.3834 91.4292 70.4176 93.1483 68.6985C94.8674 66.9795 95.8332 64.6479 95.8332 62.2167C95.8332 59.7856 94.8674 57.454 93.1483 55.7349C91.4292 54.0158 89.0976 53.0501 86.6665 53.0501H62.2248C59.7937 53.0495 57.4619 54.0148 55.7424 55.7335C54.0229 57.4521 53.0566 59.7835 53.0561 62.2147C53.0555 64.6458 54.0208 66.9776 55.7395 68.6971C57.4582 70.4165 59.7895 71.3829 62.2207 71.3834ZM4.1665 62.2209C4.1665 64.6521 5.13227 66.9836 6.85136 68.7027C8.57044 70.4218 10.902 71.3876 13.3332 71.3876C15.7643 71.3876 18.0959 70.4218 19.815 68.7027C21.5341 66.9836 22.4998 64.6521 22.4998 62.2209V53.0542H13.3332C10.902 53.0542 8.57044 54.02 6.85136 55.7391C5.13227 57.4582 4.1665 59.7898 4.1665 62.2209ZM28.6123 62.2209V86.6626C28.6118 89.0937 29.577 91.4255 31.2957 93.145C33.0144 94.8645 35.3458 95.8308 37.7769 95.8313C40.2081 95.8319 42.5399 94.8666 44.2593 93.1479C45.9788 91.4292 46.9451 89.0979 46.9457 86.6667V62.2251C46.9462 59.7939 45.981 57.4621 44.2623 55.7427C42.5436 54.0232 40.2122 53.0569 37.7811 53.0563C35.3499 53.0558 33.0181 54.021 31.2987 55.7397C29.5792 57.4584 28.6129 59.7898 28.6123 62.2209Z" fill="#183114"/>
</svg>
