<svg width="80" height="80" viewBox="0 0 80 80" fill="none" xmlns="http://www.w3.org/2000/svg">
<path d="M78.8102 16.4566C76.0269 17.6899 73.0369 18.5233 69.8935 18.8999C73.1369 16.9592 75.5633 13.9048 76.7202 10.3066C73.673 12.1166 70.338 13.3906 66.8602 14.0733C64.5215 11.5761 61.4237 9.92102 58.048 9.36484C54.6722 8.80867 51.2072 9.38257 48.191 10.9974C45.1748 12.6123 42.7761 15.1778 41.3674 18.2956C39.9586 21.4134 39.6187 24.9091 40.4002 28.2399C34.2258 27.9299 28.1856 26.3251 22.6716 23.5296C17.1576 20.7341 12.293 16.8105 8.39353 12.0133C7.0602 14.3133 6.29354 16.9799 6.29354 19.8199C6.29205 22.3766 6.92164 24.8941 8.12646 27.149C9.33128 29.404 11.0741 31.3267 13.2002 32.7466C10.7345 32.6681 8.32311 32.0019 6.16687 30.8033V31.0033C6.16662 34.5891 7.40698 38.0645 9.67748 40.8399C11.948 43.6153 15.1088 45.5197 18.6235 46.2299C16.3361 46.849 13.938 46.9402 11.6102 46.4966C12.6019 49.582 14.5335 52.28 17.1348 54.213C19.736 56.146 22.8766 57.2172 26.1169 57.2766C20.6163 61.5946 13.8232 63.9369 6.8302 63.9266C5.59147 63.9269 4.35379 63.8546 3.12354 63.7099C10.2218 68.2738 18.4847 70.696 26.9235 70.6866C55.4902 70.6866 71.1069 47.0266 71.1069 26.5066C71.1069 25.8399 71.0902 25.1666 71.0602 24.4999C74.0978 22.3032 76.7199 19.5829 78.8035 16.4666L78.8102 16.4566Z" fill="#DCDE9F"/>
</svg>
