<svg width="100" height="100" viewBox="0 0 100 100" fill="none" xmlns="http://www.w3.org/2000/svg">
<path fill-rule="evenodd" clip-rule="evenodd" d="M31.104 4.44175C35.9915 4.21675 37.5498 4.16675 49.9998 4.16675C62.4498 4.16675 64.0082 4.22091 68.8915 4.44175C73.7748 4.66258 77.1082 5.44175 80.0248 6.57091C83.079 7.72508 85.8498 9.52925 88.1415 11.8626C90.4748 14.1501 92.2748 16.9167 93.4248 19.9751C94.5582 22.8917 95.3332 26.2251 95.5582 31.1001C95.7832 35.9959 95.8332 37.5542 95.8332 50.0001C95.8332 62.4501 95.779 64.0084 95.5582 68.8959C95.3373 73.7709 94.5582 77.1042 93.4248 80.0209C92.2748 83.0796 90.4718 85.8509 88.1415 88.1417C85.8498 90.4751 83.079 92.2751 80.0248 93.4251C77.1082 94.5584 73.7748 95.3334 68.8998 95.5584C64.0082 95.7834 62.4498 95.8334 49.9998 95.8334C37.5498 95.8334 35.9915 95.7792 31.104 95.5584C26.229 95.3376 22.8957 94.5584 19.979 93.4251C16.9203 92.2749 14.1491 90.472 11.8582 88.1417C9.52642 85.8529 7.72198 83.0829 6.57067 80.0251C5.4415 77.1084 4.6665 73.7751 4.4415 68.9001C4.2165 64.0042 4.1665 62.4459 4.1665 50.0001C4.1665 37.5501 4.22067 35.9917 4.4415 31.1084C4.66234 26.2251 5.4415 22.8917 6.57067 19.9751C7.72368 16.9171 9.5295 14.1472 11.8623 11.8584C14.15 9.52717 16.9185 7.72276 19.9748 6.57091C22.8915 5.44175 26.2248 4.66675 31.0998 4.44175H31.104ZM68.5207 12.6917C63.6873 12.4709 62.2373 12.4251 49.9998 12.4251C37.7623 12.4251 36.3123 12.4709 31.479 12.6917C27.0082 12.8959 24.5832 13.6417 22.9665 14.2709C20.829 15.1042 19.2998 16.0917 17.6957 17.6959C16.175 19.1753 15.0048 20.9763 14.2707 22.9667C13.6415 24.5834 12.8957 27.0084 12.6915 31.4792C12.4707 36.3126 12.4248 37.7626 12.4248 50.0001C12.4248 62.2376 12.4707 63.6876 12.6915 68.5209C12.8957 72.9917 13.6415 75.4167 14.2707 77.0334C15.004 79.0209 16.1748 80.8251 17.6957 82.3042C19.1748 83.8251 20.979 84.9959 22.9665 85.7292C24.5832 86.3584 27.0082 87.1042 31.479 87.3084C36.3123 87.5292 37.7582 87.5751 49.9998 87.5751C62.2415 87.5751 63.6873 87.5292 68.5207 87.3084C72.9915 87.1042 75.4165 86.3584 77.0332 85.7292C79.1707 84.8959 80.6998 83.9084 82.304 82.3042C83.8248 80.8251 84.9957 79.0209 85.729 77.0334C86.3582 75.4167 87.104 72.9917 87.3082 68.5209C87.529 63.6876 87.5748 62.2376 87.5748 50.0001C87.5748 37.7626 87.529 36.3126 87.3082 31.4792C87.104 27.0084 86.3582 24.5834 85.729 22.9667C84.8957 20.8292 83.9082 19.3001 82.304 17.6959C80.8245 16.1754 79.0236 15.0051 77.0332 14.2709C75.4165 13.6417 72.9915 12.8959 68.5207 12.6917ZM44.1457 64.1292C47.4151 65.4902 51.0556 65.6739 54.4454 64.6489C57.8352 63.6239 60.764 61.4539 62.7315 58.5094C64.6991 55.5649 65.5834 52.0287 65.2334 48.5047C64.8833 44.9807 63.3207 41.6875 60.8123 39.1876C59.2133 37.5896 57.2799 36.366 55.1512 35.6049C53.0226 34.8438 50.7516 34.5641 48.5019 34.786C46.2522 35.0079 44.0796 35.7258 42.1407 36.8881C40.2017 38.0504 38.5446 39.6282 37.2886 41.5078C36.0326 43.3874 35.209 45.5221 34.877 47.7582C34.545 49.9944 34.713 52.2763 35.3687 54.4397C36.0245 56.6032 37.1518 58.5943 38.6695 60.2697C40.1872 61.9452 42.0574 63.2633 44.1457 64.1292ZM33.3415 33.3417C35.5291 31.1541 38.1262 29.4188 40.9844 28.2349C43.8426 27.051 46.9061 26.4416 49.9998 26.4416C53.0936 26.4416 56.157 27.051 59.0153 28.2349C61.8735 29.4188 64.4706 31.1541 66.6582 33.3417C68.8458 35.5293 70.5811 38.1264 71.765 40.9846C72.9489 43.8429 73.5583 46.9063 73.5583 50.0001C73.5583 53.0938 72.9489 56.1573 71.765 59.0155C70.5811 61.8737 68.8458 64.4708 66.6582 66.6584C62.2401 71.0765 56.2479 73.5585 49.9998 73.5585C43.7517 73.5585 37.7596 71.0765 33.3415 66.6584C28.9234 62.2403 26.4414 56.2482 26.4414 50.0001C26.4414 43.752 28.9234 37.7598 33.3415 33.3417ZM78.7832 29.9501C79.3253 29.4387 79.7592 28.8237 80.0594 28.1416C80.3596 27.4595 80.5199 26.7241 80.5307 25.979C80.5416 25.2338 80.4028 24.494 80.1227 23.8035C79.8425 23.1129 79.4266 22.4855 78.8997 21.9586C78.3727 21.4316 77.7454 21.0157 77.0548 20.7356C76.3642 20.4554 75.6244 20.3166 74.8793 20.3275C74.1341 20.3384 73.3987 20.4986 72.7166 20.7988C72.0345 21.099 71.4195 21.533 70.9082 22.0751C69.9136 23.1294 69.3691 24.5298 69.3903 25.979C69.4114 27.4282 69.9965 28.8121 71.0213 29.8369C72.0462 30.8618 73.4301 31.4469 74.8793 31.468C76.3285 31.4891 77.7289 30.9446 78.7832 29.9501Z" fill="#183114"/>
</svg>
