<svg width="80" height="80" viewBox="0 0 80 80" fill="none" xmlns="http://www.w3.org/2000/svg">
<path fill-rule="evenodd" clip-rule="evenodd" d="M24.8835 3.55325C28.7935 3.37325 30.0402 3.33325 40.0002 3.33325C49.9602 3.33325 51.2068 3.37659 55.1135 3.55325C59.0202 3.72992 61.6868 4.35325 64.0202 5.25659C66.4635 6.17992 68.6802 7.62325 70.5135 9.48992C72.3802 11.3199 73.8202 13.5333 74.7402 15.9799C75.6468 18.3133 76.2668 20.9799 76.4468 24.8799C76.6268 28.7966 76.6668 30.0432 76.6668 39.9999C76.6668 49.9599 76.6235 51.2066 76.4468 55.1166C76.2702 59.0166 75.6468 61.6832 74.7402 64.0166C73.8201 66.4636 72.3778 68.6806 70.5135 70.5132C68.6802 72.3799 66.4635 73.8199 64.0202 74.7399C61.6868 75.6466 59.0202 76.2666 55.1202 76.4466C51.2068 76.6266 49.9602 76.6666 40.0002 76.6666C30.0402 76.6666 28.7935 76.6232 24.8835 76.4466C20.9835 76.2699 18.3168 75.6466 15.9835 74.7399C13.5366 73.8198 11.3196 72.3774 9.48683 70.5132C7.62143 68.6821 6.17788 66.4662 5.25683 64.0199C4.3535 61.6866 3.7335 59.0199 3.5535 55.1199C3.3735 51.2032 3.3335 49.9566 3.3335 39.9999C3.3335 30.0399 3.37683 28.7932 3.5535 24.8866C3.73016 20.9799 4.3535 18.3133 5.25683 15.9799C6.17924 13.5335 7.62389 11.3176 9.49016 9.48658C11.3203 7.62159 13.5351 6.17806 15.9802 5.25659C18.3135 4.35325 20.9802 3.73325 24.8802 3.55325H24.8835ZM54.8168 10.1533C50.9502 9.97658 49.7902 9.93992 40.0002 9.93992C30.2102 9.93992 29.0502 9.97658 25.1835 10.1533C21.6068 10.3166 19.6668 10.9133 18.3735 11.4166C16.6635 12.0833 15.4402 12.8733 14.1568 14.1566C12.9403 15.3401 12.0041 16.7809 11.4168 18.3733C10.9135 19.6666 10.3168 21.6066 10.1535 25.1832C9.97683 29.0499 9.94016 30.2099 9.94016 39.9999C9.94016 49.7899 9.97683 50.9499 10.1535 54.8166C10.3168 58.3932 10.9135 60.3332 11.4168 61.6266C12.0035 63.2166 12.9402 64.6599 14.1568 65.8432C15.3402 67.0599 16.7835 67.9966 18.3735 68.5833C19.6668 69.0866 21.6068 69.6833 25.1835 69.8466C29.0502 70.0232 30.2068 70.0599 40.0002 70.0599C49.7935 70.0599 50.9502 70.0232 54.8168 69.8466C58.3935 69.6833 60.3335 69.0866 61.6268 68.5833C63.3368 67.9166 64.5602 67.1266 65.8435 65.8432C67.0602 64.6599 67.9968 63.2166 68.5835 61.6266C69.0868 60.3332 69.6835 58.3932 69.8468 54.8166C70.0235 50.9499 70.0602 49.7899 70.0602 39.9999C70.0602 30.2099 70.0235 29.0499 69.8468 25.1832C69.6835 21.6066 69.0868 19.6666 68.5835 18.3733C67.9168 16.6633 67.1268 15.4399 65.8435 14.1566C64.6599 12.9402 63.2192 12.004 61.6268 11.4166C60.3335 10.9133 58.3935 10.3166 54.8168 10.1533ZM35.3168 51.3032C37.9324 52.392 40.8448 52.539 43.5566 51.719C46.2684 50.899 48.6115 49.163 50.1855 46.8074C51.7596 44.4518 52.467 41.6228 52.187 38.8036C51.907 35.9844 50.6568 33.3498 48.6502 31.3499C47.3709 30.0715 45.8242 29.0926 44.1213 28.4837C42.4183 27.8749 40.6016 27.6511 38.8018 27.8286C37.002 28.0062 35.264 28.5805 33.7128 29.5104C32.1617 30.4402 30.836 31.7024 29.8312 33.2061C28.8264 34.7098 28.1675 36.4175 27.9019 38.2065C27.6363 39.9954 27.7707 41.8209 28.2953 43.5516C28.8199 45.2824 29.7218 46.8753 30.9359 48.2157C32.15 49.556 33.6462 50.6105 35.3168 51.3032ZM26.6735 26.6732C28.4236 24.9232 30.5012 23.5349 32.7878 22.5878C35.0744 21.6406 37.5252 21.1532 40.0002 21.1532C42.4752 21.1532 44.9259 21.6406 47.2125 22.5878C49.4991 23.5349 51.5767 24.9232 53.3268 26.6732C55.0769 28.4233 56.4651 30.501 57.4123 32.7876C58.3594 35.0742 58.8469 37.5249 58.8469 39.9999C58.8469 42.4749 58.3594 44.9257 57.4123 47.2123C56.4651 49.4988 55.0769 51.5765 53.3268 53.3266C49.7924 56.861 44.9986 58.8467 40.0002 58.8467C35.0017 58.8467 30.2079 56.861 26.6735 53.3266C23.139 49.7921 21.1534 44.9984 21.1534 39.9999C21.1534 35.0014 23.139 30.2077 26.6735 26.6732ZM63.0268 23.9599C63.4605 23.5508 63.8077 23.0589 64.0478 22.5132C64.288 21.9675 64.4162 21.3791 64.4249 20.783C64.4336 20.1869 64.3226 19.5951 64.0984 19.0426C63.8743 18.4902 63.5416 17.9883 63.12 17.5667C62.6985 17.1451 62.1966 16.8124 61.6441 16.5883C61.0917 16.3642 60.4999 16.2532 59.9037 16.2619C59.3076 16.2706 58.7193 16.3988 58.1736 16.6389C57.6279 16.879 57.1359 17.2262 56.7268 17.6599C55.9312 18.5033 55.4956 19.6237 55.5125 20.783C55.5294 21.9424 55.9975 23.0495 56.8173 23.8694C57.6372 24.6893 58.7444 25.1573 59.9037 25.1742C61.0631 25.1911 62.1834 24.7555 63.0268 23.9599Z" fill="#DCDE9F"/>
</svg>
