<svg width="80" height="80" viewBox="0 0 80 80" fill="none" xmlns="http://www.w3.org/2000/svg">
<path fill-rule="evenodd" clip-rule="evenodd" d="M3.3335 9.45993C3.3335 7.83503 3.97898 6.27669 5.12796 5.12772C6.27693 3.97875 7.83527 3.33326 9.46016 3.33326H70.5335C71.3387 3.33194 72.1363 3.48947 72.8806 3.79682C73.6249 4.10416 74.3013 4.55529 74.871 5.12438C75.4407 5.69347 75.8926 6.36934 76.2007 7.11329C76.5089 7.85725 76.6673 8.65468 76.6668 9.45993V70.5333C76.6677 71.3387 76.5098 72.1363 76.2021 72.8806C75.8944 73.625 75.4429 74.3013 74.8736 74.871C74.3042 75.4406 73.6281 75.8924 72.884 76.2005C72.1398 76.5087 71.3422 76.667 70.5368 76.6666H9.46016C8.65532 76.6666 7.85836 76.508 7.11482 76.1999C6.37128 75.8918 5.69573 75.4402 5.12678 74.871C4.55782 74.3017 4.1066 73.6259 3.7989 72.8822C3.49121 72.1385 3.33306 71.3414 3.3335 70.5366V9.45993ZM32.3602 31.2933H42.2902V36.2799C43.7235 33.4133 47.3902 30.8333 52.9002 30.8333C63.4635 30.8333 65.9668 36.5433 65.9668 47.0199V66.4266H55.2768V49.4066C55.2768 43.4399 53.8435 40.0733 50.2035 40.0733C45.1535 40.0733 43.0535 43.7033 43.0535 49.4066V66.4266H32.3602V31.2933ZM14.0268 65.9699H24.7202V30.8333H14.0268V65.9666V65.9699ZM26.2502 19.3733C26.2703 20.2888 26.1074 21.1992 25.771 22.051C25.4345 22.9027 24.9313 23.6787 24.2909 24.3334C23.6505 24.988 22.8858 25.5082 22.0417 25.8633C21.1975 26.2184 20.291 26.4013 19.3752 26.4013C18.4594 26.4013 17.5528 26.2184 16.7086 25.8633C15.8645 25.5082 15.0998 24.988 14.4594 24.3334C13.819 23.6787 13.3158 22.9027 12.9794 22.051C12.6429 21.1992 12.48 20.2888 12.5002 19.3733C12.5397 17.5761 13.2814 15.8659 14.5664 14.6089C15.8515 13.3519 17.5776 12.648 19.3752 12.648C21.1728 12.648 22.8989 13.3519 24.1839 14.6089C25.4689 15.8659 26.2106 17.5761 26.2502 19.3733Z" fill="#DCDE9F"/>
</svg>
