<svg width="100" height="100" viewBox="0 0 100 100" fill="none" xmlns="http://www.w3.org/2000/svg">
<path d="M98.5126 20.5707C95.0335 22.1124 91.296 23.1541 87.3668 23.6249C91.421 21.199 94.4541 17.381 95.9001 12.8832C92.0911 15.1457 87.9224 16.7382 83.5751 17.5916C80.6517 14.4702 76.7795 12.4013 72.5598 11.7061C68.3401 11.0108 64.0089 11.7282 60.2386 13.7468C56.4684 15.7654 53.47 18.9723 51.7091 22.8695C49.9482 26.7668 49.5232 31.1364 50.5001 35.2999C42.7822 34.9124 35.2319 32.9064 28.3394 29.412C21.4469 25.9177 15.3661 21.0131 10.4918 15.0166C8.82513 17.8916 7.8668 21.2249 7.8668 24.7749C7.86494 27.9707 8.65193 31.1176 10.158 33.9363C11.664 36.755 13.8425 39.1584 16.5001 40.9332C13.4179 40.8352 10.4038 40.0023 7.70846 38.5041V38.7541C7.70815 43.2363 9.2586 47.5806 12.0967 51.0499C14.9349 54.5191 18.8858 56.8996 23.2793 57.7874C20.4201 58.5612 17.4224 58.6752 14.5126 58.1207C15.7522 61.9775 18.1668 65.35 21.4183 67.7663C24.6699 70.1825 28.5956 71.5215 32.646 71.5957C25.7703 76.9933 17.2788 79.9211 8.53763 79.9082C6.98922 79.9086 5.44211 79.8182 3.9043 79.6374C12.7771 85.3423 23.1057 88.37 33.6543 88.3582C69.3626 88.3582 88.8835 58.7832 88.8835 33.1332C88.8835 32.2999 88.8626 31.4582 88.8251 30.6249C92.6222 27.879 95.8998 24.4786 98.5043 20.5832L98.5126 20.5707Z" fill="#183114"/>
</svg>
