<svg width="100" height="100" viewBox="0 0 100 100" fill="none" xmlns="http://www.w3.org/2000/svg">
<path fill-rule="evenodd" clip-rule="evenodd" d="M4.16651 11.8251C4.16651 9.79398 4.97336 7.84605 6.40958 6.40983C7.8458 4.97362 9.79372 4.16676 11.8248 4.16676H88.1665C89.1731 4.16511 90.1701 4.36202 91.1004 4.7462C92.0308 5.13039 92.8763 5.6943 93.5884 6.40566C94.3005 7.11702 94.8654 7.96186 95.2506 8.8918C95.6357 9.82174 95.8337 10.8185 95.8332 11.8251V88.1668C95.8343 89.1735 95.6369 90.1706 95.2522 91.101C94.8676 92.0314 94.3033 92.8768 93.5916 93.5889C92.8799 94.301 92.0348 94.8657 91.1046 95.2509C90.1744 95.636 89.1774 95.834 88.1707 95.8334H11.8248C10.8188 95.8334 9.82258 95.6352 8.89316 95.2501C7.96374 94.8649 7.1193 94.3005 6.40811 93.5889C5.69691 92.8773 5.13289 92.0326 4.74826 91.1029C4.36364 90.1733 4.16596 89.177 4.16651 88.1709V11.8251ZM40.4498 39.1168H52.8623V45.3501C54.654 41.7668 59.2373 38.5418 66.1248 38.5418C79.329 38.5418 82.4582 45.6793 82.4582 58.7751V83.0334H69.0957V61.7584C69.0957 54.3001 67.304 50.0918 62.754 50.0918C56.4415 50.0918 53.8165 54.6293 53.8165 61.7584V83.0334H40.4498V39.1168ZM17.5332 82.4626H30.8998V38.5418H17.5332V82.4584V82.4626ZM32.8123 24.2168C32.8375 25.3612 32.6339 26.4992 32.2133 27.5639C31.7928 28.6286 31.1638 29.5986 30.3633 30.4169C29.5628 31.2352 28.6069 31.8854 27.5517 32.3293C26.4966 32.7732 25.3633 33.0018 24.2186 33.0018C23.0738 33.0018 21.9406 32.7732 20.8854 32.3293C19.8303 31.8854 18.8744 31.2352 18.0739 30.4169C17.2734 29.5986 16.6444 28.6286 16.2238 27.5639C15.8033 26.4992 15.5996 25.3612 15.6248 24.2168C15.6743 21.9703 16.6014 19.8326 18.2077 18.2613C19.8139 16.69 21.9716 15.8102 24.2186 15.8102C26.4656 15.8102 28.6232 16.69 30.2295 18.2613C31.8357 19.8326 32.7629 21.9703 32.8123 24.2168Z" fill="#183114"/>
</svg>
