<svg width="101" height="68" viewBox="0 0 101 68" fill="none" xmlns="http://www.w3.org/2000/svg">
<path d="M97.9168 11.1125C97.3506 9.09262 96.2476 7.26393 94.7251 5.82083C93.1596 4.33334 91.2409 3.26931 89.1501 2.72916C81.3251 0.666658 49.9751 0.666658 49.9751 0.666658C36.9057 0.517961 23.8394 1.17197 10.8501 2.62499C8.75925 3.20505 6.84414 4.29285 5.27513 5.79166C3.73346 7.27499 2.6168 9.10416 2.03346 11.1083C0.632184 18.6573 -0.0486531 26.3223 0.00013019 34C-0.0498698 41.6708 0.629297 49.3333 2.03346 56.8917C2.6043 58.8875 3.7168 60.7083 5.26263 62.1792C6.80846 63.65 8.73346 64.7125 10.8501 65.275C18.7793 67.3333 49.9751 67.3333 49.9751 67.3333C63.0612 67.4822 76.1441 66.8282 89.1501 65.375C91.2409 64.8349 93.1596 63.7708 94.7251 62.2833C96.247 60.8405 97.3487 59.0116 97.9126 56.9917C99.3505 49.4456 100.05 41.7775 100 34.0958C100.108 26.3817 99.41 18.6773 97.9168 11.1083V11.1125ZM40.0085 48.2667V19.7375L66.0918 34.0042L40.0085 48.2667Z" fill="#183114"/>
</svg>
