<svg width="80" height="54" viewBox="0 0 80 54" fill="none" xmlns="http://www.w3.org/2000/svg">
<path d="M78.3334 8.69009C77.8804 7.0742 76.9981 5.61124 75.7801 4.45676C74.5277 3.26677 72.9928 2.41554 71.3201 1.98342C65.0601 0.333424 39.9801 0.333424 39.9801 0.333424C29.5245 0.214466 19.0715 0.737673 8.6801 1.90009C7.0074 2.36413 5.47531 3.23438 4.2201 4.43342C2.98677 5.62009 2.09344 7.08343 1.62677 8.68676C0.505747 14.7259 -0.0389224 20.8579 0.000104152 27.0001C-0.0398958 33.1368 0.503437 39.2668 1.62677 45.3134C2.08344 46.9101 2.97344 48.3668 4.2101 49.5434C5.44677 50.7201 6.98677 51.5701 8.6801 52.0201C15.0234 53.6668 39.9801 53.6668 39.9801 53.6668C50.449 53.7859 60.9153 53.2627 71.3201 52.1001C72.9928 51.668 74.5277 50.8168 75.7801 49.6268C76.9976 48.4725 77.879 47.0094 78.3301 45.3934C79.4804 39.3566 80.0397 33.2221 80.0001 27.0768C80.0866 20.9054 79.528 14.742 78.3334 8.68676V8.69009ZM32.0068 38.4134V15.5901L52.8734 27.0034L32.0068 38.4134Z" fill="#DCDE9F"/>
</svg>
