<svg width="296" height="261" viewBox="0 0 296 261" fill="none" xmlns="http://www.w3.org/2000/svg">
<g clip-path="url(#clip0_31_170)">
<path d="M21.0611 197.393L25.6129 194.756C25.6129 194.756 28.2865 183.492 27.2371 173.34C25.7199 159.091 16.3556 153.724 12.7931 154.955C9.2305 156.186 8.19448 160.309 14.0897 168.822C17.5721 173.848 21.8432 184.282 21.0611 197.393Z" fill="#F8ED41"/>
<g opacity="0.15">
<path opacity="0.15" d="M21.0611 197.393L25.6129 194.756C25.6129 194.756 28.2865 183.492 27.2371 173.34C25.7199 159.091 16.3556 153.724 12.7931 154.955C9.2305 156.186 8.19448 160.309 14.0897 168.822C17.5721 173.848 21.8432 184.282 21.0611 197.393Z" fill="black"/>
</g>
<path d="M22.946 191.858H22.9059C22.8227 191.842 22.7493 191.793 22.7017 191.723C22.6541 191.653 22.6362 191.567 22.6519 191.483C25.145 178.339 20.5598 163.568 14.8784 157.425C14.8504 157.394 14.8286 157.358 14.8144 157.319C14.8002 157.279 14.7939 157.238 14.7957 157.196C14.7976 157.155 14.8076 157.114 14.8253 157.076C14.8429 157.038 14.8678 157.004 14.8985 156.976C14.9292 156.948 14.9652 156.926 15.0043 156.912C15.0434 156.898 15.085 156.891 15.1266 156.893C15.1682 156.895 15.209 156.905 15.2467 156.923C15.2844 156.941 15.3182 156.965 15.3463 156.996C21.128 163.254 25.8001 178.265 23.2735 191.604C23.2578 191.678 23.2162 191.745 23.1563 191.791C23.0963 191.838 23.0218 191.861 22.946 191.858Z" fill="#26341C"/>
<path d="M8.48865 206.281C7.77346 206.649 5.86185 205.009 5.32713 204.614C4.41374 203.916 3.6955 202.994 3.24173 201.937C2.72729 200.746 2.59872 199.424 2.87411 198.156C3.01721 197.474 3.20931 196.803 3.44893 196.148C3.6695 195.512 3.88339 194.87 4.11733 194.234C4.3748 193.62 4.50443 192.959 4.49831 192.293C4.39806 190.955 3.26846 189.971 2.23913 189.114C1.08949 188.217 -0.0802107 186.986 -2.97511e-06 185.386C0.148082 184.154 0.70053 183.005 1.57073 182.12C2.37949 181.19 3.32862 180.38 4.07054 179.397C4.64916 178.712 4.97694 177.85 4.99961 176.954C4.94994 176.404 4.79326 175.87 4.53842 175.381C3.93784 174.359 3.42361 173.289 3.0011 172.182C2.6669 171.051 2.7939 169.665 3.6695 168.909C4.07183 168.637 4.52456 168.448 5.00097 168.354C5.47738 168.259 5.96782 168.262 6.44335 168.36C7.34365 168.518 8.19895 168.869 8.94984 169.391C11.4162 170.93 12.7062 174.002 15.3397 175.22C16.3878 175.609 17.4593 175.931 18.548 176.184C19.093 176.314 19.6047 176.557 20.0503 176.897C20.4958 177.237 20.8652 177.667 21.1347 178.158C22.0237 180.166 20.072 182.515 20.6602 184.644C21.1815 186.524 22.9394 187.321 23.8685 189.047C24.2389 189.807 24.3606 190.664 24.2161 191.497C24.0545 192.899 23.6376 194.26 22.9862 195.512C22.2555 196.809 21.4452 198.058 20.5599 199.254C20.5599 199.254 8.60228 206.227 8.48865 206.281Z" fill="#F8ED41"/>
<path d="M15.4536 202.647C15.4119 202.644 15.3712 202.633 15.3339 202.615C15.2966 202.596 15.2635 202.57 15.2367 202.538C15.2098 202.506 15.1897 202.469 15.1775 202.429C15.1654 202.389 15.1615 202.347 15.1661 202.305C16.3158 189.804 11.1157 175.669 7.03174 171.432C7.00223 171.404 6.97877 171.369 6.96275 171.331C6.94673 171.293 6.93848 171.253 6.93848 171.211C6.93848 171.17 6.94673 171.129 6.96275 171.091C6.97877 171.054 7.00223 171.019 7.03174 170.991C7.06097 170.961 7.09583 170.937 7.13427 170.921C7.17271 170.905 7.21397 170.897 7.25565 170.897C7.29733 170.897 7.33859 170.905 7.37704 170.921C7.41548 170.937 7.45033 170.961 7.47957 170.991C11.6437 175.307 16.9508 189.676 15.7878 202.352C15.7809 202.435 15.7423 202.512 15.68 202.567C15.6176 202.622 15.5365 202.651 15.4536 202.647Z" fill="#26341C"/>
<path d="M14.2167 187.234C14.1856 187.237 14.1542 187.237 14.1231 187.234C11.198 186.268 8.17709 185.622 5.11314 185.306C5.02983 185.298 4.95309 185.257 4.89982 185.193C4.84654 185.128 4.8211 185.045 4.82907 184.961C4.83705 184.878 4.8778 184.801 4.94235 184.748C5.00691 184.695 5.08998 184.669 5.1733 184.677C8.2895 184.998 11.3619 185.656 14.337 186.638C14.3763 186.652 14.4124 186.674 14.4432 186.702C14.474 186.731 14.4988 186.765 14.5162 186.803C14.5337 186.841 14.5433 186.882 14.5447 186.924C14.5461 186.965 14.5391 187.007 14.5242 187.046C14.4991 187.106 14.4559 187.156 14.4007 187.19C14.3455 187.223 14.2811 187.239 14.2167 187.234Z" fill="#26341C"/>
<path d="M11.4898 213.603L91.4904 259.842C92.7538 260.574 94.1822 260.972 95.6413 260.999C97.1005 261.025 98.5426 260.68 99.832 259.996L260.916 166.888C263.449 165.416 265.508 162.136 265.508 159.526C265.508 156.916 263.456 153.663 260.916 152.198L181.189 106.152C179.765 105.431 178.191 105.055 176.594 105.055C174.998 105.055 173.424 105.431 171.999 106.152L11.4898 198.946C8.95662 200.411 6.89795 203.697 6.89795 206.274C6.89795 208.851 8.95662 212.157 11.4898 213.603Z" fill="#37474F"/>
<path d="M91.4837 259.842L11.4898 213.603C8.95662 212.137 6.89795 208.858 6.89795 206.241C6.89795 203.624 8.95662 200.378 11.4898 198.912L95.8417 150.15V261.013C94.3107 261.019 92.8061 260.614 91.4837 259.842Z" fill="#263238"/>
<path d="M93.3886 251.603C94.645 252.237 96.0322 252.567 97.4391 252.567C98.8459 252.567 100.233 252.237 101.49 251.603L260.909 159.446C264.338 157.438 264.338 154.219 260.909 152.238L181.196 106.152C179.771 105.431 178.197 105.055 176.601 105.055C175.004 105.055 173.43 105.431 172.006 106.152L11.4965 198.946C8.96993 200.405 8.96993 202.801 11.4965 204.26L93.3886 251.603Z" fill="#455A64"/>
<path d="M101.129 242.321C102.483 243.007 103.979 243.365 105.497 243.365C107.014 243.365 108.51 243.007 109.864 242.321L247.04 163.02C249.446 161.628 249.446 159.365 247.04 157.973L172.046 114.625C170.692 113.942 169.197 113.586 167.681 113.586C166.165 113.586 164.67 113.942 163.316 114.625L26.141 193.926C23.7414 195.318 23.7414 197.587 26.141 198.979L101.129 242.321Z" fill="#37474F"/>
<path d="M167.948 113.601C169.376 113.608 170.782 113.959 172.046 114.625L247.04 157.947C249.446 159.339 249.446 161.601 247.04 162.993L232.175 171.586L167.948 130.52V113.601Z" fill="#263238"/>
<path d="M163.263 117.911C164.617 117.225 166.113 116.867 167.631 116.867C169.149 116.867 170.645 117.225 171.999 117.911L246.987 161.253C247.413 161.494 247.797 161.804 248.123 162.17C247.808 162.507 247.442 162.794 247.04 163.02L109.865 242.321C108.511 243.007 107.014 243.365 105.497 243.365C103.979 243.365 102.483 243.007 101.129 242.321L26.1413 198.979C25.721 198.748 25.3397 198.452 25.0117 198.102C25.3145 197.752 25.671 197.451 26.0678 197.212L163.263 117.911Z" fill="#FAFAFA"/>
<path d="M219.629 137.701L206.335 130.018C205.546 129.556 205.506 128.84 206.248 128.405C206.683 128.196 207.162 128.091 207.644 128.101C208.127 128.11 208.601 128.233 209.028 128.459L222.323 136.142C223.111 136.604 223.152 137.32 222.41 137.748C221.975 137.96 221.497 138.066 221.014 138.058C220.531 138.05 220.056 137.928 219.629 137.701Z" fill="#263238"/>
<path d="M196.803 124.523C196.639 124.47 196.497 124.366 196.396 124.227C196.295 124.087 196.24 123.919 196.24 123.747C196.24 123.575 196.295 123.407 196.396 123.267C196.497 123.128 196.639 123.024 196.803 122.971C197.217 122.76 197.675 122.65 198.14 122.65C198.605 122.65 199.063 122.76 199.477 122.971C199.64 123.024 199.783 123.128 199.884 123.267C199.985 123.407 200.04 123.575 200.04 123.747C200.04 123.919 199.985 124.087 199.884 124.227C199.783 124.366 199.64 124.47 199.477 124.523C199.063 124.734 198.605 124.844 198.14 124.844C197.675 124.844 197.217 124.734 196.803 124.523Z" fill="#263238"/>
<path d="M191.416 121.405C191.252 121.351 191.11 121.247 191.009 121.108C190.907 120.969 190.853 120.801 190.853 120.628C190.853 120.456 190.907 120.288 191.009 120.149C191.11 120.009 191.252 119.905 191.416 119.852C191.831 119.644 192.289 119.536 192.753 119.536C193.217 119.536 193.674 119.644 194.089 119.852C194.253 119.905 194.396 120.009 194.497 120.149C194.598 120.288 194.652 120.456 194.652 120.628C194.652 120.801 194.598 120.969 194.497 121.108C194.396 121.247 194.253 121.351 194.089 121.405C193.675 121.616 193.217 121.726 192.753 121.726C192.288 121.726 191.83 121.616 191.416 121.405Z" fill="#263238"/>
<path d="M234.521 146.321C234.357 146.268 234.215 146.164 234.114 146.025C234.012 145.885 233.958 145.717 233.958 145.545C233.958 145.373 234.012 145.205 234.114 145.065C234.215 144.926 234.357 144.822 234.521 144.769C234.936 144.56 235.393 144.451 235.858 144.451C236.322 144.451 236.78 144.56 237.194 144.769C237.358 144.822 237.501 144.926 237.602 145.065C237.703 145.205 237.757 145.373 237.757 145.545C237.757 145.717 237.703 145.885 237.602 146.025C237.501 146.164 237.358 146.268 237.194 146.321C236.781 146.533 236.322 146.644 235.858 146.644C235.393 146.644 234.935 146.533 234.521 146.321Z" fill="#263238"/>
<path d="M229.134 143.223C228.97 143.169 228.827 143.066 228.726 142.926C228.625 142.787 228.571 142.619 228.571 142.446C228.571 142.274 228.625 142.106 228.726 141.967C228.827 141.827 228.97 141.723 229.134 141.67C229.549 141.462 230.006 141.354 230.47 141.354C230.935 141.354 231.392 141.462 231.807 141.67C231.971 141.723 232.113 141.827 232.215 141.967C232.316 142.106 232.37 142.274 232.37 142.446C232.37 142.619 232.316 142.787 232.215 142.926C232.113 143.066 231.971 143.169 231.807 143.223C231.393 143.434 230.935 143.544 230.47 143.544C230.006 143.544 229.548 143.434 229.134 143.223Z" fill="#263238"/>
<path d="M97.7798 220.188V220.476C97.7944 220.729 97.8678 220.975 97.9943 221.195C98.1208 221.414 98.2968 221.601 98.5083 221.741L114.115 230.756C114.34 230.871 114.588 230.932 114.841 230.932C115.093 230.932 115.342 230.871 115.566 230.756L141.406 215.818C141.618 215.68 141.794 215.495 141.921 215.276C142.047 215.057 142.121 214.812 142.135 214.56V214.272C142.121 214.018 142.048 213.772 141.922 213.552C141.795 213.332 141.618 213.146 141.406 213.007L125.806 203.985C125.58 203.87 125.331 203.809 125.077 203.809C124.824 203.809 124.574 203.87 124.349 203.985L98.5083 218.923C98.2961 219.062 98.1195 219.249 97.9929 219.468C97.8663 219.688 97.7933 219.935 97.7798 220.188Z" fill="#4F6131"/>
<path d="M97.7798 220.188V220.476C97.7944 220.729 97.8678 220.975 97.9943 221.195C98.1208 221.414 98.2968 221.601 98.5083 221.741L114.115 230.756C114.34 230.871 114.588 230.932 114.841 230.932C115.093 230.932 115.342 230.871 115.566 230.756L141.406 215.818C141.618 215.68 141.794 215.495 141.921 215.276C142.047 215.057 142.121 214.812 142.135 214.56V214.272C142.121 214.018 142.048 213.772 141.922 213.552C141.795 213.332 141.618 213.146 141.406 213.007L125.806 203.985C125.58 203.87 125.331 203.809 125.077 203.809C124.824 203.809 124.574 203.87 124.349 203.985L98.5083 218.923C98.2961 219.062 98.1195 219.249 97.9929 219.468C97.8663 219.688 97.7933 219.935 97.7798 220.188Z" fill="#4F6131"/>
<path opacity="0.3" d="M141.406 212.994L125.806 203.972C125.58 203.856 125.331 203.796 125.077 203.796C124.824 203.796 124.574 203.856 124.349 203.972L114.837 209.48V230.896C115.091 230.904 115.343 230.844 115.566 230.722L141.406 215.784C141.618 215.647 141.794 215.461 141.921 215.243C142.047 215.024 142.121 214.779 142.135 214.526V214.238C142.118 213.989 142.044 213.746 141.917 213.53C141.791 213.314 141.616 213.13 141.406 212.994Z" fill="white"/>
<path opacity="0.15" d="M141.406 212.994L125.806 203.972C125.58 203.856 125.331 203.796 125.077 203.796C124.824 203.796 124.574 203.856 124.349 203.972L114.837 209.48V230.896C115.091 230.904 115.343 230.844 115.566 230.722L141.406 215.784C141.618 215.647 141.794 215.461 141.921 215.243C142.047 215.024 142.121 214.779 142.135 214.526V214.238C142.118 213.989 142.044 213.746 141.917 213.53C141.791 213.314 141.616 213.13 141.406 212.994Z" fill="black"/>
<path opacity="0.3" d="M114.837 209.48L98.5083 218.923C98.2961 219.062 98.1195 219.249 97.9929 219.468C97.8663 219.688 97.7933 219.935 97.7798 220.188V220.476C97.7944 220.729 97.8678 220.975 97.9943 221.195C98.1208 221.415 98.2968 221.601 98.5083 221.741L114.115 230.756C114.336 230.877 114.586 230.937 114.837 230.93V209.48Z" fill="white"/>
<path opacity="0.2" d="M114.837 209.48L98.5083 218.923C98.2961 219.062 98.1195 219.249 97.9929 219.468C97.8663 219.688 97.7933 219.935 97.7798 220.188V220.476C97.7944 220.729 97.8678 220.975 97.9943 221.195C98.1208 221.415 98.2968 221.601 98.5083 221.741L114.115 230.756C114.336 230.877 114.586 230.937 114.837 230.93V209.48Z" fill="black"/>
<path d="M111.622 227.329L98.5151 219.753C98.4286 219.722 98.3538 219.664 98.301 219.589C98.2481 219.514 98.2197 219.424 98.2197 219.332C98.2197 219.239 98.2481 219.149 98.301 219.074C98.3538 218.999 98.4286 218.941 98.5151 218.91L124.322 203.972C124.547 203.856 124.797 203.796 125.051 203.796C125.304 203.796 125.554 203.856 125.779 203.972L141.38 212.994C141.466 213.025 141.541 213.082 141.594 213.158C141.647 213.233 141.675 213.323 141.675 213.415C141.675 213.507 141.647 213.597 141.594 213.673C141.541 213.748 141.466 213.805 141.38 213.837L137.095 216.313L135.591 217.183L115.539 228.775C115.314 228.887 115.066 228.945 114.814 228.945C114.562 228.945 114.314 228.887 114.089 228.775L112.812 228.039L111.622 227.329Z" fill="#4F6131"/>
<path d="M111.622 227.329L98.5151 219.753C98.4286 219.722 98.3538 219.664 98.301 219.589C98.2481 219.514 98.2197 219.424 98.2197 219.332C98.2197 219.239 98.2481 219.149 98.301 219.074C98.3538 218.999 98.4286 218.941 98.5151 218.91L124.322 203.972C124.547 203.856 124.797 203.796 125.051 203.796C125.304 203.796 125.554 203.856 125.779 203.972L141.38 212.994C141.466 213.025 141.541 213.082 141.594 213.158C141.647 213.233 141.675 213.323 141.675 213.415C141.675 213.507 141.647 213.597 141.594 213.673C141.541 213.748 141.466 213.805 141.38 213.837L137.095 216.313L135.591 217.183L115.539 228.775C115.314 228.887 115.066 228.945 114.814 228.945C114.562 228.945 114.314 228.887 114.089 228.775L112.812 228.039L111.622 227.329Z" fill="#4F6131"/>
<path d="M123.513 214.74L141.406 212.994L123.653 213.997L125.792 203.959C125.547 203.833 125.272 203.775 124.997 203.791L121.655 217.344L98.2076 219.285C98.2062 219.381 98.2335 219.476 98.2858 219.557C98.3381 219.638 98.4132 219.701 98.5017 219.74L117.437 218.635L114.831 228.936L118.173 218.595L121.408 218.408C121.805 218.384 122.182 218.226 122.477 217.96C122.757 217.712 122.949 217.381 123.025 217.016L123.513 214.74Z" fill="#F3F4D3"/>
<path d="M103.809 218.85L121.648 217.357L122.317 214.794L122.671 213.368L124.99 203.805C124.757 203.805 124.528 203.862 124.322 203.972L111.402 211.441L98.4816 218.91C98.4047 218.946 98.3378 219 98.2866 219.068C98.2353 219.135 98.2013 219.214 98.1875 219.298L101.77 218.997L103.809 218.85Z" fill="#4F6131"/>
<path d="M122.123 201.837C123.039 201.372 124.051 201.13 125.077 201.13C126.104 201.13 127.116 201.372 128.032 201.837C129.663 202.774 129.663 204.306 128.032 205.25C127.116 205.715 126.104 205.958 125.077 205.958C124.051 205.958 123.039 205.715 122.123 205.25C120.492 204.306 120.492 202.787 122.123 201.837Z" fill="#F8ED41"/>
<path d="M122.985 204.126C122.941 204.124 122.899 204.107 122.865 204.079C122.851 204.072 122.839 204.06 122.833 204.045C122.827 204.03 122.826 204.014 122.831 203.999L123.072 202.921C123.074 202.89 123.074 202.859 123.072 202.827C123.09 202.785 123.124 202.752 123.166 202.734L123.76 202.386C123.801 202.363 123.847 202.352 123.894 202.352C123.941 202.352 123.987 202.363 124.028 202.386L127.189 204.213C127.206 204.219 127.22 204.23 127.229 204.244C127.239 204.259 127.244 204.276 127.243 204.293C127.242 204.309 127.237 204.325 127.227 204.338C127.218 204.351 127.205 204.361 127.189 204.367L126.521 204.742C126.477 204.753 126.431 204.753 126.387 204.742C126.346 204.752 126.302 204.752 126.26 204.742L124.195 203.457L124.055 204.046C124.051 204.063 124.043 204.078 124.031 204.091C124.019 204.104 124.004 204.114 123.988 204.119C123.942 204.132 123.893 204.132 123.847 204.119L122.985 204.126Z" fill="#26341C"/>
<path d="M152.134 208.771L134.575 198.624C134.174 198.39 134.174 198.015 134.575 197.788L198.287 160.978C198.512 160.866 198.76 160.808 199.012 160.808C199.264 160.808 199.512 160.866 199.737 160.978L217.296 171.131C217.697 171.359 217.697 171.733 217.296 171.968L153.578 208.777C153.354 208.892 153.106 208.951 152.855 208.95C152.604 208.949 152.357 208.887 152.134 208.771Z" fill="#4F6131"/>
<path d="M148.758 197.306C148.701 197.338 148.637 197.354 148.571 197.353H148.431L144.782 196.938L146.947 198.189C146.963 198.196 146.976 198.207 146.986 198.222C146.996 198.236 147.001 198.253 147.001 198.27C147.001 198.287 146.996 198.304 146.986 198.318C146.976 198.332 146.963 198.343 146.947 198.35L146.519 198.598C146.476 198.62 146.428 198.631 146.379 198.631C146.33 198.633 146.282 198.621 146.239 198.598L142.85 196.637C142.834 196.63 142.82 196.619 142.811 196.605C142.801 196.59 142.796 196.574 142.796 196.556C142.796 196.539 142.801 196.522 142.811 196.508C142.82 196.494 142.834 196.483 142.85 196.476L143.211 196.262C143.268 196.229 143.332 196.211 143.398 196.208H143.538L147.188 196.623L145.042 195.379C145.026 195.372 145.011 195.361 145 195.347C144.99 195.333 144.983 195.316 144.982 195.298C144.982 195.265 144.982 195.238 145.042 195.211L145.47 194.97C145.512 194.944 145.561 194.932 145.61 194.937C145.659 194.933 145.708 194.945 145.751 194.97L149.139 196.925C149.18 196.925 149.2 196.978 149.2 197.012C149.198 197.029 149.191 197.046 149.18 197.06C149.17 197.074 149.156 197.085 149.139 197.092L148.758 197.306Z" fill="#FAFAFA"/>
<path d="M148.538 195.854C148.365 195.758 148.209 195.633 148.077 195.486C147.973 195.37 147.905 195.225 147.883 195.071C147.865 194.927 147.9 194.781 147.983 194.662C148.094 194.509 148.238 194.383 148.405 194.294C148.614 194.179 148.839 194.096 149.073 194.047C149.292 193.997 149.517 193.974 149.741 193.98C149.967 193.985 150.191 194.016 150.41 194.073C150.622 194.128 150.826 194.209 151.018 194.314L151.252 194.455C151.268 194.462 151.281 194.473 151.291 194.487C151.3 194.501 151.305 194.518 151.305 194.535C151.305 194.552 151.3 194.569 151.291 194.584C151.281 194.598 151.268 194.609 151.252 194.616L149.501 195.626C149.582 195.673 149.67 195.707 149.761 195.727C149.857 195.74 149.953 195.74 150.049 195.727C150.148 195.718 150.247 195.701 150.343 195.673C150.431 195.643 150.516 195.605 150.597 195.559C150.685 195.513 150.766 195.455 150.838 195.385C150.878 195.341 150.907 195.288 150.924 195.231C150.929 195.2 150.94 195.17 150.958 195.144C150.982 195.116 151.011 195.093 151.045 195.077L151.466 194.836C151.508 194.81 151.557 194.798 151.606 194.803C151.631 194.799 151.656 194.8 151.68 194.806C151.704 194.811 151.727 194.822 151.747 194.836C151.799 194.874 151.837 194.928 151.853 194.99C151.88 195.075 151.88 195.166 151.853 195.251C151.812 195.371 151.748 195.482 151.666 195.579C151.54 195.717 151.39 195.833 151.225 195.921C151.018 196.041 150.792 196.125 150.557 196.168C150.338 196.221 150.113 196.244 149.888 196.235C149.649 196.23 149.411 196.194 149.18 196.128C148.956 196.063 148.74 195.971 148.538 195.854ZM149.04 194.656C148.957 194.701 148.882 194.759 148.819 194.83C148.782 194.881 148.761 194.941 148.759 195.004C148.755 195.058 148.769 195.112 148.799 195.158C148.83 195.206 148.868 195.249 148.913 195.285L150.102 194.616L149.895 194.549C149.816 194.521 149.732 194.508 149.648 194.508C149.55 194.499 149.451 194.499 149.354 194.508C149.247 194.542 149.145 194.592 149.053 194.656H149.04Z" fill="#FAFAFA"/>
<path d="M154.534 192.695L153.504 191.55L153.464 191.477C153.464 191.477 153.464 191.423 153.524 191.396L153.925 191.162C153.969 191.14 154.017 191.129 154.066 191.129C154.115 191.127 154.163 191.139 154.206 191.162L155.83 193.016C155.851 193.04 155.867 193.067 155.877 193.096C155.877 193.096 155.877 193.15 155.81 193.183L155.409 193.411C155.367 193.437 155.318 193.449 155.269 193.444H155.128L153.223 192.929L154.112 194.033C154.128 194.059 154.142 194.086 154.153 194.114C154.153 194.114 154.153 194.167 154.092 194.194L153.691 194.428C153.647 194.455 153.596 194.467 153.544 194.462H153.411L150.196 193.525H150.156C150.14 193.518 150.126 193.507 150.117 193.493C150.107 193.478 150.102 193.462 150.102 193.444C150.102 193.427 150.107 193.41 150.117 193.396C150.126 193.382 150.14 193.371 150.156 193.364L150.557 193.13C150.598 193.103 150.648 193.091 150.697 193.096H150.831L152.802 193.685L151.806 192.527C151.801 192.516 151.798 192.503 151.798 192.491C151.798 192.478 151.801 192.465 151.806 192.454C151.806 192.42 151.806 192.394 151.86 192.374L152.254 192.139C152.295 192.108 152.344 192.087 152.395 192.079H152.528L154.534 192.695Z" fill="#FAFAFA"/>
<path d="M156.907 191.015C156.729 190.923 156.57 190.798 156.439 190.647C156.334 190.533 156.267 190.391 156.245 190.239C156.231 190.094 156.269 189.95 156.352 189.83C156.46 189.673 156.604 189.544 156.773 189.456C156.981 189.338 157.207 189.254 157.441 189.208C157.661 189.161 157.885 189.138 158.11 189.141C158.335 189.15 158.559 189.181 158.778 189.235C158.99 189.287 159.192 189.371 159.38 189.482L159.62 189.616C159.637 189.622 159.651 189.633 159.66 189.647C159.67 189.662 159.675 189.679 159.674 189.696C159.673 189.714 159.668 189.732 159.659 189.747C159.649 189.763 159.636 189.775 159.62 189.783L157.869 190.794C157.949 190.842 158.038 190.874 158.13 190.888C158.225 190.898 158.322 190.898 158.417 190.888C158.515 190.881 158.612 190.861 158.705 190.828C158.796 190.801 158.883 190.762 158.965 190.714C159.052 190.669 159.131 190.61 159.199 190.54C159.241 190.497 159.271 190.444 159.286 190.386C159.297 190.356 159.31 190.327 159.326 190.299C159.349 190.272 159.376 190.249 159.406 190.232L159.827 189.991C159.876 189.98 159.926 189.98 159.975 189.991C160.021 189.98 160.069 189.98 160.115 189.991C160.164 190.031 160.201 190.085 160.222 190.145C160.245 190.233 160.245 190.325 160.222 190.413C160.185 190.533 160.121 190.643 160.035 190.734C159.913 190.876 159.765 190.994 159.6 191.082C159.402 191.196 159.188 191.279 158.965 191.329C158.746 191.38 158.522 191.402 158.297 191.396C158.057 191.389 157.819 191.35 157.588 191.283C157.35 191.226 157.12 191.136 156.907 191.015ZM157.401 189.817C157.318 189.861 157.245 189.923 157.187 189.998C157.148 190.045 157.125 190.104 157.12 190.165C157.119 190.222 157.136 190.278 157.167 190.326C157.198 190.372 157.236 190.413 157.281 190.446L158.464 189.777C158.4 189.746 158.332 189.721 158.263 189.703C158.181 189.681 158.095 189.67 158.009 189.67C157.914 189.657 157.817 189.657 157.722 189.67C157.61 189.706 157.502 189.756 157.401 189.817Z" fill="#FAFAFA"/>
<path d="M159.633 188.171C159.616 188.061 159.64 187.949 159.7 187.856C159.777 187.748 159.878 187.658 159.994 187.595C160.2 187.473 160.427 187.391 160.663 187.354C160.884 187.323 161.109 187.323 161.331 187.354C161.311 187.286 161.311 187.214 161.331 187.147C161.341 187.076 161.364 187.008 161.398 186.946C161.439 186.877 161.488 186.814 161.545 186.758C161.61 186.702 161.679 186.65 161.752 186.604C161.939 186.497 162.142 186.42 162.354 186.377C162.547 186.339 162.745 186.328 162.942 186.343C163.134 186.362 163.322 186.405 163.503 186.471C163.684 186.535 163.859 186.615 164.025 186.712L165.435 187.528C165.456 187.528 165.477 187.537 165.492 187.552C165.507 187.567 165.515 187.587 165.515 187.608C165.515 187.63 165.507 187.65 165.492 187.665C165.477 187.68 165.456 187.689 165.435 187.689L165.034 187.923C164.991 187.946 164.943 187.958 164.894 187.956C164.845 187.957 164.797 187.945 164.753 187.923L163.37 187.12C163.169 186.992 162.939 186.921 162.701 186.912C162.518 186.911 162.338 186.96 162.18 187.053C162.121 187.077 162.069 187.117 162.029 187.167C161.989 187.217 161.963 187.277 161.953 187.341C161.953 187.448 162.053 187.568 162.274 187.709L163.684 188.525C163.7 188.532 163.713 188.543 163.723 188.557C163.732 188.572 163.737 188.588 163.737 188.606C163.737 188.623 163.732 188.64 163.723 188.654C163.713 188.668 163.7 188.679 163.684 188.686L163.283 188.92C163.238 188.939 163.191 188.95 163.143 188.954C163.093 188.951 163.045 188.938 163.002 188.913L161.619 188.117C161.428 187.995 161.209 187.924 160.984 187.91C160.799 187.904 160.616 187.95 160.456 188.043C160.397 188.071 160.346 188.114 160.307 188.166C160.269 188.219 160.244 188.28 160.235 188.345C160.235 188.458 160.342 188.579 160.576 188.719L161.959 189.516C162 189.516 162.02 189.569 162.02 189.603C162.02 189.636 162.02 189.656 161.959 189.683L161.565 189.911C161.522 189.933 161.473 189.944 161.425 189.944C161.373 189.948 161.322 189.936 161.278 189.911L158.838 188.499C158.817 188.499 158.796 188.49 158.781 188.475C158.766 188.46 158.758 188.439 158.758 188.418C158.758 188.397 158.766 188.376 158.781 188.361C158.796 188.346 158.817 188.338 158.838 188.338L159.232 188.104C159.276 188.081 159.324 188.07 159.373 188.07C159.424 188.069 159.474 188.081 159.52 188.104L159.633 188.171Z" fill="#FAFAFA"/>
<path d="M164.179 186.009C164.118 185.959 164.07 185.894 164.038 185.821C164.011 185.737 164.011 185.645 164.038 185.56C164.065 185.448 164.12 185.344 164.199 185.259C164.312 185.13 164.448 185.024 164.6 184.945C164.772 184.843 164.956 184.762 165.148 184.704C165.337 184.65 165.533 184.618 165.729 184.61C165.925 184.604 166.121 184.624 166.311 184.67C166.506 184.719 166.693 184.796 166.866 184.898L168.41 185.788C168.45 185.788 168.47 185.842 168.47 185.875C168.47 185.908 168.47 185.929 168.41 185.955L168.015 186.183C167.971 186.209 167.92 186.22 167.868 186.216C167.819 186.22 167.77 186.208 167.728 186.183L167.554 186.082C167.569 186.139 167.572 186.198 167.563 186.255C167.554 186.313 167.533 186.368 167.501 186.417C167.395 186.575 167.25 186.702 167.08 186.785C166.932 186.87 166.775 186.937 166.612 186.986C166.459 187.027 166.302 187.051 166.144 187.06C165.995 187.061 165.847 187.046 165.703 187.013C165.565 186.984 165.432 186.935 165.308 186.865C165.068 186.725 164.961 186.564 164.994 186.39C165.066 186.162 165.212 185.964 165.409 185.828L166.117 185.253C165.984 185.17 165.825 185.136 165.669 185.159C165.514 185.178 165.364 185.228 165.228 185.306C165.162 185.339 165.105 185.387 165.061 185.447C165.035 185.489 165.019 185.537 165.014 185.587C165.025 185.613 165.025 185.642 165.014 185.668C164.999 185.694 164.975 185.715 164.947 185.728L164.46 186.009C164.423 186.029 164.381 186.041 164.339 186.042C164.313 186.055 164.282 186.059 164.253 186.053C164.224 186.047 164.198 186.031 164.179 186.009ZM166.532 186.364C166.633 186.309 166.724 186.237 166.799 186.149C166.852 186.089 166.887 186.015 166.899 185.935C166.905 185.902 166.904 185.869 166.896 185.836C166.888 185.804 166.873 185.774 166.852 185.748C166.812 185.682 166.754 185.629 166.685 185.594L166.632 185.56L166.05 186.049C165.96 186.108 165.888 186.191 165.843 186.29C165.843 186.35 165.843 186.41 165.943 186.457C166.032 186.489 166.129 186.489 166.217 186.457C166.325 186.439 166.431 186.407 166.532 186.364Z" fill="#FAFAFA"/>
<path d="M166.07 182.99C166.115 182.965 166.166 182.953 166.217 182.957C166.266 182.953 166.315 182.965 166.357 182.99L166.765 183.225C166.781 183.231 166.795 183.242 166.804 183.257C166.814 183.271 166.819 183.288 166.819 183.305C166.819 183.322 166.814 183.339 166.804 183.353C166.795 183.368 166.781 183.379 166.765 183.385L166.317 183.646C166.273 183.672 166.222 183.684 166.17 183.68C166.121 183.683 166.072 183.672 166.03 183.646L165.622 183.412C165.601 183.412 165.581 183.404 165.565 183.389C165.55 183.373 165.542 183.353 165.542 183.332C165.542 183.31 165.55 183.29 165.565 183.275C165.581 183.26 165.601 183.251 165.622 183.251L166.07 182.99ZM169.773 184.998C169.788 185.006 169.801 185.018 169.81 185.033C169.82 185.048 169.824 185.065 169.824 185.082C169.824 185.099 169.82 185.116 169.81 185.131C169.801 185.146 169.788 185.158 169.773 185.166L169.372 185.393C169.328 185.415 169.28 185.427 169.232 185.427C169.187 185.424 169.143 185.41 169.105 185.386L166.658 183.974C166.642 183.968 166.627 183.957 166.616 183.943C166.606 183.929 166.599 183.912 166.598 183.894C166.598 183.894 166.598 183.834 166.658 183.807L167.059 183.579C167.102 183.556 167.151 183.544 167.2 183.546C167.248 183.546 167.297 183.557 167.34 183.579L169.773 184.998Z" fill="#FAFAFA"/>
<path d="M171.177 184.182C171.193 184.188 171.208 184.199 171.218 184.213C171.229 184.227 171.235 184.244 171.237 184.262C171.235 184.28 171.228 184.296 171.217 184.31C171.207 184.324 171.193 184.335 171.177 184.342L170.775 184.577C170.732 184.598 170.684 184.61 170.635 184.61C170.586 184.61 170.538 184.598 170.495 184.577L167.052 182.569C167.037 182.562 167.023 182.551 167.014 182.537C167.004 182.522 166.999 182.506 166.999 182.488C166.999 182.471 167.004 182.455 167.014 182.44C167.023 182.426 167.037 182.415 167.052 182.408L167.454 182.181C167.497 182.159 167.545 182.147 167.594 182.147C167.643 182.147 167.691 182.159 167.734 182.181L171.177 184.182Z" fill="#FAFAFA"/>
<path d="M150.39 200.11L202.371 170.06C202.686 169.878 203.039 169.771 203.402 169.749C203.765 169.727 204.129 169.79 204.463 169.933C204.978 170.228 204.877 170.77 204.236 171.138L152.248 201.194C151.934 201.378 151.582 201.484 151.22 201.506C150.858 201.529 150.496 201.465 150.162 201.322C149.628 201.041 149.721 200.498 150.39 200.11Z" fill="#FAFAFA"/>
<path d="M154.019 202.245L206 172.189C206.315 172.006 206.668 171.899 207.031 171.877C207.394 171.855 207.758 171.918 208.092 172.061C208.607 172.356 208.507 172.898 207.865 173.273L155.877 203.323C155.564 203.507 155.212 203.615 154.85 203.637C154.487 203.659 154.124 203.595 153.792 203.45C153.277 203.155 153.377 202.613 154.019 202.245Z" fill="#FAFAFA"/>
<path d="M76.8325 221.748L49.6821 206.053L171.31 135.74L199.016 151.113L76.8325 221.748Z" fill="#E0E0E0"/>
<path d="M69.5132 123.894L185.146 57.0214L189.778 59.6984C190.411 60.1126 190.938 60.67 191.317 61.3257C191.695 61.9814 191.915 62.7169 191.957 63.4731V148.911C191.914 149.667 191.694 150.403 191.315 151.058C190.937 151.714 190.411 152.271 189.778 152.686L78.4697 217.036C77.7957 217.379 77.0503 217.558 76.2941 217.558C75.5379 217.558 74.7925 217.379 74.1185 217.036L71.6655 215.624C71.0342 215.208 70.509 214.65 70.1318 213.995C69.7545 213.339 69.5358 212.604 69.4932 211.849L69.5132 123.894Z" fill="#F8ED41"/>
<path opacity="0.2" d="M69.5132 123.894L185.146 57.0214L189.778 59.6984C190.411 60.1126 190.938 60.67 191.317 61.3257C191.695 61.9814 191.915 62.7169 191.957 63.4731V148.911C191.914 149.667 191.694 150.403 191.315 151.058C190.937 151.714 190.411 152.271 189.778 152.686L78.4697 217.036C77.7957 217.379 77.0503 217.558 76.2941 217.558C75.5379 217.558 74.7925 217.379 74.1185 217.036L71.6655 215.624C71.0342 215.208 70.509 214.65 70.1318 213.995C69.7545 213.339 69.5358 212.604 69.4932 211.849L69.5132 123.894Z" fill="black"/>
<path d="M184.524 49.5256L184.999 49.2646L183.201 48.1871C183.047 48.0978 182.886 48.0217 182.72 47.9595L131.815 29.0929C131.115 28.8634 130.361 28.8601 129.659 29.0835C128.957 29.3069 128.343 29.7457 127.904 30.3378L70.9636 113.608C70.0737 115.039 69.5672 116.675 69.4932 118.36V123.894L71.2577 124.918L185.146 57.0214V51.4932C185.129 50.7917 184.913 50.1095 184.524 49.5256Z" fill="#F8ED41"/>
<path opacity="0.15" d="M130.264 30.7394C130.037 30.917 129.838 31.1293 129.676 31.3685L72.7219 114.632C72.2551 115.37 71.8993 116.173 71.6658 117.014L69.8945 115.99C70.0251 115.561 70.179 115.138 70.3557 114.725C70.4293 114.551 70.5095 114.391 70.5964 114.223C70.5964 114.223 70.5964 114.17 70.6431 114.143C70.7311 113.969 70.8316 113.801 70.9439 113.641L127.905 30.3445C127.99 30.2197 128.086 30.1032 128.192 29.9965C128.287 29.8976 128.388 29.8038 128.493 29.7154L130.264 30.7394Z" fill="black"/>
<path opacity="0.15" d="M184.979 49.2446C184.824 49.1517 184.66 49.0733 184.491 49.0103L133.579 30.117C133.015 29.9274 132.412 29.8851 131.827 29.994C131.243 30.1029 130.695 30.3595 130.237 30.7394L128.466 29.7154C128.925 29.3383 129.473 29.0836 130.057 28.9747C130.641 28.8659 131.243 28.9066 131.808 29.093L182.713 47.9796C182.88 48.0427 183.041 48.1211 183.194 48.2139L184.979 49.2446Z" fill="black"/>
<g opacity="0.1">
<path opacity="0.1" d="M70.6562 114.11C70.7503 113.937 70.8529 113.77 70.9637 113.608C70.8529 113.77 70.7503 113.937 70.6562 114.11Z" fill="black"/>
<path opacity="0.1" d="M128.192 29.9965C128.288 29.8959 128.391 29.802 128.499 29.7154C128.391 29.802 128.288 29.8959 128.192 29.9965Z" fill="black"/>
<path opacity="0.1" d="M69.8945 115.99C70.0221 115.56 70.1761 115.137 70.3557 114.725C70.179 115.138 70.0251 115.561 69.8945 115.99Z" fill="black"/>
<path opacity="0.1" d="M70.3691 114.692C70.4493 114.518 70.5296 114.351 70.6164 114.19C70.5296 114.351 70.4493 114.518 70.3691 114.692Z" fill="black"/>
<path opacity="0.2" d="M70.6162 114.19L70.6563 114.11L70.6162 114.19Z" fill="black"/>
<path opacity="0.2" d="M127.905 30.3378C127.993 30.218 128.089 30.104 128.192 29.9965C128.087 30.1023 127.991 30.2165 127.905 30.3378Z" fill="black"/>
</g>
<path d="M129.669 31.3618L72.7283 114.632C71.8391 116.066 71.3328 117.704 71.2578 119.39V124.918L186.931 58.0454V52.5172C186.894 51.7605 186.644 51.0296 186.21 50.4091C185.776 49.7885 185.175 49.3036 184.478 49.0103L133.579 30.1169C132.879 29.8894 132.126 29.8872 131.424 30.1104C130.723 30.3337 130.109 30.7713 129.669 31.3618Z" fill="#F8ED41"/>
<path d="M186.931 52.5172C186.91 51.8226 186.694 51.148 186.309 50.5696L71.6658 117.014C71.429 117.78 71.2964 118.575 71.2715 119.377V124.905L186.931 58.0453V52.5172Z" fill="#F8ED41"/>
<path d="M181.984 29.0461C182.007 28.8145 181.969 28.5809 181.874 28.3685C181.779 28.1561 181.631 27.9721 181.443 27.8347L177.914 25.7935C177.699 25.6957 177.462 25.6565 177.228 25.68C176.993 25.7036 176.768 25.7889 176.577 25.9273L81.7114 80.7736C81.1638 81.1284 80.708 81.6082 80.3815 82.1736C80.055 82.7391 79.8671 83.374 79.8332 84.0262V197.801C79.81 198.035 79.8485 198.27 79.9447 198.484C80.0408 198.697 80.1914 198.882 80.3813 199.019L83.9038 201.027C84.118 201.126 84.3545 201.166 84.5893 201.144C84.8241 201.121 85.0488 201.037 85.2406 200.9L180.153 146.02C180.698 145.662 181.152 145.18 181.477 144.614C181.802 144.048 181.99 143.413 182.025 142.761L181.984 29.0461Z" fill="#DCDDA1"/>
<path d="M181.984 29.0461C182.007 28.8145 181.969 28.5809 181.874 28.3685C181.779 28.1561 181.631 27.9721 181.443 27.8347L177.914 25.7935C177.699 25.6957 177.462 25.6565 177.228 25.68C176.993 25.7036 176.768 25.7889 176.577 25.9273L81.7114 80.7736C81.1638 81.1284 80.708 81.6082 80.3815 82.1736C80.055 82.7391 79.8671 83.374 79.8332 84.0262V197.801C79.81 198.035 79.8485 198.27 79.9447 198.484C80.0408 198.697 80.1914 198.882 80.3813 199.019L83.9038 201.027C84.118 201.126 84.3545 201.166 84.5893 201.144C84.8241 201.121 85.0488 201.037 85.2406 200.9L180.153 146.02C180.698 145.662 181.152 145.18 181.477 144.614C181.802 144.048 181.99 143.413 182.025 142.761L181.984 29.0461Z" fill="#F3F4D3"/>
<path d="M85.2339 200.927L180.146 146.047C180.692 145.689 181.145 145.207 181.471 144.641C181.796 144.075 181.983 143.44 182.018 142.788V29.0461C182.018 27.8481 181.182 27.3662 180.14 27.9619L85.2673 82.8416C84.721 83.1995 84.2664 83.6809 83.9401 84.2471C83.6139 84.8132 83.4251 85.4483 83.3891 86.1009V199.876C83.3557 201.041 84.2179 201.522 85.2339 200.927Z" fill="#DCDDA1"/>
<path d="M85.2339 200.927L180.146 146.047C180.692 145.689 181.145 145.207 181.471 144.641C181.796 144.075 181.983 143.44 182.018 142.788V29.0461C182.018 27.8481 181.182 27.3662 180.14 27.9619L85.2673 82.8416C84.721 83.1995 84.2664 83.6809 83.9401 84.2471C83.6139 84.8132 83.4251 85.4483 83.3891 86.1009V199.876C83.3557 201.041 84.2179 201.522 85.2339 200.927Z" fill="#DCDDA1"/>
<path d="M83.349 199.836C83.3332 200.048 83.3646 200.262 83.4408 200.461C83.5171 200.66 83.6364 200.84 83.7901 200.987L80.388 199.019C80.1979 198.884 80.0466 198.7 79.9493 198.488C79.852 198.275 79.8119 198.041 79.8332 197.808V84.033C79.8534 83.3792 80.0447 82.7422 80.388 82.1858L83.9037 84.1936C83.5605 84.755 83.3693 85.3962 83.349 86.0541V199.836Z" fill="#F3F4D3"/>
<path d="M83.349 199.836C83.3332 200.048 83.3646 200.262 83.4408 200.461C83.5171 200.66 83.6364 200.84 83.7901 200.987L80.388 199.019C80.1979 198.884 80.0466 198.7 79.9493 198.488C79.852 198.275 79.8119 198.041 79.8332 197.808V84.033C79.8534 83.3792 80.0447 82.7422 80.388 82.1858L83.9037 84.1936C83.5605 84.755 83.3693 85.3962 83.349 86.0541V199.836Z" fill="#F3F4D3"/>
<path opacity="0.05" d="M83.349 199.836C83.3332 200.048 83.3646 200.262 83.4408 200.461C83.5171 200.66 83.6364 200.84 83.7901 200.987L80.388 199.019C80.1979 198.884 80.0466 198.7 79.9493 198.488C79.852 198.275 79.8119 198.041 79.8332 197.808V84.033C79.8534 83.3792 80.0447 82.7422 80.388 82.1858L83.9037 84.1936C83.5605 84.755 83.3693 85.3962 83.349 86.0541V199.836Z" fill="black"/>
<path d="M117.978 113.849C117.557 124.436 118.273 147.118 118.273 147.118C118.273 147.118 129.475 150.504 137.095 149.239C144.714 147.974 161.003 136.423 161.003 136.423L158.283 111.874L117.978 113.849Z" fill="#37474F"/>
<path d="M143.993 146.73L145.811 129.443C152.949 125.179 155.275 119.276 155.275 119.276C148.778 127.796 141.994 126.417 141.994 126.417V147.647C142.649 147.365 143.311 147.058 143.993 146.73Z" fill="#263238"/>
<path d="M162.761 81.9582C164.573 72.7491 165.395 60.5417 157.414 58.2595C155.329 57.6772 150.022 58.0788 150.022 58.0788L141.393 58.5138C136.587 59.1229 129.843 60.0799 128.078 60.5216C123.446 61.6661 122.063 69.2221 119.991 86.0474C118.654 96.5682 117.578 104.787 117.578 115.02C126.06 122.636 152.555 119.638 158.584 114.685C158.818 103.067 159.446 98.7701 162.761 81.9582Z" fill="#455A64"/>
<path d="M139.909 55.375C139.822 57.0548 141.76 59.8925 144.715 61.8869C147.669 63.8813 150.222 64.6845 150.55 65.521C149.146 65.7821 147.876 66.4781 146.833 68.8674C145.831 71.1696 145.844 71.2433 142.429 68.8674C139.013 66.4915 135.959 61.0303 135.965 59.2099C135.972 57.3895 138.639 53.8558 139.976 54.1703L139.909 55.375Z" fill="#37474F"/>
<path d="M150.55 65.521C151.546 64.4234 152.495 61.6727 152.615 60.4881C152.735 59.3035 153.056 56.1714 153.056 56.1714C153.521 56.2991 153.934 56.568 154.239 56.941C154.607 57.4965 156.425 61.2578 156.365 63.3593C156.305 65.4608 155.81 68.2985 155.102 69.4965C154.393 70.6944 153.919 68.5796 153.457 67.7631C152.856 66.6989 152.027 65.5478 150.55 65.521Z" fill="#37474F"/>
<path d="M149.2 67.9304C149.2 67.9304 149.36 75.5132 148.665 79.5489C150.161 79.7849 151.688 79.7441 153.17 79.4284C153.17 79.4284 152.014 80.8539 147.783 80.198C147.783 80.198 149.053 72.2806 149.2 67.9304Z" fill="#37474F"/>
<path d="M167.132 32.9011C167.052 29.841 165.811 26.9264 163.662 24.7495C161.512 22.5725 158.616 21.2965 155.561 21.1806C152.506 21.0647 149.522 22.1177 147.214 24.1256C144.906 26.1335 143.449 28.9457 143.137 31.9909L137.69 28.1091C137.044 28.0424 136.392 28.124 135.783 28.3478C135.173 28.5717 134.623 28.9318 134.174 29.4008C132.683 30.9803 133.599 35.8324 135.564 40.5641C135.564 40.5641 137.536 49.211 138.291 50.6031C138.8 51.474 139.623 52.1161 140.59 52.3968L140.363 47.1564L162.206 45.5836L160.047 44.0443C162.184 43.0798 163.993 41.5114 165.251 39.5318C166.51 37.5522 167.164 35.2476 167.132 32.9011Z" fill="#263238"/>
<path d="M140.069 40.8921C139.401 41.3204 138.732 39.8614 137.496 39.1118C136.426 38.4426 134.027 37.3517 132.443 40.0086C130.738 42.8664 133.833 46.8151 135.999 47.6316C139.207 48.8363 140.357 46.293 140.357 46.293L139.688 59.6783C144.053 67.6426 157.02 67.134 152.608 60.4614L153.143 55.2947C153.143 55.2947 156.592 55.7698 158.27 55.4821C161.064 55.0136 162.788 52.805 163.617 49.7331C164.907 44.8407 165.368 40.8988 164.065 31.3417C162.648 20.861 150.449 20.9346 143.926 25.1777C137.402 29.4209 140.069 40.8921 140.069 40.8921Z" fill="#FFA8A7"/>
<path d="M166.718 21.5838C165.8 21.14 164.759 21.0197 163.764 21.2425C163.831 20.495 163.661 19.7453 163.279 19.1C162.896 18.4547 162.319 17.9468 161.632 17.6485C160.902 17.2957 160.085 17.1647 159.282 17.2718C158.479 17.3788 157.725 17.7192 157.113 18.2509C157.407 17.1867 156.445 16.1025 155.362 15.8683C154.262 15.7307 153.145 15.9143 152.147 16.397C150.61 16.986 149.099 17.6418 147.542 18.1639C144.801 19.0807 141.88 19.6028 139.394 21.0952C138.792 21.4313 138.264 21.8867 137.843 22.4338C137.326 23.2427 137.091 24.2007 137.175 25.1577C137.192 25.4733 137.237 25.7868 137.309 26.0946C137.117 25.8875 136.891 25.7154 136.64 25.586C136.361 25.4418 136.055 25.3559 135.742 25.3336C135.428 25.3113 135.113 25.3531 134.816 25.4564C134.519 25.5596 134.246 25.7223 134.014 25.9344C133.782 26.1465 133.595 26.4037 133.465 26.6903L137.603 28.8319C137.496 29.6685 137.396 30.4984 137.309 31.335C137.088 33.5436 136.64 36.1202 137.162 38.3154C137.189 38.5792 137.281 38.8321 137.429 39.0516C138.224 39.6647 138.947 40.3677 139.581 41.1464C139.902 41.5346 140.283 42.1637 140.804 42.3176C141.083 42.3892 141.378 42.3616 141.639 42.2395C141.9 42.1175 142.111 41.9085 142.235 41.6484C142.317 41.3293 142.333 40.9967 142.282 40.6712L141.88 36.5887C141.813 36.23 141.834 35.8602 141.941 35.5112C142.185 35.0816 142.529 34.7168 142.943 34.4471C143.417 34.0385 143.804 33.539 144.082 32.9781C144.36 32.4171 144.523 31.8061 144.561 31.1811C144.554 30.7876 144.593 30.3947 144.674 30.0098C144.761 29.7221 144.989 29.2737 145.343 29.2737C146.011 29.2737 149.44 30.0232 150.309 30.1437C154.841 30.7661 159.707 30.8866 163.677 28.6579C165.234 27.7946 167.861 25.9809 168.128 24.0668C168.166 23.5595 168.052 23.0525 167.801 22.6104C167.55 22.1682 167.173 21.8108 166.718 21.5838Z" fill="#263238"/>
<path d="M153.15 55.3215C153.15 55.3215 146.887 54.1569 144.681 53.0259C143.39 52.3734 142.323 51.3475 141.62 50.0811C141.972 51.3543 142.574 52.5444 143.391 53.5814C145.016 55.5892 152.976 56.9879 152.976 56.9879L153.15 55.3215Z" fill="#F28F8F"/>
<path d="M152.882 39.7677C152.877 39.9989 152.804 40.2234 152.672 40.4133C152.54 40.6032 152.355 40.75 152.141 40.8354C151.926 40.9209 151.691 40.9412 151.465 40.8938C151.239 40.8465 151.032 40.7335 150.87 40.5691C150.707 40.4047 150.597 40.1961 150.552 39.9692C150.507 39.7423 150.53 39.5073 150.618 39.2934C150.706 39.0795 150.854 38.8962 151.045 38.7663C151.237 38.6364 151.462 38.5657 151.692 38.563C151.85 38.5639 152.005 38.5958 152.15 38.6568C152.295 38.7178 152.426 38.8068 152.537 38.9187C152.647 39.0305 152.734 39.1631 152.794 39.3088C152.853 39.4545 152.883 39.6104 152.882 39.7677Z" fill="#263238"/>
<path d="M150.596 35.3908L147.849 36.7293C147.679 36.3515 147.66 35.9224 147.797 35.5311C147.934 35.1398 148.216 34.8163 148.585 34.6278C148.766 34.5413 148.963 34.4925 149.164 34.4842C149.365 34.476 149.565 34.5085 149.753 34.5797C149.941 34.651 150.112 34.7596 150.257 34.899C150.402 35.0383 150.518 35.2056 150.596 35.3908Z" fill="#263238"/>
<path d="M150.63 47.1029L155.603 48.8898C155.5 49.2245 155.331 49.535 155.106 49.8027C154.881 50.0705 154.604 50.2899 154.292 50.448C153.98 50.6061 153.639 50.6995 153.29 50.7227C152.941 50.7459 152.591 50.6984 152.261 50.5831C151.593 50.3255 151.051 49.8197 150.747 49.1712C150.443 48.5226 150.401 47.7816 150.63 47.1029Z" fill="#B16668"/>
<path d="M153.771 50.6433C153.678 49.9651 153.321 49.3515 152.778 48.9364C152.234 48.5213 151.548 48.3385 150.871 48.428C150.762 48.4454 150.655 48.47 150.55 48.5016C150.63 48.9684 150.831 49.406 151.132 49.7711C151.434 50.1362 151.825 50.4161 152.268 50.583C152.751 50.7561 153.276 50.7771 153.771 50.6433Z" fill="#F28F8F"/>
<path d="M163.637 36.301L160.963 34.9089C161.05 34.7322 161.172 34.5751 161.321 34.4472C161.47 34.3192 161.644 34.2232 161.832 34.1649C162.02 34.1066 162.217 34.0874 162.413 34.1083C162.608 34.1292 162.797 34.1898 162.969 34.2865C163.319 34.4697 163.585 34.7823 163.71 35.1583C163.835 35.5342 163.809 35.944 163.637 36.301Z" fill="#263238"/>
<path d="M162.287 39.5736C162.28 39.8039 162.206 40.0272 162.074 40.2158C161.942 40.4045 161.758 40.5502 161.544 40.635C161.33 40.7198 161.096 40.74 160.871 40.693C160.646 40.6459 160.439 40.5338 160.277 40.3704C160.115 40.2071 160.004 39.9997 159.958 39.7739C159.912 39.5482 159.934 39.3139 160.02 39.1002C160.105 38.8865 160.252 38.7027 160.441 38.5715C160.63 38.4403 160.854 38.3676 161.084 38.3623C161.243 38.3614 161.4 38.3921 161.547 38.4528C161.694 38.5134 161.827 38.6027 161.939 38.7155C162.051 38.8282 162.139 38.9622 162.199 39.1095C162.259 39.2568 162.289 39.4146 162.287 39.5736Z" fill="#263238"/>
<path d="M156.305 38.8375L156.539 46.4403L161.01 45.3963L156.305 38.8375Z" fill="#F28F8F"/>
<path d="M189.029 150.049C188.996 150.112 188.956 150.17 188.909 150.223L140.711 134.917C138.879 134.106 136.816 133.984 134.901 134.575C132.987 135.165 131.349 136.427 130.29 138.13L78.7636 214.834L76.8653 215.918C76.6522 216.067 76.4053 216.159 76.1472 216.187C75.8891 216.215 75.6281 216.178 75.3882 216.079L128.332 137.045C129.393 135.343 131.031 134.081 132.946 133.49C134.861 132.899 136.925 133.018 138.759 133.826L189.029 150.049Z" fill="#F8ED41"/>
<path d="M125.545 145.659L125.665 145.552L78.7571 214.834L76.8655 215.925C76.6532 216.072 76.4079 216.165 76.1513 216.194C75.8947 216.223 75.6349 216.188 75.395 216.092L123.693 144.561L125.545 145.659Z" fill="#F8ED41"/>
<path d="M189.036 150.049C189.005 150.113 188.964 150.171 188.916 150.223L140.704 134.917C138.874 134.104 136.811 133.981 134.897 134.571C132.983 135.162 131.347 136.426 130.291 138.13L128.386 137.019C129.451 135.329 131.088 134.08 132.998 133.498C134.907 132.917 136.962 133.043 138.786 133.853L189.036 150.049Z" fill="#EAD93F"/>
<path d="M191.924 62.9109C191.823 62.2885 191.489 62.1145 191.068 62.409C190.852 62.5686 190.665 62.7632 190.513 62.9845L190.266 63.3192L142.703 135.734L135.598 145.639C135.143 146.219 134.538 146.663 133.848 146.921C133.158 147.18 132.411 147.243 131.688 147.104L125.558 145.645L78.7705 128.392C78.4595 128.318 78.1368 128.306 77.8214 128.358C77.6971 128.382 77.5759 128.42 77.4604 128.472L79.225 127.455L124.101 143.919L130.01 146.027C130.733 146.166 131.481 146.102 132.17 145.844C132.86 145.585 133.465 145.142 133.92 144.561L141.018 134.663L188.822 61.9137C188.968 61.7146 189.152 61.5463 189.364 61.4185L185.226 59.0292L186.957 58.032L189.825 59.6985C190.372 60.066 190.839 60.5397 191.2 61.0915C191.56 61.6434 191.806 62.2621 191.924 62.9109Z" fill="#F8ED41"/>
<path d="M142.689 135.74L135.591 145.645C135.133 146.222 134.528 146.664 133.839 146.923C133.151 147.183 132.405 147.25 131.681 147.118L125.545 145.659L125.665 145.552L125.966 145.083L129.976 146.04C130.7 146.179 131.447 146.116 132.137 145.857C132.827 145.599 133.432 145.155 133.887 144.575L140.925 134.777L142.689 135.74Z" fill="#F8ED41"/>
<path d="M189.825 59.6917L186.964 58.0453L185.226 59.0426L189.364 61.4318C189.153 61.5605 188.969 61.7287 188.822 61.9271L140.992 134.67L140.925 134.77L142.689 135.734L190.259 63.3325L190.5 62.9912C190.655 62.7726 190.842 62.5786 191.055 62.4156C191.482 62.1212 191.81 62.2952 191.917 62.9243C191.801 62.273 191.556 61.6515 191.197 61.0963C190.838 60.5412 190.371 60.0636 189.825 59.6917Z" fill="#E8D83F"/>
<path d="M79.6996 129.797L69.5132 123.894V211.849C69.5559 212.604 69.7746 213.339 70.1518 213.995C70.529 214.65 71.0542 215.208 71.6855 215.624L74.1385 217.036C74.8125 217.379 75.558 217.558 76.3141 217.558C77.0703 217.558 77.8158 217.379 78.4898 217.036L79.7196 216.333L79.6996 129.797Z" fill="#F8ED41"/>
<path opacity="0.15" d="M79.6996 129.797L69.5132 123.894V211.849C69.5559 212.604 69.7746 213.339 70.1518 213.995C70.529 214.65 71.0542 215.208 71.6855 215.624L74.1385 217.036C74.8125 217.379 75.558 217.558 76.3141 217.558C77.0703 217.558 77.8158 217.379 78.4898 217.036L79.7196 216.333L79.6996 129.797Z" fill="black"/>
<path d="M191.971 63.4731V148.911C191.945 149.691 191.714 150.451 191.302 151.113C190.978 151.673 190.544 152.16 190.025 152.546L189.939 152.592C189.885 152.626 189.852 152.659 189.798 152.686L78.4766 217.029C78.2641 217.179 78.0179 217.273 77.76 217.303C77.5021 217.334 77.2407 217.299 76.9994 217.203C76.8121 217.096 76.6536 216.945 76.5372 216.763C76.4208 216.582 76.35 216.374 76.331 216.159C76.3239 216.03 76.3239 215.9 76.331 215.771V130.333C76.312 130.027 76.3674 129.721 76.4924 129.441C76.6175 129.161 76.8086 128.916 77.0492 128.726C77.2898 128.537 77.5727 128.409 77.8738 128.353C78.1748 128.297 78.4848 128.315 78.7773 128.405L125.565 145.659L131.694 147.118C132.418 147.257 133.165 147.193 133.855 146.935C134.545 146.676 135.15 146.232 135.605 145.652L142.71 135.747L190.273 63.3326L190.52 62.9979C191.309 61.8736 191.971 62.081 191.971 63.4731Z" fill="#F8ED41"/>
<path d="M189.825 152.686C189.877 152.664 189.924 152.632 189.965 152.592L190.052 152.546C190.57 152.164 191.003 151.679 191.322 151.12C191.729 150.468 191.96 149.72 191.99 148.952L142.723 135.747L175.715 160.838L189.825 152.686Z" fill="#F8ED41"/>
<path d="M189.825 152.686C189.877 152.664 189.924 152.632 189.965 152.592L190.052 152.546C190.57 152.164 191.003 151.679 191.322 151.12C191.729 150.468 191.96 149.72 191.99 148.952L142.723 135.747L175.715 160.838L189.825 152.686Z" fill="#CEBC3A"/>
<path d="M76.2975 215.778C76.2638 216.055 76.3086 216.337 76.4268 216.59C76.5449 216.843 76.7318 217.058 76.9659 217.21C77.2062 217.309 77.4677 217.346 77.726 217.317C77.9844 217.288 78.2311 217.193 78.4431 217.043L116.769 194.89L125.518 145.666L76.2975 214.359V215.778Z" fill="#CCBA3A"/>
<path d="M130.27 138.123L76.9723 217.21C76.7387 217.057 76.5523 216.842 76.4342 216.589C76.3161 216.336 76.271 216.055 76.3039 215.778V214.359L128.372 137.045L130.27 138.123Z" fill="#DDCD3C"/>
<path d="M191.288 151.12C190.969 151.679 190.536 152.164 190.018 152.546L189.932 152.592L78.4762 217.036C78.2642 217.187 78.0175 217.281 77.7591 217.31C77.5008 217.34 77.2393 217.303 76.999 217.203L130.304 138.103C131.372 136.393 133.019 135.126 134.944 134.534C136.868 133.941 138.942 134.063 140.784 134.877L191.288 151.12Z" fill="#F8ED41"/>
<path opacity="0.15" d="M69.8942 115.99L71.6654 117.014C71.4176 117.783 71.2804 118.583 71.2577 119.39V124.912L69.5132 123.888V118.36C69.5311 117.556 69.6593 116.759 69.8942 115.99Z" fill="black"/>
<path d="M79.1982 127.468L77.4337 128.486L75.649 127.455L71.251 124.918L72.9621 123.901L79.1982 127.468Z" fill="#F8ED41"/>
<path opacity="0.1" d="M79.2784 127.502L72.9621 123.901L71.251 124.918L75.649 127.455L77.4337 128.486C77.5405 128.437 77.6526 128.401 77.7679 128.378C78.0853 128.323 78.4108 128.335 78.7237 128.412L82.2795 129.75L123.139 144.809L123.807 143.865L79.2784 127.502Z" fill="black"/>
<path d="M128.058 60.515C122.39 60.9232 118.5 62.2751 114.844 71.0693C112.485 76.7513 103.221 97.1706 102.325 100.55C101.269 104.519 98.9028 134.683 98.9028 134.683L104.317 136.691C104.317 136.691 102.459 143.176 100.895 146.877C99.09 151.154 107.906 150.223 110.733 146.368C113.561 142.513 115.492 137.293 113.948 135.466C112.674 133.979 111.232 132.645 109.651 131.491L115.579 104.599L128.005 78.1568C128.005 78.1568 134.234 65.153 128.058 60.515Z" fill="#FFA8A7"/>
<path d="M109.651 131.491C107.98 130.519 106.094 129.978 104.163 129.918C106.043 129.388 108.032 129.388 109.911 129.918L109.651 131.491Z" fill="#F28F8F"/>
<path d="M129.348 60.2339C126.16 60.2339 120.218 60.0666 116.368 67.0269C112.518 73.9873 107.077 87.2186 107.077 87.2186C107.077 87.2186 109.343 92.7869 121.454 93.9514L130.732 74.188C130.732 74.188 133.011 65.1396 129.348 60.2339Z" fill="#37474F"/>
<path d="M170.441 64.8183C175.227 68.5929 183.001 74.536 186.777 76.9119C189.631 73.4518 194.885 66.458 196.135 64.9254C197.759 62.9778 202.872 59.7921 202.872 59.7921L204.804 67.5556C204.804 67.5556 195.105 85.4718 191.59 88.7914C187.887 92.2849 185.206 90.8393 177.968 87.5131C171.13 84.3742 163.704 80.4858 163.704 80.4858C165.174 67.4619 164.179 60.4078 157.962 58.2126C162.153 58.728 166.431 61.6527 170.441 64.8183Z" fill="#FFA8A7"/>
<path d="M182.934 74.2884C180.434 74.9577 175.261 82.3196 176.21 87.0044L163.036 80.4858C164.633 71.4976 164.974 60.4078 157.394 58.2595C156.667 58.0873 155.923 57.9931 155.175 57.9784C158.952 57.6036 161.418 57.7174 165.375 60.6956C169.332 63.6738 182.934 74.2884 182.934 74.2884Z" fill="#37474F"/>
<path d="M186.77 76.9119C184.879 78.5717 184.271 81.5566 183.903 82.7412C183.752 80.4242 184.378 78.1231 185.681 76.2025L186.77 76.9119Z" fill="#F28F8F"/>
<path d="M205.104 51.1117L209.616 48.3677C209.616 48.3677 210.138 72.7625 210.151 73.5522C210.274 74.1697 210.61 74.7242 211.1 75.1183L206.588 77.8623C206.1 77.4663 205.764 76.9127 205.639 76.2962C205.626 75.4997 205.104 51.1117 205.104 51.1117Z" fill="#37474F"/>
<path d="M209.837 58.5339C209.837 58.5339 211.133 58.8417 211.628 60.8562C212.123 62.8707 212.37 66.719 211.214 67.9839C210.057 69.2488 208.487 69.8043 207.437 69.3224C205.472 68.4725 206.1 64.4903 207.644 63.5668C210.151 62.1011 209.85 60.4814 209.85 60.4814L209.837 58.5339Z" fill="#FFA8A7"/>
<path d="M199.55 51.1854L201.555 53.6014L201.91 70.8015L199.905 74.1479L206.622 77.8489C206.119 77.4662 205.78 76.9064 205.673 76.2828L205.198 54.2774L199.55 51.1854Z" fill="#455A64"/>
<path d="M199.871 74.1613L199.898 75.2187L206.609 78.913L206.588 77.8556L199.871 74.1613Z" fill="#EFECB4"/>
<path d="M206.608 78.913L211.127 76.1757L211.1 75.1183L206.588 77.8556L206.608 78.913Z" fill="#EFECB4"/>
<path opacity="0.1" d="M206.608 78.913L211.127 76.1757L211.1 75.1183L206.588 77.8556L206.608 78.913Z" fill="black"/>
<path d="M200.861 39.2457C199.985 39.0248 198.969 39.3929 198.026 40.4035V40.4437C197.071 41.5843 196.398 42.9347 196.063 44.3849C195.727 45.8352 195.738 47.3442 196.095 48.7894V48.8362C196.509 50.1748 197.285 50.9779 198.194 51.1385L202.097 52.0755L204.47 40.1559L200.861 39.2457Z" fill="#DCDDA1"/>
<path d="M200.861 39.2457C199.985 39.0248 198.969 39.3929 198.026 40.4035V40.4437C197.071 41.5843 196.398 42.9347 196.063 44.3849C195.727 45.8352 195.738 47.3442 196.095 48.7894V48.8362C196.509 50.1748 197.285 50.9779 198.194 51.1385L202.097 52.0755L204.47 40.1559L200.861 39.2457Z" fill="#DCDDA1"/>
<path opacity="0.05" d="M198.174 51.1452L202.077 52.0822L202.872 48.1134L195.767 46.467C195.743 47.2518 195.842 48.0356 196.061 48.7894V48.8362C196.509 50.1948 197.265 50.9846 198.174 51.1452Z" fill="black"/>
<path d="M208.774 39.587C207.785 39.3594 206.662 39.7275 205.593 40.7247C205.479 40.8251 205.372 40.9389 205.258 41.0527C205.145 41.1665 205.004 41.3405 204.877 41.4944C204.671 41.7538 204.48 42.0241 204.303 42.3042C203.968 42.8361 203.679 43.3959 203.44 43.9774C202.773 45.6003 202.444 47.3424 202.471 49.0972C202.482 49.9201 202.605 50.7376 202.839 51.5267C203.32 53.1262 204.216 54.09 205.272 54.371L201.555 53.5412C200.854 53.3396 200.216 52.9621 199.701 52.4444C199.187 51.9267 198.813 51.286 198.615 50.583C198.391 49.8284 198.267 49.0476 198.247 48.2607C198.207 46.4701 198.537 44.6905 199.216 43.0337C199.455 42.4508 199.745 41.8907 200.085 41.3605C200.26 41.0789 200.452 40.8085 200.66 40.5507C200.78 40.3968 200.907 40.2496 201.034 40.109C201.161 39.9685 201.261 39.8815 201.375 39.7811C201.857 39.3444 202.432 39.0238 203.056 38.844C203.681 38.6642 204.338 38.6299 204.978 38.7437H205.078L205.212 38.7772L208.774 39.587Z" fill="#BCBB8B"/>
<path opacity="0.1" d="M201.556 53.5412C200.854 53.3396 200.216 52.9621 199.702 52.4444C199.187 51.9267 198.813 51.286 198.615 50.583C198.391 49.8284 198.267 49.0476 198.247 48.2607L202.465 49.1307C202.475 49.9536 202.599 50.7711 202.832 51.5602C203.314 53.1597 204.209 54.1234 205.265 54.4045L201.556 53.5412Z" fill="black"/>
<path d="M211.294 42.4582C212.297 45.7376 211.207 50.4224 208.874 52.9255C207.698 54.1837 206.428 54.6522 205.332 54.3845H205.272C204.216 54.1034 203.32 53.1396 202.839 51.5401C201.836 48.2607 202.919 43.5758 205.258 41.0661C206.421 39.8213 207.685 39.3461 208.774 39.6004C209.864 39.8547 210.793 40.8252 211.294 42.4582Z" fill="#EAEAAC"/>
<path d="M211.294 42.4582C212.297 45.7376 211.207 50.4224 208.874 52.9255C207.698 54.1837 206.428 54.6522 205.332 54.3845H205.272C204.216 54.1034 203.32 53.1396 202.839 51.5401C201.836 48.2607 202.919 43.5758 205.258 41.0661C206.421 39.8213 207.685 39.3461 208.774 39.6004C209.864 39.8547 210.793 40.8252 211.294 42.4582Z" fill="#DCDDA1"/>
<path d="M226.774 36.8096C226.774 36.8096 222.409 41.0527 220.317 50.0744C219.942 51.6944 219.677 53.3378 219.522 54.9935C218.967 61.124 220.29 64.825 220.29 64.825C217.617 61.5121 214.482 58.1792 210.371 56.158C208.763 55.374 207.114 54.6748 205.432 54.0632C204.436 53.829 203.614 52.9121 203.166 51.4397C202.869 50.401 202.754 49.3187 202.825 48.2406C202.862 47.5166 202.964 46.7974 203.133 46.0923C203.503 44.3193 204.322 42.6714 205.512 41.307C206.562 40.176 207.698 39.7142 208.7 39.9685C210.477 40.1585 212.261 40.2568 214.048 40.263C218.64 40.2161 222.897 38.5898 226.774 36.8096Z" fill="#DCDDA1"/>
<path d="M226.774 36.8096C226.774 36.8096 222.409 41.0527 220.317 50.0744C219.942 51.6944 219.677 53.3378 219.522 54.9935C218.967 61.124 220.29 64.825 220.29 64.825C217.617 61.5121 214.482 58.1792 210.371 56.158C208.763 55.374 207.114 54.6748 205.432 54.0632C204.436 53.829 203.614 52.9121 203.166 51.4397C202.869 50.401 202.754 49.3187 202.825 48.2406C202.862 47.5166 202.964 46.7974 203.133 46.0923C203.503 44.3193 204.322 42.6714 205.512 41.307C206.562 40.176 207.698 39.7142 208.7 39.9685C210.477 40.1585 212.261 40.2568 214.048 40.263C218.64 40.2161 222.897 38.5898 226.774 36.8096Z" fill="#EFECB4"/>
<path opacity="0.05" d="M219.522 54.9868C218.967 61.1172 220.29 64.8183 220.29 64.8183C217.617 61.5054 214.482 58.1725 210.371 56.1513C208.763 55.3673 207.114 54.668 205.432 54.0565C204.436 53.8222 203.614 52.9054 203.166 51.433C202.869 50.3943 202.754 49.312 202.825 48.2339C207.35 48.9968 214.803 50.6901 219.522 54.9868Z" fill="black"/>
<path d="M238.785 41.2267C239.809 44.9664 239.955 48.8923 239.213 52.6979C238.317 57.8044 236.138 62.7904 233.017 66.1368C227.456 72.0932 221.026 70.6008 218.653 62.7904C218.102 60.9135 217.808 58.9707 217.778 57.0147C217.693 51.8515 218.923 46.7518 221.353 42.1972C221.688 41.5814 222.022 40.9925 222.423 40.4236C222.577 40.1827 222.744 39.9551 222.904 39.7543C223.138 39.4264 223.379 39.0851 223.626 38.8107C223.873 38.5363 224.147 38.195 224.415 37.9072C229.976 31.9306 236.406 33.4231 238.785 41.2267Z" fill="#BCBB8B"/>
<path opacity="0.1" d="M239.213 52.6979C238.317 57.8044 236.138 62.7904 233.017 66.1368C227.456 72.0932 221.026 70.6008 218.653 62.7904C218.102 60.9136 217.808 58.9707 217.777 57.0147C218.539 57.8847 220.618 58.8217 221.046 57.5903C221.079 59.3245 221.344 61.0465 221.835 62.7101C222.503 64.9522 223.566 66.6053 224.869 67.5021C225.409 67.8775 226.031 68.1198 226.682 68.2093C227.334 68.2989 227.997 68.2331 228.619 68.0174C230.19 67.4546 231.59 66.4957 232.683 65.2333C235.356 62.3889 237.281 58.1324 238.23 53.7018C238.23 53.7152 238.758 53.9428 239.213 52.6979Z" fill="black"/>
<path d="M238.083 41.916C239.133 45.3561 239.106 49.6193 238.23 53.7152C237.281 58.1457 235.336 62.4156 232.683 65.2466C231.59 66.509 230.19 67.468 228.619 68.0308C227.997 68.2465 227.334 68.3122 226.682 68.2227C226.031 68.1331 225.41 67.8908 224.869 67.5154C223.566 66.6186 222.516 64.9655 221.835 62.7235C221.344 61.0598 221.079 59.3379 221.046 57.6036C221.046 56.9343 221.046 56.2182 221.046 55.5155C221.114 54.2693 221.262 53.0287 221.487 51.8011C221.541 51.5468 221.587 51.2924 221.641 51.0448C221.728 50.6232 221.821 50.2015 221.928 49.7866C222.283 48.3797 222.744 47.0016 223.305 45.6639V45.6171C223.684 44.7556 224.111 43.9155 224.582 43.1006C224.903 42.5251 225.243 41.9763 225.604 41.4542C225.751 41.2334 225.905 41.0192 226.066 40.785C226.226 40.5507 226.447 40.2897 226.647 40.0488C226.848 39.8079 227.035 39.6004 227.235 39.3795C228.331 38.1151 229.732 37.154 231.306 36.5887C234.26 35.7053 236.793 37.693 238.083 41.916Z" fill="#DCDDA1"/>
<path opacity="0.3" d="M238.083 41.916C239.133 45.3561 239.106 49.6193 238.23 53.7152C237.281 58.1457 235.336 62.4156 232.683 65.2466C231.59 66.509 230.19 67.468 228.619 68.0308C227.997 68.2465 227.334 68.3122 226.682 68.2227C226.031 68.1331 225.41 67.8908 224.869 67.5154C223.566 66.6186 222.516 64.9655 221.835 62.7235C221.344 61.0598 221.079 59.3379 221.046 57.6036C221.046 56.9343 221.046 56.2182 221.046 55.5155C221.114 54.2693 221.262 53.0287 221.487 51.8011C221.541 51.5468 221.587 51.2924 221.641 51.0448C221.728 50.6232 221.821 50.2015 221.928 49.7866C222.283 48.3797 222.744 47.0016 223.305 45.6639V45.6171C223.684 44.7556 224.111 43.9155 224.582 43.1006C224.903 42.5251 225.243 41.9763 225.604 41.4542C225.751 41.2334 225.905 41.0192 226.066 40.785C226.226 40.5507 226.447 40.2897 226.647 40.0488C226.848 39.8079 227.035 39.6004 227.235 39.3795C228.331 38.1151 229.732 37.154 231.306 36.5887C234.26 35.7053 236.793 37.693 238.083 41.916Z" fill="black"/>
<path d="M228.285 47.0024L226.44 56.3186C225.103 56.2383 222.837 56.1312 221.046 56.2182C221.046 55.984 221.046 55.7497 221.046 55.549C221.113 54.3023 221.263 53.0615 221.494 51.8345C221.541 51.5802 221.587 51.3259 221.641 51.0783C221.728 50.6566 221.821 50.235 221.928 49.82C222.283 48.4132 222.744 47.0351 223.305 45.6974V45.6505C223.385 45.4564 223.472 45.2623 223.559 45.075C225.075 45.8555 226.656 46.5005 228.285 47.0024Z" fill="#EFECB4"/>
<path d="M228.285 47.0024L226.44 56.3186C225.103 56.2383 222.837 56.1312 221.046 56.2182C221.046 55.984 221.046 55.7497 221.046 55.549C221.113 54.3023 221.263 53.0615 221.494 51.8345C221.541 51.5802 221.587 51.3259 221.641 51.0783C221.728 50.6566 221.821 50.235 221.928 49.82C222.283 48.4132 222.744 47.0351 223.305 45.6974V45.6505C223.385 45.4564 223.472 45.2623 223.559 45.075C225.075 45.8555 226.656 46.5005 228.285 47.0024Z" fill="#F4EFBA"/>
<path d="M226.788 56.2182C225.818 56.5127 225.003 55.9037 224.602 54.5919V54.5517C224.322 53.4087 224.315 52.2158 224.581 51.0694C224.847 49.9231 225.378 48.8554 226.133 47.9528C226.462 47.5742 226.883 47.2863 227.356 47.1162C228.325 46.8217 229.14 47.4308 229.541 48.7425V48.7827C229.821 49.9253 229.829 51.1176 229.564 52.2638C229.299 53.4099 228.769 54.4778 228.017 55.3816H227.984C227.663 55.7578 227.251 56.0457 226.788 56.2182Z" fill="#EFECB4"/>
<path d="M226.788 56.2182C225.818 56.5127 225.003 55.9037 224.602 54.5919V54.5517C224.322 53.4087 224.315 52.2158 224.581 51.0694C224.847 49.9231 225.378 48.8554 226.133 47.9528C226.462 47.5742 226.883 47.2863 227.356 47.1162C228.325 46.8217 229.14 47.4308 229.541 48.7425V48.7827C229.821 49.9253 229.829 51.1176 229.564 52.2638C229.299 53.4099 228.769 54.4778 228.017 55.3816H227.984C227.663 55.7578 227.251 56.0457 226.788 56.2182Z" fill="#DDD9A8"/>
<path d="M224.542 32.2117C224.415 32.2519 224.282 32.2663 224.15 32.2543C224.018 32.2422 223.89 32.2039 223.773 32.1416C223.656 32.0793 223.553 31.9942 223.469 31.8913C223.385 31.7884 223.323 31.6698 223.285 31.5425L220.445 22.2129C220.389 21.9642 220.429 21.7036 220.557 21.4833C220.685 21.2629 220.891 21.0991 221.134 21.0246C221.378 20.9502 221.64 20.9705 221.869 21.0817C222.098 21.1928 222.277 21.3865 222.37 21.6239L225.21 30.9535C225.287 31.2091 225.26 31.4849 225.135 31.7207C225.01 31.9564 224.797 32.133 224.542 32.2117Z" fill="#F8ED41"/>
<path d="M216.755 37.0773C216.585 37.1289 216.405 37.1351 216.233 37.0952C216.06 37.0552 215.902 36.9706 215.772 36.8497L208.647 30.1571C208.54 30.0692 208.453 29.9605 208.39 29.8376C208.327 29.7146 208.29 29.5801 208.281 29.4423C208.272 29.3044 208.292 29.1662 208.338 29.0362C208.385 28.9062 208.458 28.7871 208.552 28.6862C208.646 28.5854 208.76 28.505 208.887 28.45C209.013 28.395 209.15 28.3665 209.288 28.3664C209.425 28.3662 209.562 28.3944 209.689 28.4492C209.815 28.5039 209.929 28.5841 210.024 28.6847L217.149 35.3773C217.249 35.4658 217.33 35.5732 217.388 35.6932C217.446 35.8132 217.479 35.9436 217.487 36.0767C217.494 36.2098 217.475 36.3431 217.431 36.4689C217.387 36.5947 217.318 36.7105 217.229 36.8095C217.099 36.9409 216.934 37.0336 216.755 37.0773Z" fill="#F8ED41"/>
<path d="M221.621 84.7423C221.45 84.7862 221.27 84.7862 221.099 84.7423C220.971 84.7124 220.849 84.6573 220.741 84.5801C220.634 84.5029 220.543 84.4052 220.473 84.2926C220.404 84.18 220.357 84.0548 220.336 83.924C220.315 83.7933 220.32 83.6597 220.351 83.5309L222.55 74.0274C222.58 73.8986 222.634 73.777 222.711 73.6695C222.788 73.562 222.885 73.4707 222.997 73.4007C223.109 73.3308 223.234 73.2837 223.364 73.262C223.494 73.2404 223.628 73.2446 223.756 73.2745C223.885 73.3044 224.006 73.3593 224.114 73.4362C224.221 73.5131 224.312 73.6104 224.382 73.7225C224.452 73.8347 224.499 73.9596 224.521 74.09C224.542 74.2204 224.538 74.3537 224.508 74.4825L222.309 83.986C222.273 84.1626 222.19 84.3262 222.069 84.4593C221.948 84.5925 221.793 84.6903 221.621 84.7423Z" fill="#F8ED41"/>
<path d="M239.286 80.7134C239.031 80.7907 238.756 80.7637 238.52 80.6383C238.285 80.5129 238.108 80.2993 238.03 80.0441L235.189 70.7146C235.139 70.5849 235.115 70.4463 235.121 70.3073C235.126 70.1683 235.161 70.0319 235.221 69.9067C235.282 69.7815 235.367 69.6702 235.473 69.5797C235.579 69.4892 235.702 69.4216 235.834 69.3809C235.967 69.3402 236.107 69.3275 236.245 69.3435C236.383 69.3594 236.516 69.4037 236.637 69.4737C236.757 69.5436 236.861 69.6375 236.943 69.7497C237.025 69.8619 237.084 69.9899 237.114 70.1256L239.955 79.4485C240.032 79.705 240.005 79.9817 239.88 80.2185C239.755 80.4553 239.542 80.6332 239.286 80.7134Z" fill="#F8ED41"/>
<path d="M249.794 67.9772C249.624 68.0289 249.444 68.0351 249.272 67.9952C249.099 67.9552 248.941 67.8706 248.811 67.7497L241.686 61.0571C241.49 60.8742 241.375 60.621 241.365 60.353C241.356 60.085 241.453 59.8243 241.636 59.6282C241.818 59.432 242.071 59.3166 242.339 59.3071C242.607 59.2977 242.867 59.3951 243.063 59.578L250.181 66.2572C250.279 66.347 250.358 66.4552 250.413 66.5756C250.469 66.696 250.5 66.8263 250.505 66.9588C250.51 67.0914 250.489 67.2236 250.442 67.3479C250.396 67.4721 250.325 67.586 250.235 67.6828C250.114 67.816 249.963 67.9172 249.794 67.9772Z" fill="#F8ED41"/>
<path d="M256.478 55.4084C256.307 55.4554 256.127 55.4554 255.956 55.4084L246.465 53.2065C246.336 53.1767 246.215 53.1217 246.108 53.0448C246 52.968 245.909 52.8706 245.839 52.7585C245.769 52.6463 245.722 52.5214 245.701 52.3911C245.679 52.2607 245.683 52.1273 245.713 51.9985C245.743 51.8698 245.798 51.7482 245.875 51.6406C245.951 51.5331 246.049 51.4418 246.161 51.3719C246.273 51.302 246.397 51.2548 246.527 51.2332C246.658 51.2115 246.791 51.2157 246.92 51.2456L256.411 53.4475C256.626 53.4988 256.818 53.6194 256.958 53.7907C257.098 53.9621 257.178 54.1746 257.185 54.3958C257.193 54.6169 257.128 54.8345 257 55.015C256.872 55.1955 256.689 55.329 256.478 55.395V55.4084Z" fill="#F8ED41"/>
<path d="M255.996 41.1732L246.679 44.0176C246.549 44.0681 246.411 44.0913 246.272 44.0858C246.133 44.0803 245.997 44.0461 245.872 43.9855C245.747 43.9248 245.636 43.839 245.545 43.7333C245.455 43.6276 245.387 43.5044 245.347 43.3713C245.306 43.2383 245.293 43.0983 245.309 42.9601C245.325 42.8219 245.37 42.6885 245.439 42.5682C245.509 42.4479 245.603 42.3434 245.715 42.2611C245.827 42.1788 245.955 42.1206 246.091 42.0901L255.408 39.2457C255.537 39.1952 255.676 39.1719 255.815 39.1774C255.954 39.183 256.09 39.2171 256.215 39.2778C256.34 39.3384 256.451 39.4243 256.541 39.53C256.632 39.6356 256.699 39.7589 256.74 39.8919C256.78 40.025 256.793 40.165 256.777 40.3032C256.761 40.4414 256.717 40.5748 256.647 40.6951C256.577 40.8153 256.484 40.9199 256.372 41.0022C256.26 41.0844 256.132 41.1427 255.996 41.1732Z" fill="#F8ED41"/>
<path d="M241.813 36.2206C241.644 36.2716 241.464 36.2774 241.292 36.2375C241.119 36.1976 240.96 36.1133 240.83 35.993C240.733 35.9028 240.655 35.7943 240.6 35.6736C240.545 35.5529 240.515 35.4226 240.51 35.29C240.506 35.1575 240.528 35.0254 240.575 34.9014C240.622 34.7774 240.693 34.6639 240.784 34.5675L247.434 27.4398C247.522 27.3332 247.631 27.2457 247.753 27.1828C247.876 27.1198 248.01 27.0827 248.148 27.0738C248.286 27.0649 248.424 27.0843 248.554 27.1309C248.684 27.1775 248.802 27.2502 248.903 27.3446C249.004 27.439 249.084 27.5531 249.139 27.6798C249.194 27.8065 249.222 27.9431 249.223 28.0812C249.223 28.2193 249.195 28.356 249.14 28.4828C249.085 28.6096 249.005 28.7239 248.905 28.8185L242.254 35.9462C242.136 36.0778 241.983 36.173 241.813 36.2206Z" fill="#F8ED41"/>
<path d="M233.712 31.8971C233.542 31.9442 233.362 31.9442 233.191 31.8971C232.931 31.835 232.707 31.6731 232.565 31.4465C232.424 31.2198 232.377 30.9466 232.436 30.6858L234.608 21.2023C234.67 20.9424 234.832 20.7174 235.058 20.5759C235.284 20.4344 235.557 20.3877 235.818 20.446C235.951 20.4706 236.077 20.5219 236.19 20.5968C236.303 20.6716 236.399 20.7686 236.474 20.8818C236.548 20.9949 236.599 21.122 236.623 21.2553C236.647 21.3886 236.643 21.5254 236.613 21.6574L234.414 31.161C234.374 31.3355 234.288 31.4959 234.164 31.6254C234.041 31.755 233.884 31.8488 233.712 31.8971Z" fill="#F8ED41"/>
<path d="M196.148 64.9187C198.073 62.4758 198.153 60.9499 199.644 59.7519C201.134 58.554 202.651 58.4803 204.877 59.1228C206.562 59.6047 208.533 59.3638 209.215 59.9862C209.402 60.12 209.102 61.1975 208.313 61.5857C207.364 62.0542 205.833 61.9404 204.697 61.9471C202.123 61.9471 204.236 64.4903 201.756 67.0603C200.7 68.9343 196.148 64.9187 196.148 64.9187Z" fill="#FFA8A7"/>
<path d="M255.181 103.649L278.822 88.4902L289.243 91.8366L255.181 103.649Z" fill="#DCDDA1"/>
<path d="M255.181 103.649L275.614 86.5829L271.076 81.3358L255.181 103.649Z" fill="#DCDDA1"/>
<path d="M275.614 86.5828V90.5449L255.181 103.649L275.614 86.5828Z" fill="#DCDDA1"/>
<path opacity="0.25" d="M275.614 86.5828V90.5449L255.181 103.649L275.614 86.5828Z" fill="black"/>
<path d="M280.467 84.3274C280.329 84.3288 280.195 84.2879 280.082 84.2102C279.969 84.1325 279.882 84.0218 279.834 83.8932C279.786 83.7645 279.778 83.6242 279.813 83.4911C279.847 83.3581 279.921 83.2388 280.026 83.1495C280.44 82.7948 280.841 82.4267 281.242 82.0519C281.372 81.9444 281.538 81.8901 281.706 81.9C281.875 81.9099 282.033 81.9831 282.15 82.1051C282.267 82.227 282.333 82.3886 282.336 82.5575C282.338 82.7264 282.277 82.8901 282.164 83.0157C281.75 83.4105 281.329 83.792 280.901 84.1668C280.78 84.2705 280.626 84.3274 280.467 84.3274Z" fill="#F8ED41"/>
<path d="M283.982 80.787C283.82 80.7868 283.663 80.7273 283.541 80.6197C283.408 80.5024 283.327 80.3372 283.316 80.1603C283.305 79.9834 283.364 79.8092 283.481 79.676C284.149 78.8729 284.864 78.0229 285.486 77.1462C285.538 77.0754 285.604 77.0155 285.679 76.9701C285.754 76.9247 285.838 76.8946 285.925 76.8816C286.012 76.8685 286.1 76.8728 286.186 76.8941C286.271 76.9153 286.351 76.9533 286.422 77.0056C286.492 77.0579 286.552 77.1236 286.598 77.199C286.643 77.2743 286.673 77.3579 286.686 77.445C286.699 77.532 286.695 77.6208 286.674 77.7061C286.652 77.7915 286.614 77.8719 286.562 77.9426C285.894 78.8528 285.185 79.7296 284.463 80.5594C284.403 80.6283 284.329 80.6841 284.246 80.7232C284.164 80.7624 284.074 80.7841 283.982 80.787ZM287.899 75.4864C287.774 75.4868 287.651 75.452 287.545 75.386C287.47 75.3395 287.405 75.2788 287.354 75.2071C287.303 75.1355 287.266 75.0545 287.246 74.9687C287.226 74.8829 287.224 74.794 287.238 74.7071C287.253 74.6202 287.284 74.5371 287.331 74.4624C287.899 73.5589 288.44 72.6086 288.948 71.6448C288.988 71.5649 289.043 71.4937 289.11 71.4354C289.178 71.3772 289.256 71.333 289.341 71.3055C289.426 71.278 289.515 71.2677 289.604 71.2753C289.693 71.2829 289.779 71.3082 289.858 71.3497C289.937 71.3912 290.007 71.448 290.063 71.5169C290.12 71.5858 290.162 71.6653 290.188 71.7508C290.213 71.8363 290.221 71.926 290.212 72.0147C290.202 72.1034 290.175 72.1893 290.131 72.2673C289.61 73.2645 289.049 74.275 288.467 75.1719C288.407 75.2683 288.323 75.3478 288.224 75.4028C288.124 75.4579 288.013 75.4866 287.899 75.4864ZM290.98 69.6504C290.886 69.6521 290.793 69.6338 290.706 69.5969C290.626 69.5613 290.553 69.5103 290.493 69.4466C290.432 69.383 290.384 69.308 290.353 69.2259C290.321 69.1439 290.306 69.0564 290.308 68.9684C290.31 68.8805 290.33 68.7939 290.365 68.7134C290.8 67.7296 291.207 66.7057 291.582 65.6951C291.646 65.533 291.77 65.4022 291.929 65.3305C292.087 65.2588 292.267 65.2518 292.431 65.3111C292.595 65.3703 292.729 65.4911 292.805 65.6478C292.881 65.8045 292.893 65.9847 292.838 66.1502C292.457 67.2009 292.036 68.245 291.588 69.2556C291.536 69.373 291.45 69.4727 291.342 69.5427C291.235 69.6128 291.109 69.6501 290.98 69.6504ZM293.239 63.453C293.175 63.4625 293.11 63.4625 293.046 63.453C292.877 63.4019 292.735 63.286 292.651 63.1305C292.567 62.975 292.548 62.7926 292.598 62.6231C292.899 61.5858 293.173 60.5283 293.413 59.4709C293.459 59.3062 293.567 59.1655 293.713 59.0775C293.859 58.9896 294.034 58.9611 294.201 58.9979C294.368 59.0347 294.514 59.1341 294.61 59.2755C294.706 59.417 294.744 59.5899 294.717 59.7587C294.469 60.8496 294.189 61.9405 293.881 62.9979C293.836 63.1319 293.749 63.2482 293.634 63.3299C293.519 63.4117 293.381 63.4548 293.239 63.453ZM294.683 57.0147H294.576C294.489 57.0009 294.406 56.97 294.331 56.9237C294.256 56.8775 294.191 56.8169 294.139 56.7454C294.087 56.6738 294.05 56.5928 294.03 56.507C294.01 56.4211 294.007 56.3321 294.021 56.245C294.195 55.1809 294.336 54.09 294.436 53.0125C294.453 52.835 294.539 52.6715 294.676 52.5579C294.814 52.4443 294.99 52.3899 295.168 52.4068C295.345 52.4237 295.508 52.5103 295.622 52.6478C295.735 52.7852 295.789 52.9622 295.773 53.1396C295.666 54.2506 295.525 55.3616 295.352 56.486C295.319 56.6382 295.234 56.7743 295.112 56.8708C294.99 56.9673 294.839 57.0182 294.683 57.0147ZM295.311 50.4425C295.134 50.4425 294.964 50.372 294.839 50.2465C294.713 50.121 294.643 49.9507 294.643 49.7732C294.643 49.2557 294.643 48.7403 294.643 48.2272C294.643 47.6584 294.643 47.0828 294.643 46.5139C294.643 46.3364 294.713 46.1662 294.839 46.0407C294.964 45.9152 295.134 45.8447 295.311 45.8447C295.489 45.8447 295.659 45.9152 295.784 46.0407C295.909 46.1662 295.98 46.3364 295.98 46.5139C295.98 47.1029 295.98 47.6851 295.98 48.2741C295.98 48.863 295.98 49.3315 295.98 49.8602C295.959 50.0223 295.879 50.1709 295.756 50.2782C295.633 50.3855 295.475 50.4439 295.311 50.4425ZM295.077 43.8502C294.911 43.8511 294.751 43.7898 294.627 43.6785C294.503 43.5671 294.426 43.4136 294.409 43.2479C294.302 42.1637 294.148 41.0795 293.968 40.0221C293.953 39.9342 293.956 39.8442 293.975 39.7573C293.995 39.6704 294.032 39.5882 294.083 39.5155C294.135 39.4428 294.2 39.3809 294.276 39.3335C294.351 39.2861 294.435 39.254 294.523 39.239C294.611 39.2241 294.7 39.2266 294.787 39.2464C294.874 39.2662 294.956 39.303 295.029 39.3546C295.101 39.4062 295.163 39.4716 295.21 39.547C295.258 39.6225 295.29 39.7066 295.305 39.7945C295.492 40.8787 295.646 41.9964 295.766 43.1074C295.775 43.1953 295.767 43.2843 295.742 43.369C295.716 43.4538 295.674 43.5326 295.619 43.6011C295.563 43.6695 295.494 43.7262 295.416 43.7678C295.338 43.8095 295.252 43.8352 295.164 43.8436L295.077 43.8502ZM293.935 37.345C293.783 37.3498 293.634 37.3027 293.512 37.2115C293.391 37.1202 293.304 36.9903 293.266 36.843C292.999 35.7856 292.691 34.7416 292.35 33.7243C292.322 33.6408 292.311 33.5526 292.317 33.4647C292.323 33.3768 292.346 33.2909 292.385 33.212C292.424 33.133 292.479 33.0626 292.545 33.0047C292.611 32.9467 292.688 32.9024 292.772 32.8743C292.855 32.8462 292.943 32.8348 293.031 32.8407C293.119 32.8467 293.204 32.8699 293.283 32.9091C293.362 32.9482 293.432 33.0026 293.49 33.0689C293.548 33.1353 293.592 33.2124 293.62 33.2959C293.975 34.34 294.289 35.4242 294.563 36.5151C294.605 36.6864 294.579 36.8675 294.489 37.0192C294.399 37.1709 294.252 37.2807 294.082 37.3249C294.033 37.3367 293.984 37.3434 293.935 37.345ZM291.822 31.0941C291.693 31.0932 291.567 31.0548 291.459 30.9835C291.351 30.9123 291.266 30.8112 291.214 30.6925C290.78 29.6953 290.305 28.6847 289.804 27.7678C289.755 27.69 289.723 27.6031 289.709 27.5123C289.696 27.4216 289.701 27.329 289.725 27.2404C289.748 27.1517 289.79 27.0689 289.847 26.997C289.904 26.9251 289.975 26.8657 290.056 26.8224C290.136 26.7792 290.225 26.7531 290.317 26.7457C290.408 26.7383 290.5 26.7498 290.587 26.7794C290.673 26.8091 290.753 26.8563 290.821 26.9181C290.888 26.9799 290.943 27.055 290.98 27.1387C291.502 28.1091 291.996 29.1465 292.437 30.1638C292.507 30.3263 292.509 30.5096 292.444 30.6739C292.379 30.8381 292.252 30.9699 292.09 31.0405C292.006 31.0782 291.914 31.0965 291.822 31.0941ZM288.701 25.2915C288.591 25.291 288.483 25.2632 288.386 25.2106C288.289 25.1581 288.207 25.0824 288.146 24.9904C287.551 24.0869 286.91 23.2034 286.241 22.3668C286.137 22.2278 286.091 22.0536 286.113 21.8811C286.134 21.7086 286.222 21.5513 286.358 21.4426C286.493 21.3338 286.666 21.2822 286.839 21.2986C287.011 21.3149 287.171 21.398 287.284 21.5303C287.952 22.4003 288.621 23.3172 289.289 24.2542C289.385 24.4025 289.419 24.5829 289.383 24.756C289.346 24.929 289.243 25.0807 289.095 25.1778C288.979 25.2561 288.841 25.2959 288.701 25.2915ZM284.59 20.1382C284.499 20.1388 284.409 20.1206 284.325 20.085C284.241 20.0493 284.165 19.9968 284.102 19.9307C283.374 19.1611 282.592 18.3981 281.776 17.6619C281.657 17.5401 281.589 17.3772 281.585 17.2066C281.582 17.036 281.644 16.8705 281.758 16.744C281.872 16.6175 282.031 16.5396 282.201 16.5261C282.371 16.5126 282.539 16.5645 282.672 16.6714C283.514 17.4277 284.316 18.2174 285.072 19.0071C285.196 19.1325 285.266 19.3022 285.266 19.479C285.266 19.6558 285.196 19.8254 285.072 19.9508C285.008 20.0124 284.932 20.0607 284.85 20.0929C284.767 20.1251 284.679 20.1405 284.59 20.1382ZM279.704 15.7077C279.554 15.7068 279.408 15.6549 279.29 15.5604C278.454 14.8911 277.572 14.2553 276.67 13.6262C276.525 13.5249 276.426 13.3701 276.394 13.1957C276.363 13.0213 276.402 12.8416 276.503 12.696C276.604 12.5506 276.759 12.4514 276.933 12.42C277.107 12.3886 277.286 12.4277 277.432 12.5286C278.354 13.1979 279.257 13.8672 280.105 14.5364C280.216 14.6222 280.297 14.7405 280.336 14.8746C280.376 15.0088 280.373 15.152 280.327 15.2842C280.281 15.4164 280.195 15.531 280.081 15.6117C279.967 15.6925 279.831 15.7354 279.691 15.7344L279.704 15.7077ZM274.284 11.9464C274.161 11.9455 274.041 11.9108 273.936 11.846C273.027 11.2905 272.071 10.7417 271.109 10.2197C270.953 10.1354 270.837 9.99246 270.786 9.82239C270.735 9.65232 270.754 9.46902 270.838 9.31282C270.922 9.15662 271.065 9.04031 271.235 8.98948C271.405 8.93865 271.588 8.95746 271.744 9.04177C272.733 9.57718 273.702 10.1327 274.638 10.7015C274.765 10.7769 274.863 10.8923 274.918 11.0296C274.973 11.1669 274.98 11.3185 274.94 11.4607C274.899 11.6028 274.813 11.7276 274.694 11.8154C274.576 11.9033 274.431 11.9493 274.284 11.9464ZM268.482 8.80753C268.384 8.80836 268.288 8.78539 268.201 8.7406C267.225 8.27881 266.196 7.82371 265.22 7.40207C265.139 7.36824 265.065 7.31872 265.003 7.25634C264.941 7.19397 264.892 7.11997 264.858 7.03855C264.825 6.95714 264.808 6.86991 264.808 6.78186C264.808 6.6938 264.825 6.60663 264.859 6.52533C264.893 6.44404 264.942 6.3702 265.005 6.30804C265.067 6.24588 265.141 6.19661 265.222 6.16305C265.304 6.1295 265.391 6.1123 265.479 6.11245C265.567 6.1126 265.654 6.13009 265.735 6.16393C266.757 6.59226 267.78 7.05405 268.776 7.50246C268.912 7.5686 269.022 7.67917 269.088 7.81604C269.153 7.95292 269.17 8.10798 269.136 8.2558C269.102 8.40361 269.018 8.53541 268.9 8.62958C268.781 8.72374 268.633 8.77469 268.482 8.77407V8.80753ZM200.974 7.14106C200.817 7.14087 200.665 7.08527 200.544 6.984C200.424 6.88274 200.343 6.7423 200.316 6.58733C200.289 6.43236 200.317 6.27278 200.396 6.1366C200.475 6.00042 200.599 5.89636 200.747 5.84268C201.796 5.4679 202.852 5.10649 203.888 4.77186C204.046 4.74111 204.21 4.7684 204.349 4.84871C204.488 4.92902 204.594 5.05697 204.647 5.20908C204.7 5.36119 204.696 5.52727 204.636 5.67684C204.577 5.82642 204.465 5.94945 204.322 6.02339C203.293 6.35133 202.25 6.69265 201.221 7.08082C201.149 7.11419 201.073 7.13458 200.994 7.14106H200.974ZM262.386 6.25094C262.306 6.25069 262.227 6.23712 262.152 6.21078C261.15 5.84268 260.107 5.48797 259.058 5.15334C258.969 5.13122 258.885 5.09107 258.813 5.03537C258.74 4.97967 258.679 4.90961 258.635 4.82953C258.59 4.74945 258.563 4.66107 258.554 4.56985C258.545 4.47864 258.554 4.38654 258.582 4.29927C258.61 4.212 258.656 4.13141 258.716 4.0625C258.777 3.9936 258.851 3.93784 258.933 3.8987C259.016 3.85955 259.106 3.83784 259.198 3.83493C259.289 3.83201 259.38 3.84794 259.465 3.88174C260.535 4.21637 261.591 4.551 262.613 4.95256C262.761 5.00624 262.885 5.1103 262.964 5.24648C263.043 5.38265 263.071 5.54224 263.044 5.6972C263.017 5.85217 262.936 5.99262 262.816 6.09388C262.695 6.19515 262.543 6.25075 262.386 6.25094ZM207.27 5.11988C207.093 5.14384 206.913 5.09631 206.771 4.98774C206.629 4.87917 206.535 4.71846 206.511 4.54096C206.488 4.36346 206.535 4.18371 206.643 4.04126C206.752 3.8988 206.912 3.80531 207.09 3.78135C208.139 3.48018 209.215 3.19239 210.291 2.918C210.377 2.89597 210.466 2.89117 210.553 2.90385C210.641 2.91654 210.725 2.94646 210.801 2.9919C210.877 3.03733 210.943 3.09738 210.995 3.16855C211.048 3.23973 211.086 3.32062 211.107 3.40656C211.149 3.57873 211.122 3.76071 211.03 3.91254C210.939 4.06438 210.791 4.17365 210.619 4.21637C209.556 4.48408 208.493 4.77186 207.457 5.06634C207.398 5.09424 207.335 5.11232 207.27 5.11988ZM256.117 4.25653C256.059 4.26578 256 4.26578 255.943 4.25653C254.913 3.98213 253.844 3.71442 252.768 3.46679C252.682 3.44702 252.601 3.41056 252.53 3.3595C252.458 3.30843 252.398 3.24377 252.351 3.16919C252.305 3.09461 252.273 3.01159 252.259 2.92485C252.244 2.83811 252.247 2.74937 252.267 2.66368C252.286 2.57798 252.323 2.49703 252.374 2.42542C252.425 2.35382 252.489 2.29298 252.564 2.24637C252.638 2.19976 252.721 2.16829 252.808 2.15377C252.894 2.13925 252.983 2.14195 253.069 2.16173C254.158 2.40935 255.248 2.68375 256.29 2.96484C256.468 2.98792 256.629 3.08056 256.738 3.22239C256.847 3.36422 256.895 3.54361 256.872 3.72111C256.849 3.89861 256.756 4.05968 256.615 4.16887C256.473 4.27807 256.294 4.32645 256.117 4.30337V4.25653ZM213.667 3.51364C213.489 3.53228 213.312 3.47964 213.173 3.36731C213.035 3.25498 212.947 3.09215 212.928 2.91465C212.909 2.73715 212.962 2.55952 213.074 2.42083C213.186 2.28213 213.349 2.19375 213.526 2.17511C214.609 1.94087 215.705 1.72001 216.781 1.50585C216.869 1.49003 216.959 1.49167 217.046 1.51069C217.133 1.52971 217.216 1.56573 217.289 1.61669C217.362 1.66765 217.425 1.73255 217.473 1.8077C217.521 1.88284 217.554 1.96675 217.57 2.05464C217.586 2.14253 217.584 2.23268 217.565 2.31993C217.546 2.40718 217.51 2.48984 217.459 2.56317C217.408 2.6365 217.344 2.69908 217.269 2.74733C217.194 2.79558 217.11 2.82856 217.022 2.84438C215.959 3.03846 214.876 3.25263 213.807 3.51364C213.76 3.52015 213.713 3.52015 213.667 3.51364ZM249.687 2.79084C249.647 2.79745 249.606 2.79745 249.566 2.79084C248.517 2.59675 247.427 2.41605 246.338 2.25542C246.164 2.22896 246.007 2.13464 245.902 1.993C245.797 1.85136 245.752 1.67387 245.776 1.49915C245.803 1.32466 245.897 1.16769 246.039 1.0624C246.18 0.957113 246.357 0.912032 246.532 0.936971C247.641 1.09759 248.744 1.2783 249.814 1.47908C249.991 1.49594 250.154 1.58262 250.268 1.72006C250.381 1.85749 250.435 2.03442 250.418 2.21192C250.402 2.38942 250.315 2.55295 250.178 2.66654C250.041 2.78013 249.864 2.83447 249.687 2.81761V2.79084ZM220.15 2.33574C219.973 2.34816 219.798 2.28956 219.664 2.17284C219.53 2.05611 219.447 1.89082 219.435 1.71332C219.422 1.53582 219.481 1.36065 219.598 1.22636C219.714 1.09206 219.879 1.00963 220.057 0.997205C221.153 0.836581 222.262 0.696036 223.345 0.568875C223.433 0.558659 223.522 0.566006 223.607 0.590493C223.692 0.61498 223.771 0.656118 223.84 0.711524C223.909 0.766929 223.967 0.8355 224.009 0.91326C224.051 0.991021 224.078 1.07642 224.087 1.16452C224.096 1.25198 224.088 1.34041 224.063 1.42475C224.038 1.50909 223.997 1.5877 223.942 1.65607C223.887 1.72444 223.818 1.78124 223.741 1.82322C223.664 1.8652 223.579 1.89153 223.492 1.90071C222.423 2.02118 221.333 2.16173 220.25 2.32235L220.15 2.33574ZM243.163 1.84048H243.09C242.027 1.7267 240.931 1.63301 239.828 1.55269C239.653 1.53898 239.49 1.45689 239.375 1.32415C239.26 1.19142 239.202 1.01869 239.213 0.843274C239.218 0.752256 239.241 0.663198 239.282 0.581563C239.322 0.499927 239.379 0.427433 239.448 0.368527C239.518 0.309622 239.599 0.265546 239.686 0.239002C239.773 0.212458 239.864 0.204006 239.955 0.214165C241.071 0.287784 242.187 0.388174 243.297 0.501949C243.474 0.511711 243.64 0.591586 243.759 0.724C243.877 0.856415 243.938 1.03052 243.928 1.20802C243.919 1.38552 243.839 1.55188 243.707 1.67048C243.574 1.78909 243.4 1.85024 243.223 1.84048H243.163ZM226.7 1.60624C226.523 1.61245 226.351 1.5479 226.221 1.42678C226.091 1.30566 226.015 1.1379 226.009 0.960395C226.002 0.782895 226.067 0.610197 226.188 0.480293C226.309 0.350388 226.476 0.273919 226.654 0.267706C227.756 0.187394 228.873 0.120468 229.962 0.0736192C230.139 0.0736192 230.309 0.144131 230.435 0.269642C230.56 0.395154 230.631 0.565384 230.631 0.742884C230.631 0.920384 230.56 1.09061 230.435 1.21613C230.309 1.34164 230.139 1.41215 229.962 1.41215C228.886 1.459 227.79 1.51923 226.7 1.60624ZM236.613 1.38538C235.657 1.38538 234.701 1.33853 233.759 1.33853H233.271C233.093 1.33853 232.923 1.26802 232.798 1.14251C232.673 1.017 232.602 0.846765 232.602 0.669265C232.602 0.491765 232.673 0.321535 232.798 0.196023C232.923 0.0705117 233.093 0 233.271 0L233.692 0C234.648 0 235.624 0 236.593 0.0468486C236.77 0.0468486 236.94 0.11736 237.065 0.242872C237.191 0.368383 237.261 0.538614 237.261 0.716114C237.261 0.890189 237.194 1.05745 237.072 1.1824C236.951 1.30735 236.787 1.38016 236.613 1.38538Z" fill="#F8ED41"/>
<path d="M196.295 8.95476C196.163 8.9541 196.034 8.91435 195.925 8.84051C195.816 8.76666 195.73 8.66204 195.68 8.53982C195.646 8.45854 195.629 8.37135 195.628 8.28324C195.628 8.19514 195.645 8.10785 195.679 8.0264C195.712 7.94494 195.762 7.87092 195.824 7.80857C195.886 7.74622 195.96 7.69678 196.041 7.66308L197.605 7.03397C197.768 6.97797 197.946 6.98711 198.103 7.05949C198.259 7.13187 198.381 7.26191 198.444 7.42247C198.507 7.58302 198.506 7.76171 198.44 7.92126C198.375 8.08081 198.251 8.2089 198.093 8.27881L196.549 8.90122C196.469 8.93552 196.382 8.95371 196.295 8.95476Z" fill="#F8ED41"/>
<path d="M47.4697 69.9717L78.2027 54.8864L56.0386 75.9883L47.4697 69.9717Z" fill="#DCDDA1"/>
<path d="M78.2027 54.8864L44.315 66.0498L35.7461 60.0264L78.2027 54.8864Z" fill="#DCDDA1"/>
<path d="M44.3149 66.0498L45.6584 74.6632L47.4698 69.9716L78.2027 54.8864L44.3149 66.0498Z" fill="#C6C691"/>
<path opacity="0.25" d="M44.3149 66.0498L45.6584 74.6632L47.4698 69.9716L78.2027 54.8864L44.3149 66.0498Z" fill="black"/>
<path d="M45.6582 74.6632L50.3236 71.9795L47.4696 69.9717L45.6582 74.6632Z" fill="#B7B688"/>
<path d="M47.4697 69.9717L50.3238 71.9795L49.5819 72.4078L47.4697 69.9717Z" fill="#B7B688"/>
<path d="M49.7756 160.302C49.7003 160.301 49.6258 160.288 49.555 160.262C48.4655 159.874 47.4095 159.472 46.4069 159.078C46.3252 159.045 46.2507 158.997 46.1877 158.936C46.1246 158.874 46.0743 158.801 46.0395 158.72C46.0048 158.639 45.9862 158.553 45.9851 158.465C45.9839 158.377 46 158.289 46.0326 158.208C46.065 158.126 46.1132 158.051 46.1744 157.988C46.2356 157.925 46.3087 157.875 46.3894 157.84C46.4701 157.805 46.5569 157.786 46.6447 157.785C46.7326 157.784 46.8199 157.8 46.9015 157.833C47.8907 158.221 48.9067 158.616 50.0028 159.004C50.1505 159.058 50.2746 159.162 50.3533 159.298C50.432 159.434 50.4603 159.594 50.4332 159.749C50.406 159.904 50.3253 160.044 50.205 160.145C50.0848 160.247 49.9327 160.302 49.7756 160.302ZM43.5729 157.833C43.4812 157.832 43.3905 157.814 43.3055 157.779C42.2628 157.317 41.2335 156.842 40.2509 156.36C40.1719 156.322 40.1013 156.268 40.0431 156.202C39.9849 156.136 39.9402 156.059 39.9117 155.976C39.8831 155.892 39.8712 155.804 39.8767 155.716C39.8821 155.629 39.9048 155.543 39.9435 155.464C39.9821 155.384 40.0359 155.314 40.1018 155.255C40.1677 155.197 40.2444 155.152 40.3276 155.124C40.4108 155.095 40.4988 155.083 40.5865 155.089C40.6743 155.094 40.7601 155.117 40.8391 155.156C41.8083 155.631 42.8443 156.099 43.8402 156.554C43.9784 156.617 44.091 156.726 44.1596 156.861C44.2282 156.997 44.2486 157.152 44.2174 157.301C44.1863 157.45 44.1055 157.583 43.9884 157.68C43.8712 157.777 43.7247 157.831 43.5729 157.833ZM37.5573 154.888C37.4445 154.888 37.3336 154.858 37.2364 154.801C36.2405 154.259 35.2312 153.69 34.3222 153.108C34.2315 153.073 34.1494 153.019 34.0817 152.949C34.0139 152.879 33.9622 152.796 33.9301 152.704C33.898 152.612 33.8862 152.514 33.8957 152.417C33.9051 152.321 33.9355 152.227 33.9848 152.143C34.034 152.059 34.101 151.987 34.1809 151.932C34.2608 151.877 34.3518 151.839 34.4476 151.823C34.5433 151.806 34.6415 151.811 34.7353 151.836C34.8291 151.862 34.9162 151.907 34.9906 151.97C35.913 152.539 36.8688 153.094 37.8447 153.63C37.9759 153.701 38.0796 153.813 38.1394 153.95C38.1993 154.087 38.2117 154.24 38.1749 154.384C38.138 154.529 38.0539 154.657 37.9359 154.748C37.818 154.84 37.6729 154.889 37.5239 154.888H37.5573ZM31.8759 151.374C31.7396 151.374 31.6067 151.332 31.4949 151.254C30.5658 150.585 29.6501 149.915 28.8213 149.246C28.6822 149.136 28.5924 148.975 28.5717 148.799C28.551 148.622 28.6011 148.445 28.711 148.306C28.8209 148.166 28.9816 148.076 29.1577 148.056C29.3339 148.035 29.511 148.085 29.6501 148.195C30.4923 148.865 31.3813 149.534 32.3237 150.203C32.4689 150.304 32.568 150.459 32.5993 150.634C32.6306 150.808 32.5916 150.988 32.4908 151.133C32.4198 151.22 32.3281 151.288 32.2241 151.33C32.1202 151.372 32.0073 151.387 31.8959 151.374H31.8759ZM26.6824 147.238C26.5145 147.239 26.3522 147.177 26.2279 147.064C25.3924 146.295 24.577 145.491 23.815 144.682C23.6905 144.556 23.6206 144.387 23.6206 144.21C23.6206 144.033 23.6905 143.863 23.815 143.738C23.8772 143.675 23.9511 143.625 24.0325 143.591C24.114 143.558 24.2013 143.54 24.2896 143.54C24.3778 143.54 24.4652 143.558 24.5466 143.591C24.6281 143.625 24.702 143.675 24.7641 143.738C25.4994 144.528 26.2881 145.304 27.1035 146.047C27.2033 146.138 27.2733 146.257 27.3043 146.388C27.3354 146.519 27.3261 146.657 27.2777 146.783C27.2293 146.909 27.144 147.017 27.033 147.093C26.922 147.17 26.7905 147.211 26.6557 147.211L26.6824 147.238ZM22.1106 142.373C22.0107 142.373 21.9121 142.351 21.8219 142.308C21.7316 142.265 21.6522 142.203 21.5892 142.125C20.8807 141.248 20.199 140.331 19.5841 139.394C19.5267 139.322 19.4849 139.239 19.4611 139.15C19.4374 139.061 19.4323 138.968 19.4462 138.877C19.46 138.786 19.4925 138.699 19.5416 138.621C19.5907 138.543 19.6554 138.476 19.7316 138.424C19.8077 138.372 19.8938 138.337 19.9843 138.32C20.0747 138.303 20.1677 138.305 20.2574 138.326C20.3471 138.346 20.4316 138.385 20.5055 138.44C20.5794 138.495 20.6412 138.565 20.6869 138.645C21.3018 139.548 21.9569 140.439 22.6386 141.288C22.7487 141.426 22.7999 141.602 22.7811 141.778C22.7623 141.953 22.6751 142.114 22.5384 142.225C22.4137 142.313 22.2627 142.356 22.1106 142.346V142.373ZM18.3676 136.845C18.248 136.846 18.1304 136.814 18.0269 136.754C17.9234 136.694 17.838 136.608 17.7794 136.503C17.2313 135.533 16.7166 134.495 16.2421 133.478C16.1693 133.317 16.1629 133.134 16.2242 132.969C16.2856 132.803 16.4097 132.669 16.5696 132.595C16.7301 132.522 16.9129 132.515 17.0781 132.577C17.2434 132.638 17.3777 132.763 17.4519 132.923C17.9131 133.92 18.4144 134.93 18.9491 135.847C19.0062 135.949 19.0358 136.064 19.0348 136.181C19.0338 136.298 19.0024 136.412 18.9436 136.513C18.8848 136.614 18.8008 136.697 18.6997 136.755C18.5986 136.814 18.4842 136.844 18.3676 136.845ZM15.567 130.781C15.4316 130.78 15.2996 130.738 15.1886 130.66C15.0776 130.583 14.9928 130.473 14.9454 130.346C14.5577 129.302 14.2035 128.218 13.8826 127.12C13.8585 127.035 13.8513 126.947 13.8614 126.859C13.8715 126.771 13.8987 126.687 13.9416 126.61C13.9844 126.533 14.042 126.465 14.111 126.41C14.18 126.355 14.2591 126.314 14.3438 126.29C14.4285 126.266 14.5171 126.259 14.6046 126.269C14.6921 126.279 14.7768 126.306 14.8537 126.349C14.9307 126.392 14.9985 126.45 15.0532 126.519C15.1079 126.588 15.1485 126.667 15.1726 126.752C15.4801 127.816 15.841 128.867 16.1953 129.878C16.2263 129.96 16.2407 130.048 16.2376 130.136C16.2345 130.224 16.2141 130.311 16.1774 130.391C16.1408 130.472 16.0887 130.544 16.024 130.604C15.9594 130.664 15.8836 130.71 15.8009 130.741C15.7243 130.759 15.6451 130.764 15.567 130.754V130.781ZM13.7088 124.363C13.5534 124.366 13.4016 124.315 13.2796 124.219C13.1576 124.122 13.0731 123.986 13.0404 123.834C12.8065 122.757 12.5993 121.639 12.4188 120.488C12.4052 120.4 12.409 120.31 12.4301 120.224C12.4511 120.137 12.4889 120.056 12.5413 119.984C12.5938 119.912 12.6598 119.852 12.7357 119.805C12.8116 119.759 12.8959 119.728 12.9836 119.715C13.0714 119.701 13.161 119.705 13.2473 119.726C13.3336 119.747 13.4149 119.785 13.4866 119.837C13.5583 119.89 13.6189 119.956 13.6651 120.032C13.7113 120.108 13.742 120.192 13.7556 120.28C13.9294 121.385 14.1299 122.475 14.3639 123.533C14.3825 123.619 14.384 123.708 14.3682 123.795C14.3524 123.881 14.3196 123.964 14.2718 124.038C14.224 124.112 14.162 124.176 14.0895 124.226C14.017 124.276 13.9353 124.311 13.8492 124.329L13.7088 124.363ZM12.6996 117.73C12.5333 117.731 12.3727 117.67 12.2491 117.559C12.1255 117.447 12.0478 117.294 12.0312 117.128C11.9175 116.051 11.824 114.919 11.7571 113.782C11.7568 113.611 11.8217 113.447 11.9385 113.322C12.0553 113.198 12.2152 113.123 12.3854 113.112C12.5616 113.103 12.7343 113.164 12.8658 113.282C12.9973 113.4 13.0769 113.565 13.0872 113.742C13.1541 114.873 13.2476 115.984 13.3546 117.041C13.3639 117.128 13.3558 117.217 13.3309 117.301C13.306 117.386 13.2648 117.464 13.2095 117.533C13.1543 117.601 13.0861 117.658 13.0089 117.7C12.9318 117.742 12.8471 117.768 12.7597 117.777L12.6996 117.73ZM12.352 111.038C12.1747 111.038 12.0047 110.967 11.8794 110.842C11.754 110.716 11.6836 110.546 11.6836 110.368C11.6836 109.244 11.7705 108.1 11.8841 106.975C11.8925 106.887 11.9182 106.802 11.9597 106.724C12.0013 106.646 12.0579 106.577 12.1263 106.521C12.1946 106.465 12.2734 106.423 12.358 106.397C12.4427 106.372 12.5315 106.364 12.6194 106.373C12.7067 106.382 12.7914 106.408 12.8686 106.45C12.9458 106.492 13.0139 106.549 13.0692 106.618C13.1244 106.686 13.1657 106.765 13.1906 106.849C13.2154 106.933 13.2235 107.022 13.2142 107.109C13.1006 108.2 13.0404 109.304 13.0204 110.395C13.0187 110.485 12.9991 110.573 12.9626 110.655C12.9261 110.737 12.8736 110.811 12.8082 110.872C12.7427 110.933 12.6656 110.981 12.5815 111.011C12.4974 111.042 12.408 111.056 12.3186 111.051L12.352 111.038ZM13.0204 104.385H12.9001C12.8136 104.37 12.731 104.338 12.657 104.29C12.583 104.243 12.519 104.181 12.4687 104.109C12.4184 104.037 12.3828 103.956 12.3639 103.87C12.3451 103.784 12.3433 103.695 12.3587 103.609C12.5659 102.498 12.8132 101.38 13.1073 100.263C13.1276 100.175 13.1654 100.093 13.2182 100.02C13.2711 99.9475 13.338 99.8863 13.415 99.8402C13.4919 99.794 13.5774 99.7639 13.6662 99.7515C13.7551 99.7391 13.8455 99.7448 13.9321 99.7682C14.0187 99.7916 14.0998 99.8321 14.1704 99.8875C14.241 99.9429 14.2998 100.012 14.3432 100.091C14.3866 100.169 14.4138 100.256 14.423 100.345C14.4323 100.434 14.4236 100.525 14.3973 100.611C14.1166 101.668 13.8693 102.746 13.6754 103.823C13.6539 103.989 13.5713 104.14 13.4439 104.248C13.3166 104.356 13.1536 104.412 12.987 104.405L13.0204 104.385ZM14.7048 97.9335C14.6299 97.9348 14.5553 97.9235 14.4842 97.9C14.4011 97.8708 14.3246 97.8254 14.2591 97.7665C14.1936 97.7075 14.1404 97.6362 14.1025 97.5566C14.0646 97.477 14.0428 97.3907 14.0383 97.3026C14.0339 97.2145 14.0468 97.1264 14.0765 97.0434C14.4508 95.9793 14.8785 94.9218 15.333 93.8845C15.406 93.7232 15.5398 93.5974 15.7052 93.5347C15.8705 93.4719 16.054 93.4774 16.2153 93.5498C16.2957 93.5854 16.3682 93.6364 16.4289 93.7001C16.4895 93.7637 16.537 93.8387 16.5687 93.9208C16.6003 94.0028 16.6155 94.0903 16.6134 94.1783C16.6112 94.2662 16.5918 94.3528 16.5562 94.4333C16.1084 95.4305 15.7007 96.441 15.3397 97.4918C15.2926 97.6222 15.2063 97.7348 15.0925 97.8139C14.9787 97.893 14.8433 97.9348 14.7048 97.9335ZM17.4251 91.8298C17.3132 91.8304 17.2028 91.8028 17.1043 91.7495C17.0269 91.7075 16.9586 91.6505 16.9032 91.582C16.8478 91.5134 16.8066 91.4346 16.7817 91.35C16.7569 91.2655 16.749 91.1768 16.7584 91.0891C16.7679 91.0015 16.7946 90.9166 16.8369 90.8393C17.3783 89.8488 17.9599 88.865 18.5748 87.9213C18.6714 87.7722 18.8232 87.6676 18.9968 87.6306C19.1704 87.5936 19.3516 87.6271 19.5005 87.7239C19.6494 87.8206 19.7538 87.9726 19.7908 88.1464C19.8278 88.3203 19.7943 88.5017 19.6977 88.6508C19.1028 89.5677 18.5347 90.5181 18.0133 91.4818C17.9556 91.5874 17.8705 91.6755 17.767 91.7367C17.6635 91.798 17.5454 91.8301 17.4251 91.8298ZM21.0679 86.2281C20.9202 86.2276 20.7768 86.1782 20.6602 86.0875C20.5204 85.979 20.4293 85.8195 20.4067 85.6439C20.3842 85.4683 20.4321 85.2909 20.5399 85.1505C21.2083 84.2537 21.9702 83.377 22.7255 82.5471C22.7826 82.476 22.8535 82.4173 22.9341 82.3746C23.0146 82.3319 23.103 82.3062 23.1938 82.299C23.2846 82.2918 23.376 82.3032 23.4622 82.3326C23.5484 82.3621 23.6278 82.4088 23.6953 82.47C23.7628 82.5313 23.8172 82.6057 23.8549 82.6887C23.8927 82.7717 23.9131 82.8616 23.9149 82.9528C23.9168 83.044 23.8999 83.1346 23.8655 83.2191C23.8311 83.3035 23.7798 83.38 23.7148 83.4439C22.9795 84.2537 22.271 85.1037 21.6026 85.967C21.5397 86.0489 21.4586 86.1151 21.3659 86.1604C21.2731 86.2057 21.1711 86.2288 21.0679 86.2281ZM25.5662 81.2889C25.4746 81.2886 25.384 81.2694 25.3 81.2326C25.2161 81.1957 25.1406 81.142 25.0783 81.0747C24.9538 80.9493 24.8839 80.7797 24.8839 80.6029C24.8839 80.4261 24.9538 80.2565 25.0783 80.1311C25.9071 79.3547 26.776 78.6118 27.6583 77.9158C27.7983 77.8013 27.9781 77.7472 28.1579 77.7654C28.3378 77.7836 28.5031 77.8726 28.6175 78.0128C28.7318 78.1531 28.7858 78.333 28.7676 78.5131C28.7495 78.6932 28.6606 78.8587 28.5205 78.9732C27.665 79.6425 26.8228 80.372 26.0274 81.1216C25.9004 81.2339 25.7356 81.2937 25.5662 81.2889ZM30.8065 77.1461C30.6617 77.1472 30.5206 77.1012 30.4042 77.0151C30.2878 76.929 30.2025 76.8074 30.1611 76.6686C30.1196 76.5297 30.1243 76.3812 30.1744 76.2452C30.2245 76.1093 30.3173 75.9933 30.4388 75.9147C31.3746 75.2923 32.3505 74.6966 33.3397 74.1545C33.4165 74.1119 33.5009 74.0848 33.5882 74.0748C33.6754 74.0648 33.7638 74.0722 33.8482 74.0964C33.9326 74.1206 34.0115 74.1613 34.0802 74.2161C34.1489 74.2708 34.2062 74.3386 34.2487 74.4155C34.2913 74.4924 34.3184 74.577 34.3283 74.6643C34.3383 74.7517 34.331 74.8402 34.3067 74.9247C34.2825 75.0093 34.2419 75.0882 34.1872 75.157C34.1326 75.2258 34.0649 75.2831 33.988 75.3257C33.0255 75.8545 32.0831 76.43 31.1741 77.0324C31.0653 77.1055 30.9375 77.1451 30.8065 77.1461ZM36.6483 73.9069C36.4959 73.9062 36.3483 73.8534 36.23 73.7572C36.1117 73.661 36.0298 73.5273 35.9978 73.3781C35.9658 73.2289 35.9857 73.0733 36.0542 72.937C36.1226 72.8007 36.2355 72.6919 36.3742 72.6286C37.3969 72.1601 38.4529 71.7318 39.5157 71.3503C39.5988 71.3175 39.6877 71.3017 39.777 71.3039C39.8664 71.3061 39.9544 71.3262 40.0358 71.363C40.1173 71.3999 40.1905 71.4527 40.2512 71.5183C40.3119 71.584 40.3589 71.6612 40.3893 71.7453C40.4197 71.8295 40.4329 71.9189 40.4282 72.0082C40.4235 72.0976 40.4009 72.1851 40.3618 72.2656C40.3228 72.3461 40.268 72.4179 40.2007 72.4768C40.1334 72.5357 40.0551 72.5805 39.9702 72.6085C38.9409 72.9833 37.9115 73.3983 36.9223 73.8467C36.8362 73.8859 36.7428 73.9065 36.6483 73.9069Z" fill="#F8ED41"/>
</g>
<defs>
<clipPath id="clip0_31_170">
<rect width="296" height="261" fill="white"/>
</clipPath>
</defs>
</svg>
