<svg width="100" height="100" viewBox="0 0 100 100" fill="none" xmlns="http://www.w3.org/2000/svg">
<g clip-path="url(#clip0_36_1015)">
<path d="M84.6542 18.7167C78.2792 15.8417 71.4459 13.7167 64.3 12.5084C64.2364 12.4962 64.1705 12.504 64.1116 12.5309C64.0526 12.5578 64.0034 12.6023 63.9709 12.6584C63.0959 14.1959 62.1209 16.2001 61.4375 17.7834C53.8588 16.651 46.1538 16.651 38.5751 17.7834C37.8139 16.0286 36.9557 14.3177 36.0042 12.6584C35.972 12.6016 35.9232 12.5561 35.8644 12.5278C35.8055 12.4995 35.7395 12.4898 35.675 12.5001C28.5334 13.7084 21.7 15.8334 15.3209 18.7126C15.266 18.7356 15.2195 18.7748 15.1875 18.8251C2.22088 37.8875 -1.33328 56.4792 0.412549 74.8375C0.417408 74.8825 0.431364 74.926 0.45357 74.9654C0.475776 75.0048 0.505766 75.0393 0.541716 75.0667C8.11002 80.5768 16.5515 84.7743 25.5125 87.4834C25.575 87.5026 25.6418 87.5025 25.7043 87.4832C25.7667 87.4639 25.8219 87.4262 25.8625 87.375C27.7909 84.7962 29.4996 82.0602 30.9709 79.1959C30.9913 79.1567 31.0031 79.1136 31.0054 79.0695C31.0077 79.0254 31.0005 78.9813 30.9843 78.9402C30.9681 78.8991 30.9433 78.862 30.9115 78.8314C30.8797 78.8007 30.8417 78.7772 30.8 78.7625C28.1084 77.7489 25.5004 76.5257 23 75.1042C22.9551 75.0786 22.9173 75.0422 22.8899 74.9983C22.8625 74.9544 22.8464 74.9044 22.8431 74.8528C22.8398 74.8011 22.8494 74.7495 22.8709 74.7025C22.8925 74.6555 22.9254 74.6145 22.9667 74.5834C23.4917 74.1959 24.0167 73.7917 24.5167 73.3875C24.5617 73.3512 24.6159 73.3281 24.6733 73.3207C24.7307 73.3133 24.789 73.3221 24.8417 73.3459C41.2042 80.6959 58.925 80.6959 75.0959 73.3459C75.1488 73.3206 75.2076 73.3108 75.2658 73.3174C75.324 73.3241 75.3792 73.3469 75.425 73.3834C75.925 73.7917 76.4459 74.1959 76.9751 74.5834C77.0167 74.6139 77.0502 74.6543 77.0725 74.7009C77.0947 74.7475 77.1051 74.7989 77.1026 74.8505C77.1001 74.9021 77.0849 74.9523 77.0583 74.9966C77.0316 75.0408 76.9945 75.0778 76.9501 75.1042C74.4584 76.5375 71.8667 77.75 69.1459 78.7584C69.1041 78.7735 69.066 78.7974 69.0342 78.8285C69.0024 78.8596 68.9776 78.897 68.9614 78.9385C68.9453 78.9799 68.9381 79.0242 68.9405 79.0686C68.9428 79.113 68.9546 79.1564 68.9751 79.1959C70.4751 82.0584 72.1917 84.7834 74.0792 87.3709C74.1185 87.424 74.1731 87.4637 74.2358 87.4845C74.2984 87.5054 74.366 87.5065 74.4292 87.4875C83.4057 84.786 91.8609 80.5866 99.4375 75.0667C99.4745 75.0409 99.5055 75.0074 99.5285 74.9686C99.5515 74.9298 99.566 74.8865 99.5709 74.8417C101.654 53.6167 96.0792 35.175 84.7834 18.8334C84.7557 18.7803 84.7099 18.7389 84.6542 18.7167ZM33.4167 63.6584C28.4917 63.6584 24.4292 59.2042 24.4292 53.7417C24.4292 48.275 28.4125 43.825 33.4167 43.825C38.4584 43.825 42.4834 48.3125 42.4042 53.7417C42.4042 59.2084 38.4209 63.6584 33.4167 63.6584ZM66.6459 63.6584C61.7167 63.6584 57.6584 59.2042 57.6584 53.7417C57.6584 48.275 61.6375 43.825 66.6459 43.825C71.6875 43.825 75.7125 48.3125 75.6334 53.7417C75.6334 59.2084 71.6917 63.6584 66.6459 63.6584Z" fill="#183114"/>
</g>
<defs>
<clipPath id="clip0_36_1015">
<rect width="100" height="100" fill="white"/>
</clipPath>
</defs>
</svg>
