<svg width="80" height="80" viewBox="0 0 80 80" fill="none" xmlns="http://www.w3.org/2000/svg">
<path fill-rule="evenodd" clip-rule="evenodd" d="M30.2199 3.33337C28.275 3.33382 26.4099 4.10686 25.035 5.48244C23.66 6.85802 22.8878 8.72345 22.8883 10.6684C22.8887 12.6133 23.6617 14.4784 25.0373 15.8533C26.4129 17.2283 28.2783 18.0005 30.2233 18H37.5566V10.6667C37.5548 8.72233 36.7816 6.85809 35.4067 5.48321C34.0319 4.10832 32.1676 3.33514 30.2233 3.33337H30.2199ZM30.2199 22.89H10.6666C8.72166 22.89 6.8564 23.6627 5.48114 25.0379C4.10587 26.4132 3.33325 28.2785 3.33325 30.2234C3.33325 32.1683 4.10587 34.0336 5.48114 35.4088C6.8564 36.7841 8.72166 37.5567 10.6666 37.5567H30.2199C32.1648 37.5567 34.0301 36.7841 35.4054 35.4088C36.7806 34.0336 37.5532 32.1683 37.5532 30.2234C37.5532 28.2785 36.7806 26.4132 35.4054 25.0379C34.0301 23.6627 32.1648 22.89 30.2199 22.89ZM76.6666 30.22C76.6666 28.2751 75.894 26.4099 74.5187 25.0346C73.1434 23.6593 71.2782 22.8867 69.3332 22.8867C67.3883 22.8867 65.5231 23.6593 64.1478 25.0346C62.7725 26.4099 61.9999 28.2751 61.9999 30.22V37.5534H69.3332C71.2782 37.5534 73.1434 36.7808 74.5187 35.4055C75.894 34.0302 76.6666 32.165 76.6666 30.22ZM57.1099 30.22V10.6667C57.1099 8.72179 56.3373 6.85652 54.962 5.48126C53.5868 4.10599 51.7215 3.33337 49.7766 3.33337C47.8317 3.33337 45.9664 4.10599 44.5911 5.48126C43.2159 6.85652 42.4432 8.72179 42.4432 10.6667V30.22C42.4432 32.165 43.2159 34.0302 44.5911 35.4055C45.9664 36.7808 47.8317 37.5534 49.7766 37.5534C51.7215 37.5534 53.5868 36.7808 54.962 35.4055C56.3373 34.0302 57.1099 32.165 57.1099 30.22ZM49.7766 76.6667C51.7215 76.6667 53.5868 75.8941 54.962 74.5188C56.3373 73.1435 57.1099 71.2783 57.1099 69.3334C57.1099 67.3884 56.3373 65.5232 54.962 64.1479C53.5868 62.7727 51.7215 62 49.7766 62H42.4432V69.3334C42.4441 71.278 43.217 73.1428 44.5921 74.5178C45.9672 75.8929 47.8319 76.6658 49.7766 76.6667ZM49.7766 57.1067H69.3332C71.2782 57.1067 73.1434 56.3341 74.5187 54.9588C75.894 53.5835 76.6666 51.7183 76.6666 49.7734C76.6666 47.8284 75.894 45.9632 74.5187 44.5879C73.1434 43.2127 71.2782 42.44 69.3332 42.44H49.7799C47.835 42.4396 45.9696 43.2118 44.594 44.5867C43.2184 45.9617 42.4454 47.8268 42.4449 49.7717C42.4445 51.7166 43.2167 53.5821 44.5916 54.9576C45.9666 56.3332 47.8317 57.1063 49.7766 57.1067ZM3.33325 49.7767C3.33325 51.7216 4.10587 53.5869 5.48114 54.9622C6.8564 56.3374 8.72166 57.11 10.6666 57.11C12.6115 57.11 14.4768 56.3374 15.852 54.9622C17.2273 53.5869 17.9999 51.7216 17.9999 49.7767V42.4434H10.6666C8.72166 42.4434 6.8564 43.216 5.48114 44.5913C4.10587 45.9665 3.33325 47.8318 3.33325 49.7767ZM22.8899 49.7767V69.33C22.8895 71.275 23.6617 73.1404 25.0366 74.516C26.4116 75.8916 28.2767 76.6646 30.2216 76.665C32.1665 76.6655 34.0319 75.8933 35.4075 74.5183C36.7831 73.1434 37.5561 71.2783 37.5566 69.3334V49.78C37.557 47.8351 36.7848 45.9697 35.4099 44.5941C34.0349 43.2185 32.1698 42.4455 30.2249 42.445C28.28 42.4446 26.4146 43.2168 25.039 44.5917C23.6634 45.9667 22.8904 47.8318 22.8899 49.7767Z" fill="#DCDE9F"/>
</svg>
