<svg width="101" height="68" viewBox="0 0 101 68" fill="none" xmlns="http://www.w3.org/2000/svg">
<path d="M97.9165 11.1125C97.3503 9.09262 96.2473 7.26393 94.7249 5.82083C93.1594 4.33334 91.2407 3.26931 89.1499 2.72916C81.3249 0.666658 49.9749 0.666658 49.9749 0.666658C36.9054 0.517961 23.8392 1.17197 10.8499 2.62499C8.75901 3.20505 6.8439 4.29285 5.27489 5.79166C3.73322 7.27499 2.61655 9.10416 2.03322 11.1083C0.63194 18.6573 -0.0488972 26.3223 -0.000113951 34C-0.0501139 41.6708 0.629053 49.3333 2.03322 56.8917C2.60405 58.8875 3.71655 60.7083 5.26239 62.1792C6.80822 63.65 8.73322 64.7125 10.8499 65.275C18.7791 67.3333 49.9749 67.3333 49.9749 67.3333C63.061 67.4822 76.1439 66.8282 89.1499 65.375C91.2407 64.8349 93.1594 63.7708 94.7249 62.2833C96.2468 60.8405 97.3485 59.0116 97.9124 56.9917C99.3502 49.4456 100.049 41.7775 99.9999 34.0958C100.108 26.3817 99.4098 18.6773 97.9165 11.1083V11.1125ZM40.0082 48.2667V19.7375L66.0915 34.0042L40.0082 48.2667Z" fill="#183114"/>
</svg>
