<svg width="80" height="80" viewBox="0 0 80 80" fill="none" xmlns="http://www.w3.org/2000/svg">
<g clip-path="url(#clip0_31_571)">
<path d="M67.7232 14.9733C62.6232 12.6733 57.1566 10.9733 51.4399 10.0067C51.389 9.99689 51.3363 10.0032 51.2891 10.0247C51.2419 10.0462 51.2026 10.0818 51.1766 10.1267C50.4766 11.3567 49.6966 12.96 49.1499 14.2267C43.0869 13.3208 36.9229 13.3208 30.8599 14.2267C30.251 12.8229 29.5644 11.4541 28.8032 10.1267C28.7774 10.0813 28.7384 10.0448 28.6913 10.0222C28.6443 9.99956 28.5915 9.99182 28.5399 9.99999C22.8266 10.9667 17.3599 12.6667 12.2566 14.97C12.2127 14.9884 12.1754 15.0198 12.1499 15.06C1.77656 30.31 -1.06677 45.1833 0.329893 59.87C0.33378 59.906 0.344945 59.9408 0.36271 59.9723C0.380474 60.0038 0.404467 60.0314 0.433226 60.0533C6.48787 64.4614 13.241 67.8194 20.4099 69.9866C20.4599 70.002 20.5133 70.002 20.5633 69.9865C20.6132 69.9711 20.6573 69.9409 20.6899 69.9C22.2325 67.8369 23.5996 65.6481 24.7766 63.3566C24.7929 63.3253 24.8023 63.2908 24.8042 63.2556C24.806 63.2203 24.8003 63.185 24.7873 63.1521C24.7744 63.1193 24.7545 63.0896 24.7291 63.065C24.7036 63.0405 24.6732 63.0217 24.6399 63.01C22.4866 62.1991 20.4002 61.2205 18.3999 60.0833C18.364 60.0628 18.3337 60.0337 18.3118 59.9986C18.2898 59.9635 18.277 59.9235 18.2743 59.8822C18.2717 59.8409 18.2793 59.7996 18.2966 59.7619C18.3139 59.7243 18.3402 59.6916 18.3732 59.6666C18.7932 59.3566 19.2132 59.0333 19.6132 58.71C19.6492 58.6809 19.6926 58.6624 19.7385 58.6565C19.7844 58.6506 19.8311 58.6576 19.8732 58.6767C32.9632 64.5566 47.1399 64.5566 60.0766 58.6767C60.1189 58.6565 60.166 58.6486 60.2125 58.6539C60.2591 58.6592 60.3032 58.6775 60.3399 58.7066C60.7399 59.0333 61.1566 59.3566 61.5799 59.6666C61.6132 59.6911 61.64 59.7234 61.6578 59.7607C61.6756 59.7979 61.6839 59.8391 61.6819 59.8804C61.68 59.9216 61.6678 59.9618 61.6465 59.9972C61.6252 60.0326 61.5954 60.0622 61.5599 60.0833C59.5666 61.23 57.4932 62.2 55.3166 63.0066C55.2831 63.0188 55.2527 63.0379 55.2272 63.0627C55.2018 63.0876 55.1819 63.1176 55.169 63.1507C55.1561 63.1838 55.1503 63.2193 55.1522 63.2549C55.1541 63.2904 55.1635 63.3251 55.1799 63.3566C56.3799 65.6466 57.7532 67.8266 59.2632 69.8966C59.2946 69.9391 59.3384 69.9709 59.3885 69.9876C59.4386 70.0043 59.4926 70.0051 59.5432 69.99C66.7244 67.8288 73.4886 64.4692 79.5499 60.0533C79.5795 60.0326 79.6043 60.0059 79.6227 59.9748C79.6411 59.9438 79.6526 59.9092 79.6566 59.8733C81.3232 42.8933 76.8632 28.14 67.8266 15.0667C67.8044 15.0242 67.7677 14.9911 67.7232 14.9733ZM26.7332 50.9266C22.7932 50.9266 19.5432 47.3633 19.5432 42.9933C19.5432 38.62 22.7299 35.06 26.7332 35.06C30.7666 35.06 33.9866 38.65 33.9232 42.9933C33.9232 47.3666 30.7366 50.9266 26.7332 50.9266ZM53.3166 50.9266C49.3732 50.9266 46.1266 47.3633 46.1266 42.9933C46.1266 38.62 49.3099 35.06 53.3166 35.06C57.3499 35.06 60.5699 38.65 60.5066 42.9933C60.5066 47.3666 57.3532 50.9266 53.3166 50.9266Z" fill="#DCDE9F"/>
</g>
<defs>
<clipPath id="clip0_31_571">
<rect width="80" height="80" fill="white"/>
</clipPath>
</defs>
</svg>
