<svg width="80" height="80" viewBox="0 0 80 80" fill="none" xmlns="http://www.w3.org/2000/svg">
<path fill-rule="evenodd" clip-rule="evenodd" d="M3.3335 9.46005C3.3335 7.83516 3.97898 6.27681 5.12796 5.12784C6.27693 3.97887 7.83527 3.33338 9.46016 3.33338H70.5335C71.3387 3.33207 72.1363 3.48959 72.8806 3.79694C73.6249 4.10428 74.3013 4.55541 74.871 5.1245C75.4407 5.69359 75.8926 6.36946 76.2007 7.11342C76.5089 7.85737 76.6673 8.6548 76.6668 9.46005V70.5334C76.6677 71.3388 76.5098 72.1365 76.2021 72.8808C75.8944 73.6251 75.4429 74.3014 74.8736 74.8711C74.3042 75.4407 73.6281 75.8926 72.884 76.2007C72.1398 76.5088 71.3422 76.6672 70.5368 76.6667H9.46016C8.65532 76.6667 7.85836 76.5081 7.11482 76.2C6.37128 75.8919 5.69573 75.4403 5.12678 74.8711C4.55782 74.3018 4.1066 73.626 3.7989 72.8823C3.49121 72.1386 3.33306 71.3416 3.3335 70.5367V9.46005ZM32.3602 31.2934H42.2902V36.28C43.7235 33.4134 47.3902 30.8334 52.9002 30.8334C63.4635 30.8334 65.9668 36.5434 65.9668 47.0201V66.4267H55.2768V49.4067C55.2768 43.44 53.8435 40.0734 50.2035 40.0734C45.1535 40.0734 43.0535 43.7034 43.0535 49.4067V66.4267H32.3602V31.2934ZM14.0268 65.97H24.7202V30.8334H14.0268V65.9667V65.97ZM26.2502 19.3734C26.2703 20.289 26.1074 21.1993 25.771 22.0511C25.4345 22.9029 24.9313 23.6788 24.2909 24.3335C23.6505 24.9881 22.8858 25.5083 22.0417 25.8634C21.1975 26.2185 20.291 26.4014 19.3752 26.4014C18.4594 26.4014 17.5528 26.2185 16.7086 25.8634C15.8645 25.5083 15.0998 24.9881 14.4594 24.3335C13.819 23.6788 13.3158 22.9029 12.9794 22.0511C12.6429 21.1993 12.48 20.289 12.5002 19.3734C12.5397 17.5762 13.2814 15.866 14.5664 14.609C15.8515 13.352 17.5776 12.6481 19.3752 12.6481C21.1728 12.6481 22.8989 13.352 24.1839 14.609C25.4689 15.866 26.2106 17.5762 26.2502 19.3734Z" fill="#DCDE9F"/>
</svg>
