<svg width="100" height="100" viewBox="0 0 100 100" fill="none" xmlns="http://www.w3.org/2000/svg">
<path fill-rule="evenodd" clip-rule="evenodd" d="M37.7751 4.16663C35.3439 4.16718 33.0126 5.13348 31.2939 6.85295C29.5752 8.57243 28.6099 10.9042 28.6105 13.3354C28.611 15.7665 29.5773 18.0979 31.2968 19.8166C33.0163 21.5353 35.3481 22.5005 37.7792 22.5H46.9459V13.3333C46.9437 10.9028 45.9772 8.57252 44.2586 6.85392C42.54 5.13531 40.2097 4.16883 37.7792 4.16663H37.7751ZM37.7751 28.6125H13.3334C10.9023 28.6125 8.57069 29.5782 6.8516 31.2973C5.13252 33.0164 4.16675 35.348 4.16675 37.7791C4.16675 40.2103 5.13252 42.5418 6.8516 44.2609C8.57069 45.98 10.9023 46.9458 13.3334 46.9458H37.7751C40.2062 46.9458 42.5378 45.98 44.2569 44.2609C45.976 42.5418 46.9417 40.2103 46.9417 37.7791C46.9417 35.348 45.976 33.0164 44.2569 31.2973C42.5378 29.5782 40.2062 28.6125 37.7751 28.6125ZM95.8334 37.775C95.8334 35.3438 94.8676 33.0122 93.1485 31.2931C91.4295 29.5741 89.0979 28.6083 86.6667 28.6083C84.2356 28.6083 81.904 29.5741 80.1849 31.2931C78.4658 33.0122 77.5001 35.3438 77.5001 37.775V46.9416H86.6667C89.0979 46.9416 91.4295 45.9758 93.1485 44.2568C94.8676 42.5377 95.8334 40.2061 95.8334 37.775ZM71.3876 37.775V13.3333C71.3876 10.9021 70.4218 8.57056 68.7027 6.85148C66.9836 5.1324 64.6521 4.16663 62.2209 4.16663C59.7898 4.16663 57.4582 5.1324 55.7391 6.85148C54.02 8.57056 53.0542 10.9021 53.0542 13.3333V37.775C53.0542 40.2061 54.02 42.5377 55.7391 44.2568C57.4582 45.9758 59.7898 46.9416 62.2209 46.9416C64.6521 46.9416 66.9836 45.9758 68.7027 44.2568C70.4218 42.5377 71.3876 40.2061 71.3876 37.775ZM62.2209 95.8333C64.6521 95.8333 66.9836 94.8675 68.7027 93.1484C70.4218 91.4293 71.3876 89.0978 71.3876 86.6666C71.3876 84.2355 70.4218 81.9039 68.7027 80.1848C66.9836 78.4657 64.6521 77.4999 62.2209 77.4999H53.0542V86.6666C53.0553 89.0974 54.0215 91.4284 55.7403 93.1472C57.4592 94.8661 59.7901 95.8322 62.2209 95.8333ZM62.2209 71.3833H86.6667C89.0979 71.3833 91.4295 70.4175 93.1485 68.6984C94.8676 66.9793 95.8334 64.6478 95.8334 62.2166C95.8334 59.7855 94.8676 57.4539 93.1485 55.7348C91.4295 54.0157 89.0979 53.05 86.6667 53.05H62.2251C59.7939 53.0494 57.4621 54.0146 55.7427 55.7333C54.0232 57.452 53.0569 59.7834 53.0563 62.2145C53.0558 64.6457 54.021 66.9775 55.7397 68.697C57.4584 70.4164 59.7898 71.3827 62.2209 71.3833ZM4.16675 62.2208C4.16675 64.6519 5.13252 66.9835 6.8516 68.7026C8.57069 70.4217 10.9023 71.3874 13.3334 71.3874C15.7646 71.3874 18.0961 70.4217 19.8152 68.7026C21.5343 66.9835 22.5001 64.6519 22.5001 62.2208V53.0541H13.3334C10.9023 53.0541 8.57069 54.0199 6.8516 55.739C5.13252 57.4581 4.16675 59.7896 4.16675 62.2208ZM28.6126 62.2208V86.6624C28.612 89.0936 29.5773 91.4254 31.296 93.1449C33.0147 94.8643 35.346 95.8306 37.7772 95.8312C40.2083 95.8317 42.5401 94.8665 44.2596 93.1478C45.9791 91.4291 46.9454 89.0978 46.9459 86.6666V62.2249C46.9465 59.7938 45.9812 57.462 44.2625 55.7425C42.5438 54.0231 40.2125 53.0568 37.7813 53.0562C35.3502 53.0556 33.0184 54.0209 31.2989 55.7396C29.5794 57.4583 28.6131 59.7896 28.6126 62.2208Z" fill="#183114"/>
</svg>
