<svg width="80" height="80" viewBox="0 0 80 80" fill="none" xmlns="http://www.w3.org/2000/svg">
<g clip-path="url(#clip0_31_565)">
<path d="M78.3334 21.69C77.8804 20.0741 76.9981 18.6111 75.7801 17.4566C74.5277 16.2666 72.9928 15.4154 71.3201 14.9833C65.0601 13.3333 39.9801 13.3333 39.9801 13.3333C29.5245 13.2143 19.0715 13.7376 8.6801 14.9C7.0074 15.364 5.47531 16.2343 4.2201 17.4333C2.98677 18.62 2.09344 20.0833 1.62677 21.6866C0.505747 27.7258 -0.0389224 33.8578 0.000104152 40C-0.0398958 46.1366 0.503437 52.2666 1.62677 58.3133C2.08344 59.91 2.97344 61.3666 4.2101 62.5433C5.44677 63.72 6.98677 64.57 8.6801 65.02C15.0234 66.6666 39.9801 66.6666 39.9801 66.6666C50.449 66.7858 60.9153 66.2626 71.3201 65.1C72.9928 64.6679 74.5277 63.8166 75.7801 62.6266C76.9976 61.4724 77.879 60.0092 78.3301 58.3933C79.4804 52.3565 80.0397 46.2219 80.0001 40.0766C80.0866 33.9053 79.528 27.7419 78.3334 21.6866V21.69ZM32.0068 51.4133V28.59L52.8734 40.0033L32.0068 51.4133Z" fill="#DCDE9F"/>
</g>
<defs>
<clipPath id="clip0_31_565">
<rect width="80" height="80" fill="white"/>
</clipPath>
</defs>
</svg>
