<svg width="80" height="80" viewBox="0 0 80 80" fill="none" xmlns="http://www.w3.org/2000/svg">
<path d="M78.8102 16.4567C76.0269 17.6901 73.0369 18.5234 69.8935 18.9001C73.1369 16.9594 75.5633 13.9049 76.7202 10.3067C73.673 12.1167 70.338 13.3907 66.8602 14.0734C64.5215 11.5763 61.4237 9.92114 58.048 9.36497C54.6722 8.80879 51.2072 9.38269 48.191 10.9976C45.1748 12.6124 42.7761 15.1779 41.3674 18.2957C39.9586 21.4135 39.6187 24.9092 40.4002 28.24C34.2258 27.93 28.1856 26.3252 22.6716 23.5297C17.1576 20.7343 12.293 16.8106 8.39353 12.0134C7.0602 14.3134 6.29354 16.9801 6.29354 19.8201C6.29205 22.3767 6.92164 24.8942 8.12646 27.1492C9.33128 29.4041 11.0741 31.3268 13.2002 32.7467C10.7345 32.6683 8.32311 32.002 6.16687 30.8034V31.0034C6.16662 34.5892 7.40698 38.0646 9.67748 40.84C11.948 43.6154 15.1088 45.5198 18.6235 46.23C16.3361 46.8491 13.938 46.9403 11.6102 46.4967C12.6019 49.5821 14.5335 52.2801 17.1348 54.2131C19.736 56.1461 22.8766 57.2173 26.1169 57.2767C20.6163 61.5947 13.8232 63.937 6.8302 63.9267C5.59147 63.927 4.35379 63.8547 3.12354 63.71C10.2218 68.274 18.4847 70.6961 26.9235 70.6867C55.4902 70.6867 71.1069 47.0267 71.1069 26.5067C71.1069 25.84 71.0902 25.1667 71.0602 24.5C74.0978 22.3033 76.7199 19.583 78.8035 16.4667L78.8102 16.4567Z" fill="#DCDE9F"/>
</svg>
