<svg width="100" height="100" viewBox="0 0 100 100" fill="none" xmlns="http://www.w3.org/2000/svg">
<path fill-rule="evenodd" clip-rule="evenodd" d="M4.16663 11.825C4.16663 9.79385 4.97348 7.84593 6.4097 6.40971C7.84592 4.97349 9.79385 4.16664 11.825 4.16664H88.1666C89.1732 4.16499 90.1702 4.3619 91.1006 4.74608C92.0309 5.13026 92.8764 5.69418 93.5885 6.40554C94.3006 7.1169 94.8655 7.96173 95.2507 8.89168C95.6359 9.82162 95.8339 10.8184 95.8333 11.825V88.1666C95.8344 89.1734 95.637 90.1705 95.2523 91.1009C94.8677 92.0313 94.3034 92.8767 93.5917 93.5888C92.88 94.3008 92.0349 94.8656 91.1047 95.2508C90.1746 95.6359 89.1776 95.8339 88.1708 95.8333H11.825C10.8189 95.8333 9.8227 95.6351 8.89328 95.25C7.96386 94.8648 7.11942 94.3003 6.40823 93.5888C5.69703 92.8772 5.13301 92.0324 4.74839 91.1028C4.36376 90.1732 4.16608 89.1769 4.16663 88.1708V11.825ZM40.45 39.1166H52.8625V45.35C54.6541 41.7666 59.2375 38.5416 66.125 38.5416C79.3291 38.5416 82.4583 45.6791 82.4583 58.775V83.0333H69.0958V61.7583C69.0958 54.3 67.3041 50.0916 62.7541 50.0916C56.4416 50.0916 53.8166 54.6291 53.8166 61.7583V83.0333H40.45V39.1166ZM17.5333 82.4625H30.9V38.5416H17.5333V82.4583V82.4625ZM32.8125 24.2166C32.8377 25.3611 32.634 26.4991 32.2135 27.5638C31.7929 28.6285 31.1639 29.5985 30.3634 30.4168C29.5629 31.2351 28.607 31.8853 27.5519 32.3292C26.4967 32.7731 25.3635 33.0017 24.2187 33.0017C23.074 33.0017 21.9408 32.7731 20.8856 32.3292C19.8304 31.8853 18.8745 31.2351 18.074 30.4168C17.2735 29.5985 16.6445 28.6285 16.224 27.5638C15.8034 26.4991 15.5998 25.3611 15.625 24.2166C15.6744 21.9702 16.6016 19.8324 18.2078 18.2612C19.8141 16.6899 21.9717 15.81 24.2187 15.81C26.4657 15.81 28.6234 16.6899 30.2296 18.2612C31.8359 19.8324 32.763 21.9702 32.8125 24.2166Z" fill="#183114"/>
</svg>
