<svg width="80" height="80" viewBox="0 0 80 80" fill="none" xmlns="http://www.w3.org/2000/svg">
<path fill-rule="evenodd" clip-rule="evenodd" d="M24.8835 3.55337C28.7935 3.37337 30.0402 3.33337 40.0002 3.33337C49.9602 3.33337 51.2068 3.37671 55.1135 3.55337C59.0202 3.73004 61.6868 4.35337 64.0202 5.25671C66.4635 6.18004 68.6802 7.62337 70.5135 9.49004C72.3802 11.32 73.8202 13.5334 74.7402 15.98C75.6468 18.3134 76.2668 20.98 76.4468 24.88C76.6268 28.7967 76.6668 30.0434 76.6668 40C76.6668 49.96 76.6235 51.2067 76.4468 55.1167C76.2702 59.0167 75.6468 61.6834 74.7402 64.0167C73.8201 66.4637 72.3778 68.6807 70.5135 70.5134C68.6802 72.38 66.4635 73.82 64.0202 74.74C61.6868 75.6467 59.0202 76.2667 55.1202 76.4467C51.2068 76.6267 49.9602 76.6667 40.0002 76.6667C30.0402 76.6667 28.7935 76.6234 24.8835 76.4467C20.9835 76.27 18.3168 75.6467 15.9835 74.74C13.5366 73.8199 11.3196 72.3775 9.48683 70.5134C7.62143 68.6823 6.17788 66.4663 5.25683 64.02C4.3535 61.6867 3.7335 59.02 3.5535 55.12C3.3735 51.2034 3.3335 49.9567 3.3335 40C3.3335 30.04 3.37683 28.7934 3.5535 24.8867C3.73016 20.98 4.3535 18.3134 5.25683 15.98C6.17924 13.5336 7.62389 11.3178 9.49016 9.48671C11.3203 7.62171 13.5351 6.17819 15.9802 5.25671C18.3135 4.35337 20.9802 3.73337 24.8802 3.55337H24.8835ZM54.8168 10.1534C50.9502 9.97671 49.7902 9.94004 40.0002 9.94004C30.2102 9.94004 29.0502 9.97671 25.1835 10.1534C21.6068 10.3167 19.6668 10.9134 18.3735 11.4167C16.6635 12.0834 15.4402 12.8734 14.1568 14.1567C12.9403 15.3402 12.0041 16.781 11.4168 18.3734C10.9135 19.6667 10.3168 21.6067 10.1535 25.1834C9.97683 29.05 9.94016 30.21 9.94016 40C9.94016 49.79 9.97683 50.95 10.1535 54.8167C10.3168 58.3934 10.9135 60.3334 11.4168 61.6267C12.0035 63.2167 12.9402 64.66 14.1568 65.8434C15.3402 67.06 16.7835 67.9967 18.3735 68.5834C19.6668 69.0867 21.6068 69.6834 25.1835 69.8467C29.0502 70.0234 30.2068 70.06 40.0002 70.06C49.7935 70.06 50.9502 70.0234 54.8168 69.8467C58.3935 69.6834 60.3335 69.0867 61.6268 68.5834C63.3368 67.9167 64.5602 67.1267 65.8435 65.8434C67.0602 64.66 67.9968 63.2167 68.5835 61.6267C69.0868 60.3334 69.6835 58.3934 69.8468 54.8167C70.0235 50.95 70.0602 49.79 70.0602 40C70.0602 30.21 70.0235 29.05 69.8468 25.1834C69.6835 21.6067 69.0868 19.6667 68.5835 18.3734C67.9168 16.6634 67.1268 15.44 65.8435 14.1567C64.6599 12.9403 63.2192 12.0041 61.6268 11.4167C60.3335 10.9134 58.3935 10.3167 54.8168 10.1534ZM35.3168 51.3034C37.9324 52.3921 40.8448 52.5391 43.5566 51.7191C46.2684 50.8991 48.6115 49.1631 50.1855 46.8075C51.7596 44.4519 52.467 41.6229 52.187 38.8037C51.907 35.9845 50.6568 33.3499 48.6502 31.35C47.3709 30.0716 45.8242 29.0927 44.1213 28.4839C42.4183 27.875 40.6016 27.6512 38.8018 27.8288C37.002 28.0063 35.264 28.5806 33.7128 29.5105C32.1617 30.4403 30.836 31.7025 29.8312 33.2062C28.8264 34.7099 28.1675 36.4177 27.9019 38.2066C27.6363 39.9955 27.7707 41.821 28.2953 43.5518C28.8199 45.2825 29.7218 46.8754 30.9359 48.2158C32.15 49.5561 33.6462 50.6106 35.3168 51.3034ZM26.6735 26.6734C28.4236 24.9233 30.5012 23.535 32.7878 22.5879C35.0744 21.6408 37.5252 21.1533 40.0002 21.1533C42.4752 21.1533 44.9259 21.6408 47.2125 22.5879C49.4991 23.535 51.5767 24.9233 53.3268 26.6734C55.0769 28.4235 56.4651 30.5011 57.4123 32.7877C58.3594 35.0743 58.8469 37.525 58.8469 40C58.8469 42.475 58.3594 44.9258 57.4123 47.2124C56.4651 49.499 55.0769 51.5766 53.3268 53.3267C49.7924 56.8612 44.9986 58.8468 40.0002 58.8468C35.0017 58.8468 30.2079 56.8612 26.6735 53.3267C23.139 49.7923 21.1534 44.9985 21.1534 40C21.1534 35.0016 23.139 30.2078 26.6735 26.6734ZM63.0268 23.96C63.4605 23.5509 63.8077 23.059 64.0478 22.5133C64.288 21.9676 64.4162 21.3793 64.4249 20.7831C64.4336 20.187 64.3226 19.5952 64.0984 19.0427C63.8743 18.4903 63.5416 17.9884 63.12 17.5668C62.6985 17.1453 62.1966 16.8126 61.6441 16.5884C61.0917 16.3643 60.4999 16.2533 59.9037 16.262C59.3076 16.2707 58.7193 16.3989 58.1736 16.639C57.6279 16.8792 57.1359 17.2264 56.7268 17.66C55.9312 18.5035 55.4956 19.6238 55.5125 20.7831C55.5294 21.9425 55.9975 23.0496 56.8173 23.8695C57.6372 24.6894 58.7444 25.1575 59.9037 25.1744C61.0631 25.1913 62.1834 24.7557 63.0268 23.96Z" fill="#DCDE9F"/>
</svg>
