<svg width="80" height="80" viewBox="0 0 80 80" fill="none" xmlns="http://www.w3.org/2000/svg">
<path fill-rule="evenodd" clip-rule="evenodd" d="M3.33325 9.46005C3.33325 7.83516 3.97874 6.27681 5.12771 5.12784C6.27668 3.97887 7.83503 3.33338 9.45992 3.33338H70.5333C71.3385 3.33207 72.1361 3.48959 72.8804 3.79694C73.6247 4.10428 74.301 4.55541 74.8708 5.1245C75.4405 5.69359 75.8923 6.36946 76.2005 7.11342C76.5086 7.85737 76.667 8.6548 76.6666 9.46005V70.5334C76.6675 71.3388 76.5095 72.1365 76.2018 72.8808C75.8941 73.6251 75.4427 74.3014 74.8733 74.8711C74.304 75.4407 73.6279 75.8926 72.8837 76.2007C72.1396 76.5088 71.342 76.6672 70.5366 76.6667H9.45992C8.65507 76.6667 7.85811 76.5081 7.11458 76.2C6.37104 75.8919 5.69549 75.4403 5.12653 74.8711C4.55758 74.3018 4.10636 73.626 3.79866 72.8823C3.49096 72.1386 3.33281 71.3416 3.33325 70.5367V9.46005ZM32.3599 31.2934H42.2899V36.28C43.7233 33.4134 47.3899 30.8334 52.8999 30.8334C63.4633 30.8334 65.9666 36.5434 65.9666 47.0201V66.4267H55.2766V49.4067C55.2766 43.44 53.8433 40.0734 50.2033 40.0734C45.1533 40.0734 43.0533 43.7034 43.0533 49.4067V66.4267H32.3599V31.2934ZM14.0266 65.97H24.7199V30.8334H14.0266V65.9667V65.97ZM26.2499 19.3734C26.2701 20.289 26.1072 21.1993 25.7707 22.0511C25.4343 22.9029 24.9311 23.6788 24.2907 24.3335C23.6503 24.9881 22.8856 25.5083 22.0414 25.8634C21.1973 26.2185 20.2907 26.4014 19.3749 26.4014C18.4591 26.4014 17.5525 26.2185 16.7084 25.8634C15.8643 25.5083 15.0995 24.9881 14.4591 24.3335C13.8187 23.6788 13.3156 22.9029 12.9791 22.0511C12.6427 21.1993 12.4798 20.289 12.4999 19.3734C12.5395 17.5762 13.2812 15.866 14.5662 14.609C15.8512 13.352 17.5773 12.6481 19.3749 12.6481C21.1725 12.6481 22.8986 13.352 24.1836 14.609C25.4686 15.866 26.2103 17.5762 26.2499 19.3734Z" fill="#DCDE9F"/>
</svg>
