<svg width="80" height="80" viewBox="0 0 80 80" fill="none" xmlns="http://www.w3.org/2000/svg">
<path fill-rule="evenodd" clip-rule="evenodd" d="M24.8833 3.55337C28.7932 3.37337 30.0399 3.33337 39.9999 3.33337C49.9599 3.33337 51.2066 3.37671 55.1132 3.55337C59.0199 3.73004 61.6866 4.35337 64.0199 5.25671C66.4632 6.18004 68.6799 7.62337 70.5132 9.49004C72.3799 11.32 73.8199 13.5334 74.7399 15.98C75.6466 18.3134 76.2666 20.98 76.4466 24.88C76.6266 28.7967 76.6666 30.0434 76.6666 40C76.6666 49.96 76.6232 51.2067 76.4466 55.1167C76.2699 59.0167 75.6466 61.6834 74.7399 64.0167C73.8199 66.4637 72.3775 68.6807 70.5132 70.5134C68.6799 72.38 66.4632 73.82 64.0199 74.74C61.6866 75.6467 59.0199 76.2667 55.1199 76.4467C51.2066 76.6267 49.9599 76.6667 39.9999 76.6667C30.0399 76.6667 28.7932 76.6234 24.8833 76.4467C20.9833 76.27 18.3166 75.6467 15.9833 74.74C13.5363 73.8199 11.3193 72.3775 9.48658 70.5134C7.62118 68.6823 6.17763 66.4663 5.25659 64.02C4.35325 61.6867 3.73325 59.02 3.55325 55.12C3.37325 51.2034 3.33325 49.9567 3.33325 40C3.33325 30.04 3.37659 28.7934 3.55325 24.8867C3.72992 20.98 4.35325 18.3134 5.25659 15.98C6.17899 13.5336 7.62365 11.3178 9.48992 9.48671C11.3201 7.62171 13.5348 6.17819 15.9799 5.25671C18.3133 4.35337 20.9799 3.73337 24.8799 3.55337H24.8833ZM54.8166 10.1534C50.9499 9.97671 49.7899 9.94004 39.9999 9.94004C30.2099 9.94004 29.0499 9.97671 25.1832 10.1534C21.6066 10.3167 19.6666 10.9134 18.3733 11.4167C16.6633 12.0834 15.4399 12.8734 14.1566 14.1567C12.9401 15.3402 12.0039 16.781 11.4166 18.3734C10.9133 19.6667 10.3166 21.6067 10.1533 25.1834C9.97658 29.05 9.93992 30.21 9.93992 40C9.93992 49.79 9.97658 50.95 10.1533 54.8167C10.3166 58.3934 10.9133 60.3334 11.4166 61.6267C12.0033 63.2167 12.9399 64.66 14.1566 65.8434C15.3399 67.06 16.7833 67.9967 18.3733 68.5834C19.6666 69.0867 21.6066 69.6834 25.1832 69.8467C29.0499 70.0234 30.2066 70.06 39.9999 70.06C49.7932 70.06 50.9499 70.0234 54.8166 69.8467C58.3932 69.6834 60.3332 69.0867 61.6266 68.5834C63.3366 67.9167 64.5599 67.1267 65.8432 65.8434C67.0599 64.66 67.9966 63.2167 68.5833 61.6267C69.0866 60.3334 69.6833 58.3934 69.8466 54.8167C70.0232 50.95 70.0599 49.79 70.0599 40C70.0599 30.21 70.0232 29.05 69.8466 25.1834C69.6833 21.6067 69.0866 19.6667 68.5833 18.3734C67.9166 16.6634 67.1266 15.44 65.8432 14.1567C64.6597 12.9403 63.2189 12.0041 61.6266 11.4167C60.3332 10.9134 58.3932 10.3167 54.8166 10.1534ZM35.3166 51.3034C37.9321 52.3921 40.8445 52.5391 43.5563 51.7191C46.2682 50.8991 48.6112 49.1631 50.1853 46.8075C51.7593 44.4519 52.4668 41.6229 52.1867 38.8037C51.9067 35.9845 50.6566 33.3499 48.6499 31.35C47.3707 30.0716 45.824 29.0927 44.121 28.4839C42.4181 27.875 40.6013 27.6512 38.8016 27.8288C37.0018 28.0063 35.2638 28.5806 33.7126 29.5105C32.1614 30.4403 30.8357 31.7025 29.8309 33.2062C28.8261 34.7099 28.1672 36.4177 27.9016 38.2066C27.6361 39.9955 27.7704 41.821 28.295 43.5518C28.8197 45.2825 29.7215 46.8754 30.9357 48.2158C32.1498 49.5561 33.646 50.6106 35.3166 51.3034ZM26.6732 26.6734C28.4233 24.9233 30.501 23.535 32.7876 22.5879C35.0742 21.6408 37.5249 21.1533 39.9999 21.1533C42.4749 21.1533 44.9257 21.6408 47.2123 22.5879C49.4988 23.535 51.5765 24.9233 53.3266 26.6734C55.0767 28.4235 56.4649 30.5011 57.412 32.7877C58.3592 35.0743 58.8467 37.525 58.8467 40C58.8467 42.475 58.3592 44.9258 57.412 47.2124C56.4649 49.499 55.0767 51.5766 53.3266 53.3267C49.7921 56.8612 44.9984 58.8468 39.9999 58.8468C35.0014 58.8468 30.2077 56.8612 26.6732 53.3267C23.1388 49.7923 21.1532 44.9985 21.1532 40C21.1532 35.0016 23.1388 30.2078 26.6732 26.6734ZM63.0266 23.96C63.4603 23.5509 63.8074 23.059 64.0476 22.5133C64.2877 21.9676 64.4159 21.3793 64.4246 20.7831C64.4333 20.187 64.3223 19.5952 64.0982 19.0427C63.8741 18.4903 63.5414 17.9884 63.1198 17.5668C62.6982 17.1453 62.1963 16.8126 61.6439 16.5884C61.0914 16.3643 60.4996 16.2533 59.9035 16.262C59.3074 16.2707 58.719 16.3989 58.1733 16.639C57.6276 16.8792 57.1357 17.2264 56.7266 17.66C55.9309 18.5035 55.4953 19.6238 55.5123 20.7831C55.5292 21.9425 55.9972 23.0496 56.8171 23.8695C57.637 24.6894 58.7441 25.1575 59.9035 25.1744C61.0628 25.1913 62.1832 24.7557 63.0266 23.96Z" fill="#DCDE9F"/>
</svg>
