<svg width="60" height="60" viewBox="0 0 60 60" fill="none" xmlns="http://www.w3.org/2000/svg">
<g clip-path="url(#clip0_36_1112)">
<path d="M50.7927 11.23C46.9677 9.50499 42.8677 8.22999 38.5802 7.505C38.542 7.49766 38.5025 7.50239 38.4671 7.51851C38.4317 7.53464 38.4023 7.56137 38.3827 7.595C37.8577 8.51749 37.2727 9.71999 36.8627 10.67C32.3155 9.99059 27.6925 9.99059 23.1452 10.67C22.6886 9.61715 22.1736 8.59056 21.6027 7.595C21.5834 7.56095 21.5541 7.53362 21.5188 7.51665C21.4835 7.49967 21.4439 7.49386 21.4052 7.49999C17.1202 8.22499 13.0202 9.49999 9.19273 11.2275C9.1598 11.2413 9.13188 11.2649 9.11273 11.295C1.33273 22.7325 -0.799775 33.8875 0.247725 44.9025C0.25064 44.9295 0.259014 44.9556 0.272337 44.9792C0.285661 45.0028 0.303655 45.0235 0.325225 45.04C4.86621 48.346 9.93107 50.8645 15.3077 52.49C15.3452 52.5015 15.3853 52.5015 15.4228 52.4899C15.4602 52.4783 15.4933 52.4557 15.5177 52.425C16.6747 50.8777 17.7 49.2361 18.5827 47.5175C18.595 47.494 18.602 47.4681 18.6034 47.4417C18.6048 47.4152 18.6005 47.3888 18.5908 47.3641C18.5811 47.3394 18.5662 47.3172 18.5471 47.2988C18.528 47.2804 18.5052 47.2663 18.4802 47.2575C16.8652 46.6493 15.3004 45.9154 13.8002 45.0625C13.7733 45.0471 13.7506 45.0253 13.7341 44.9989C13.7177 44.9726 13.708 44.9426 13.7061 44.9116C13.7041 44.8806 13.7098 44.8497 13.7228 44.8214C13.7357 44.7932 13.7555 44.7687 13.7802 44.75C14.0952 44.5175 14.4102 44.275 14.7102 44.0325C14.7372 44.0107 14.7698 43.9968 14.8042 43.9924C14.8386 43.988 14.8736 43.9932 14.9052 44.0075C24.7227 48.4175 35.3552 48.4175 45.0577 44.0075C45.0895 43.9923 45.1248 43.9864 45.1597 43.9904C45.1946 43.9944 45.2277 44.0081 45.2552 44.03C45.5552 44.275 45.8677 44.5175 46.1852 44.75C46.2102 44.7683 46.2303 44.7925 46.2437 44.8205C46.257 44.8485 46.2632 44.8793 46.2618 44.9103C46.2603 44.9412 46.2511 44.9713 46.2352 44.9979C46.2192 45.0245 46.1969 45.0467 46.1702 45.0625C44.6752 45.9225 43.1202 46.65 41.4877 47.255C41.4627 47.2641 41.4398 47.2784 41.4207 47.2971C41.4016 47.3157 41.3868 47.3382 41.3771 47.363C41.3674 47.3879 41.3631 47.4145 41.3645 47.4411C41.3659 47.4678 41.373 47.4938 41.3852 47.5175C42.2852 49.235 43.3152 50.87 44.4477 52.4225C44.4713 52.4543 44.5041 52.4782 44.5417 52.4907C44.5792 52.5032 44.6198 52.5038 44.6577 52.4925C50.0436 50.8716 55.1167 48.3519 59.6627 45.04C59.6849 45.0245 59.7035 45.0044 59.7173 44.9811C59.7311 44.9578 59.7398 44.9319 59.7427 44.905C60.9927 32.17 57.6477 21.105 50.8702 11.3C50.8536 11.2681 50.8261 11.2433 50.7927 11.23ZM20.0502 38.195C17.0952 38.195 14.6577 35.5225 14.6577 32.245C14.6577 28.965 17.0477 26.295 20.0502 26.295C23.0752 26.295 25.4902 28.9875 25.4427 32.245C25.4427 35.525 23.0527 38.195 20.0502 38.195ZM39.9877 38.195C37.0302 38.195 34.5952 35.5225 34.5952 32.245C34.5952 28.965 36.9827 26.295 39.9877 26.295C43.0127 26.295 45.4277 28.9875 45.3802 32.245C45.3802 35.525 43.0152 38.195 39.9877 38.195Z" fill="#FCEE21"/>
</g>
<defs>
<clipPath id="clip0_36_1112">
<rect width="60" height="60" fill="white"/>
</clipPath>
</defs>
</svg>
