<svg width="60" height="60" viewBox="0 0 60 60" fill="none" xmlns="http://www.w3.org/2000/svg">
<path d="M59.1073 12.3425C57.0198 13.2675 54.7773 13.8925 52.4198 14.175C54.8523 12.7195 56.6721 10.4287 57.5398 7.73001C55.2544 9.08748 52.7531 10.043 50.1448 10.555C48.3907 8.68217 46.0674 7.44082 43.5356 7.02369C41.0038 6.60656 38.405 7.03699 36.1429 8.24814C33.8807 9.45929 32.0817 11.3834 31.0252 13.7218C29.9686 16.0601 29.7136 18.6819 30.2998 21.18C25.669 20.9475 21.1389 19.7439 17.0033 17.6473C12.8678 15.5507 9.21939 12.6079 6.29478 9.01001C5.29478 10.735 4.71978 12.735 4.71978 14.865C4.71867 16.7825 5.19087 18.6706 6.09448 20.3618C6.9981 22.0531 8.30519 23.4951 9.89978 24.56C8.05048 24.5012 6.24197 24.0015 4.62478 23.1025V23.2525C4.6246 25.9419 5.55487 28.5485 7.25774 30.63C8.96062 32.7115 11.3312 34.1398 13.9673 34.6725C12.2517 35.1368 10.4531 35.2052 8.70728 34.8725C9.45103 37.1865 10.8998 39.2101 12.8507 40.6598C14.8016 42.1096 17.1571 42.913 19.5873 42.9575C15.4619 46.196 10.367 47.9527 5.12228 47.945C4.19324 47.9453 3.26498 47.891 2.34229 47.7825C7.66597 51.2054 13.8631 53.0221 20.1923 53.015C41.6173 53.015 53.3298 35.27 53.3298 19.88C53.3298 19.38 53.3173 18.875 53.2948 18.375C55.573 16.7274 57.5396 14.6872 59.1023 12.35L59.1073 12.3425Z" fill="#FCEE21"/>
</svg>
