<svg width="80" height="80" viewBox="0 0 80 80" fill="none" xmlns="http://www.w3.org/2000/svg">
<path fill-rule="evenodd" clip-rule="evenodd" d="M30.2202 3.33337C28.2752 3.33382 26.4102 4.10686 25.0352 5.48244C23.6602 6.85802 22.8881 8.72345 22.8885 10.6684C22.8889 12.6133 23.662 14.4784 25.0376 15.8533C26.4131 17.2283 28.2786 18.0005 30.2235 18H37.5568V10.6667C37.5551 8.72233 36.7819 6.85809 35.407 5.48321C34.0321 4.10832 32.1679 3.33514 30.2235 3.33337H30.2202ZM30.2202 22.89H10.6668C8.72191 22.89 6.85665 23.6627 5.48138 25.0379C4.10611 26.4132 3.3335 28.2785 3.3335 30.2234C3.3335 32.1683 4.10611 34.0336 5.48138 35.4088C6.85665 36.7841 8.72191 37.5567 10.6668 37.5567H30.2202C32.1651 37.5567 34.0303 36.7841 35.4056 35.4088C36.7809 34.0336 37.5535 32.1683 37.5535 30.2234C37.5535 28.2785 36.7809 26.4132 35.4056 25.0379C34.0303 23.6627 32.1651 22.89 30.2202 22.89ZM76.6668 30.22C76.6668 28.2751 75.8942 26.4099 74.5189 25.0346C73.1437 23.6593 71.2784 22.8867 69.3335 22.8867C67.3886 22.8867 65.5233 23.6593 64.148 25.0346C62.7728 26.4099 62.0002 28.2751 62.0002 30.22V37.5534H69.3335C71.2784 37.5534 73.1437 36.7808 74.5189 35.4055C75.8942 34.0302 76.6668 32.165 76.6668 30.22ZM57.1102 30.22V10.6667C57.1102 8.72179 56.3375 6.85652 54.9623 5.48126C53.587 4.10599 51.7217 3.33337 49.7768 3.33337C47.8319 3.33337 45.9666 4.10599 44.5914 5.48126C43.2161 6.85652 42.4435 8.72179 42.4435 10.6667V30.22C42.4435 32.165 43.2161 34.0302 44.5914 35.4055C45.9666 36.7808 47.8319 37.5534 49.7768 37.5534C51.7217 37.5534 53.587 36.7808 54.9623 35.4055C56.3375 34.0302 57.1102 32.165 57.1102 30.22ZM49.7768 76.6667C51.7217 76.6667 53.587 75.8941 54.9623 74.5188C56.3375 73.1435 57.1102 71.2783 57.1102 69.3334C57.1102 67.3884 56.3375 65.5232 54.9623 64.1479C53.587 62.7727 51.7217 62 49.7768 62H42.4435V69.3334C42.4444 71.278 43.2173 73.1428 44.5924 74.5178C45.9674 75.8929 47.8322 76.6658 49.7768 76.6667ZM49.7768 57.1067H69.3335C71.2784 57.1067 73.1437 56.3341 74.5189 54.9588C75.8942 53.5835 76.6668 51.7183 76.6668 49.7734C76.6668 47.8284 75.8942 45.9632 74.5189 44.5879C73.1437 43.2127 71.2784 42.44 69.3335 42.44H49.7802C47.8352 42.4396 45.9698 43.2118 44.5942 44.5867C43.2186 45.9617 42.4456 47.8268 42.4452 49.7717C42.4447 51.7166 43.2169 53.5821 44.5919 54.9576C45.9668 56.3332 47.8319 57.1063 49.7768 57.1067ZM3.3335 49.7767C3.3335 51.7216 4.10611 53.5869 5.48138 54.9622C6.85665 56.3374 8.72191 57.11 10.6668 57.11C12.6117 57.11 14.477 56.3374 15.8523 54.9622C17.2275 53.5869 18.0002 51.7216 18.0002 49.7767V42.4434H10.6668C8.72191 42.4434 6.85665 43.216 5.48138 44.5913C4.10611 45.9665 3.3335 47.8318 3.3335 49.7767ZM22.8902 49.7767V69.33C22.8897 71.275 23.6619 73.1404 25.0369 74.516C26.4118 75.8916 28.2769 76.6646 30.2218 76.665C32.1667 76.6655 34.0322 75.8933 35.4078 74.5183C36.7833 73.1434 37.5564 71.2783 37.5568 69.3334V49.78C37.5573 47.8351 36.7851 45.9697 35.4101 44.5941C34.0352 43.2185 32.1701 42.4455 30.2252 42.445C28.2802 42.4446 26.4148 43.2168 25.0392 44.5917C23.6636 45.9667 22.8906 47.8318 22.8902 49.7767Z" fill="#DCDE9F"/>
</svg>
