<svg width="60" height="60" viewBox="0 0 60 60" fill="none" xmlns="http://www.w3.org/2000/svg">
<path fill-rule="evenodd" clip-rule="evenodd" d="M22.665 2.5C21.2063 2.50033 19.8075 3.08011 18.7763 4.1118C17.7451 5.14348 17.1659 6.54256 17.1662 8.00125C17.1666 9.45994 17.7464 10.8588 18.778 11.89C19.8097 12.9212 21.2088 13.5003 22.6675 13.5H28.1675V8C28.1662 6.54171 27.5863 5.14354 26.5551 4.11237C25.524 3.08121 24.1258 2.50132 22.6675 2.5H22.665ZM22.665 17.1675H8C6.54131 17.1675 5.14236 17.747 4.11091 18.7784C3.07946 19.8099 2.5 21.2088 2.5 22.6675C2.5 24.1262 3.07946 25.5251 4.11091 26.5566C5.14236 27.588 6.54131 28.1675 8 28.1675H22.665C24.1237 28.1675 25.5226 27.588 26.5541 26.5566C27.5855 25.5251 28.165 24.1262 28.165 22.6675C28.165 21.2088 27.5855 19.8099 26.5541 18.7784C25.5226 17.747 24.1237 17.1675 22.665 17.1675ZM57.5 22.665C57.5 21.2063 56.9205 19.8074 55.8891 18.7759C54.8576 17.7445 53.4587 17.165 52 17.165C50.5413 17.165 49.1423 17.7445 48.1109 18.7759C47.0795 19.8074 46.5 21.2063 46.5 22.665V28.165H52C53.4587 28.165 54.8576 27.5855 55.8891 26.5541C56.9205 25.5226 57.5 24.1237 57.5 22.665ZM42.8325 22.665V8C42.8325 6.54131 42.253 5.14236 41.2216 4.11091C40.1901 3.07946 38.7912 2.5 37.3325 2.5C35.8738 2.5 34.4749 3.07946 33.4434 4.11091C32.412 5.14236 31.8325 6.54131 31.8325 8V22.665C31.8325 24.1237 32.412 25.5226 33.4434 26.5541C34.4749 27.5855 35.8738 28.165 37.3325 28.165C38.7912 28.165 40.1901 27.5855 41.2216 26.5541C42.253 25.5226 42.8325 24.1237 42.8325 22.665ZM37.3325 57.5C38.7912 57.5 40.1901 56.9205 41.2216 55.8891C42.253 54.8576 42.8325 53.4587 42.8325 52C42.8325 50.5413 42.253 49.1423 41.2216 48.1109C40.1901 47.0795 38.7912 46.5 37.3325 46.5H31.8325V52C31.8332 53.4585 32.4128 54.857 33.4441 55.8883C34.4754 56.9196 35.874 57.4993 37.3325 57.5ZM37.3325 42.83H52C53.4587 42.83 54.8576 42.2505 55.8891 41.2191C56.9205 40.1876 57.5 38.7887 57.5 37.33C57.5 35.8713 56.9205 34.4724 55.8891 33.4409C54.8576 32.4095 53.4587 31.83 52 31.83H37.335C35.8763 31.8297 34.4772 32.4088 33.4455 33.44C32.4139 34.4712 31.8341 35.8701 31.8337 37.3287C31.8334 38.7874 32.4126 40.1865 33.4438 41.2182C34.475 42.2499 35.8738 42.8297 37.3325 42.83ZM2.5 37.3325C2.5 38.7912 3.07946 40.1901 4.11091 41.2216C5.14236 42.253 6.54131 42.8325 8 42.8325C9.45869 42.8325 10.8576 42.253 11.8891 41.2216C12.9205 40.1901 13.5 38.7912 13.5 37.3325V31.8325H8C6.54131 31.8325 5.14236 32.412 4.11091 33.4434C3.07946 34.4749 2.5 35.8738 2.5 37.3325ZM17.1675 37.3325V51.9975C17.1672 53.4562 17.7463 54.8553 18.7775 55.8869C19.8087 56.9186 21.2076 57.4984 22.6662 57.4987C24.1249 57.4991 25.524 56.9199 26.5557 55.8887C27.5874 54.8575 28.1672 53.4587 28.1675 52V37.335C28.1678 35.8763 27.5887 34.4772 26.5575 33.4455C25.5262 32.4139 24.1274 31.8341 22.6687 31.8337C21.2101 31.8334 19.811 32.4126 18.7793 33.4438C17.7476 34.475 17.1678 35.8738 17.1675 37.3325Z" fill="#FCEE21"/>
</svg>
