<svg width="80" height="80" viewBox="0 0 80 80" fill="none" xmlns="http://www.w3.org/2000/svg">
<path d="M72.5 12.5H7.5C6.11719 12.5 5 13.6172 5 15V65C5 66.3828 6.11719 67.5 7.5 67.5H72.5C73.8828 67.5 75 66.3828 75 65V15C75 13.6172 73.8828 12.5 72.5 12.5ZM69.375 21.1562V61.875H10.625V21.1562L8.46875 19.4766L11.5391 15.5313L14.8828 18.1328H65.125L68.4688 15.5313L71.5391 19.4766L69.375 21.1562ZM65.125 18.125L40 37.6562L14.875 18.125L11.5313 15.5234L8.46094 19.4688L10.6172 21.1484L37.3047 41.8984C38.0722 42.4947 39.0164 42.8184 39.9883 42.8184C40.9602 42.8184 41.9044 42.4947 42.6719 41.8984L69.375 21.1562L71.5312 19.4766L68.4609 15.5313L65.125 18.125Z" fill="#FCEE21"/>
</svg>
