<svg width="60" height="80" viewBox="0 0 60 80" fill="none" xmlns="http://www.w3.org/2000/svg">
<path d="M30 0C13.4575 0 0 13.485 0 30.055C0 54.8725 28.0025 78.7025 29.195 79.705C29.4178 79.8949 29.7005 80 29.9932 80.0018C30.2859 80.0037 30.5699 79.9021 30.795 79.715C31.9875 78.73 60 55.31 60 30.055C60 13.485 46.5425 0 30 0ZM30.005 77.095C25.4025 72.9825 2.5 51.4475 2.5 30.055C2.5 14.86 14.8375 2.5 30 2.5C45.1625 2.5 57.5 14.86 57.5 30.055C57.5 51.81 34.62 73.0375 30.005 77.095Z" fill="#FCEE21"/>
<path d="M30 15C21.7275 15 15 21.7275 15 30C15 38.2725 21.7275 45 30 45C38.2725 45 45 38.2725 45 30C45 21.7275 38.2725 15 30 15ZM30 42.5C23.1075 42.5 17.5 36.8925 17.5 30C17.5 23.1075 23.1075 17.5 30 17.5C36.8925 17.5 42.5 23.1075 42.5 30C42.5 36.8925 36.8925 42.5 30 42.5Z" fill="#FCEE21"/>
</svg>
