<svg width="80" height="80" viewBox="0 0 80 80" fill="none" xmlns="http://www.w3.org/2000/svg">
<path d="M66.6667 36.6634H73.3334C73.3334 19.5634 60.4234 6.66669 43.3 6.66669V13.3334C56.84 13.3334 66.6667 23.1434 66.6667 36.6634Z" fill="#FCEE21"/>
<path d="M43.3333 26.6666C50.3433 26.6666 53.3333 29.6566 53.3333 36.6666H60C60 25.9166 54.0833 20 43.3333 20V26.6666ZM54.74 44.81C54.0995 44.2278 53.2578 43.9173 52.3926 43.9441C51.5275 43.9708 50.7066 44.3327 50.1033 44.9533L42.1266 53.1566C40.2066 52.79 36.3466 51.5866 32.3733 47.6233C28.4 43.6466 27.1966 39.7766 26.84 37.87L35.0366 29.89C35.658 29.2871 36.0204 28.4661 36.0472 27.6007C36.0739 26.7353 35.7629 25.8935 35.18 25.2533L22.8633 11.71C22.2801 11.0678 21.4696 10.6783 20.6038 10.6242C19.7381 10.57 18.8853 10.8555 18.2266 11.42L10.9933 17.6233C10.417 18.2017 10.073 18.9715 10.0266 19.7866C9.97663 20.62 9.0233 40.36 24.33 55.6733C37.6833 69.0233 54.41 70 59.0166 70C59.69 70 60.1033 69.98 60.2133 69.9733C61.0283 69.9277 61.7977 69.5822 62.3733 69.0033L68.5733 61.7667C69.1382 61.1084 69.4242 60.2559 69.3707 59.3902C69.3172 58.5244 68.9283 57.7136 68.2866 57.13L54.74 44.81Z" fill="#FCEE21"/>
</svg>
