<svg width="60" height="42" viewBox="0 0 60 42" fill="none" xmlns="http://www.w3.org/2000/svg">
<path d="M58.7501 7.26751C58.4103 6.05559 57.7486 4.95837 56.8351 4.09251C55.8958 3.20002 54.7446 2.5616 53.4901 2.23751C48.7951 1.00001 29.9851 1.00001 29.9851 1.00001C22.1434 0.910789 14.3036 1.30319 6.51008 2.17501C5.25555 2.52304 4.10649 3.17572 3.16508 4.07501C2.24008 4.96501 1.57008 6.06251 1.22008 7.26501C0.379311 11.7944 -0.0291918 16.3934 7.81141e-05 21C-0.0299219 25.6025 0.377578 30.2 1.22008 34.735C1.56258 35.9325 2.23008 37.025 3.15758 37.9075C4.08508 38.79 5.24008 39.4275 6.51008 39.765C11.2676 41 29.9851 41 29.9851 41C37.8367 41.0894 45.6865 40.6969 53.4901 39.825C54.7446 39.5009 55.8958 38.8625 56.8351 37.97C57.7482 37.1043 58.4092 36.007 58.7476 34.795C59.6103 30.2674 60.0298 25.6665 60.0001 21.0575C60.065 16.429 59.646 11.8064 58.7501 7.26501V7.26751ZM24.0051 29.56V12.4425L39.6551 21.0025L24.0051 29.56Z" fill="#FCEE21"/>
</svg>
